<?xml version="1.0" encoding="UTF-8"?> <svg xmlns="http://www.w3.org/2000/svg" xmlns:xlink="http://www.w3.org/1999/xlink" viewBox="0 0 311.91 69.89"><defs><style>.cls-1{fill:none;}.cls-2{clip-path:url(#clip-path);}.cls-3{fill:#fff;}</style><clipPath id="clip-path" transform="translate(0 0)"><rect class="cls-1" width="311.91" height="69.89"></rect></clipPath></defs><g id="Layer_2" data-name="Layer 2"><g id="Layer_1-2" data-name="Layer 1"><g class="cls-2"><path class="cls-3" d="M297.62,54.18a23.19,23.19,0,0,1-4.27,3.18,26,26,0,0,1-4.19,2,12.78,12.78,0,0,1-2.84.73,1,1,0,0,1-1.1-.79,3.72,3.72,0,0,1,.36-2.27,13.88,13.88,0,0,1,1.94-3.19,19,19,0,0,1,3.63-3.48A33.44,33.44,0,0,1,296.73,47a59,59,0,0,1,5.65-2.33,29.62,29.62,0,0,1-1.62,5,13.11,13.11,0,0,1-3.14,4.51m11.53-13.83-1.59.35q.27-1.71.45-3.3c.13-1.06.25-2,.35-2.92s.17-1.65.2-2.3,0-1.13,0-1.44a2.26,2.26,0,0,0-.62-1.33,4.41,4.41,0,0,0-1.21-.92,11,11,0,0,0-1.38-.59,10.2,10.2,0,0,1-1.08-.41c-.35-.19-.49.2-.42,1.18-.28.39-.64.9-1.09,1.51s-.95,1.22-1.5,1.85-1.11,1.22-1.69,1.77A5.79,5.79,0,0,1,297.9,35a3,3,0,0,1-1.69.41.65.65,0,0,1-.54-.64,3.22,3.22,0,0,1,.27-1.36,16.65,16.65,0,0,1,.72-1.62c.27-.53.54-1,.8-1.48l.58-1c.11-.24.23-.47.36-.71a1.35,1.35,0,0,0,.2-.65.69.69,0,0,0-.21-.5,1.81,1.81,0,0,0-.77-.32l-.7-.09a2.14,2.14,0,0,0-.7.06,5.2,5.2,0,0,0-.85.32,10.16,10.16,0,0,0-1.16.71,9.58,9.58,0,0,0-1.61,1.42,14.14,14.14,0,0,0-1.49,1.88,14,14,0,0,0-1.09,2,5.46,5.46,0,0,0-.49,1.56,3.13,3.13,0,0,0,.61,2.09,6.59,6.59,0,0,0,1.71,1.66,7.76,7.76,0,0,0,2.17,1,3.67,3.67,0,0,0,2.1,0,9.08,9.08,0,0,0,3.61-2.18c1.18-1.1,2.58-2.38,4.18-3.84-.06.91-.15,2.08-.26,3.51a39,39,0,0,1-.68,4.69,65,65,0,0,0-8.8,3.13,49.6,49.6,0,0,0-6.55,3.47,18.43,18.43,0,0,0-4.22,3.6,7.45,7.45,0,0,0-1.76,3.54,8.24,8.24,0,0,0,1.75,6.6A6.29,6.29,0,0,0,285.65,64a3.62,3.62,0,0,0,2.44.27A40.94,40.94,0,0,0,292,63.14a24.5,24.5,0,0,0,4.83-2.3,22.09,22.09,0,0,0,4.73-3.92,18.78,18.78,0,0,0,3.65-6.08,30,30,0,0,0,1.08-3.56c.32-1.36.62-2.78.88-4.28l1-.32.78-.27c1.65-.63,2.6-1.22,2.87-1.77s-.1-.76-1.1-.65l-1.58.36m-32.5-10.5a.59.59,0,0,0-.12-.77,5.39,5.39,0,0,0-1.64-1,7.39,7.39,0,0,0-1.86-.44,9.22,9.22,0,0,0-1.82,0,11.14,11.14,0,0,0-1.57.26,8.48,8.48,0,0,0-2,1,17.05,17.05,0,0,0-2.56,2,14,14,0,0,0-2.21,2.6,4.84,4.84,0,0,0-.88,2.89,4.34,4.34,0,0,0,.77,2.47,6.16,6.16,0,0,0,1.67,1.6,5.38,5.38,0,0,0,1.86.76,2.75,2.75,0,0,0,1.41,0c.62-.27,1.44-.6,2.47-1a13.45,13.45,0,0,0,2.95-1.5,2.67,2.67,0,0,0,.32,1.94,3.27,3.27,0,0,0,1.32,1.18,4,4,0,0,0,1.74.44,3.81,3.81,0,0,0,1.52-.2c.4-.16,1.13-.51,2.18-1.06s2.19-1.18,3.41-1.89S286,37.68,287.2,37s2.06-1.33,2.72-1.8a8.85,8.85,0,0,0,1.67-1.54,7.2,7.2,0,0,0,1-1.47c.22-.43.26-.75.15-.94s-.44-.2-.95,0l-1.59.59c-.74.27-1.56.6-2.47,1s-1.87.76-2.87,1.15-1.93.78-2.78,1.15-1.61.71-2.26,1a8,8,0,0,0-1.28.68c-.35.24-.55.32-.6.27s0-.21.06-.45a6.67,6.67,0,0,1,.43-.82l.57-.89a1.31,1.31,0,0,0,.05-1.38,2.83,2.83,0,0,0-1.1-1.27c-.08,0-.35,0-.78.21s-1,.41-1.66.7-1.38.62-2.12,1l-2.1,1c-.67.31-1.23.59-1.7.82a3.48,3.48,0,0,1-.81.36q-.14-.64.84-1.71a16.7,16.7,0,0,1,2.26-2,29.33,29.33,0,0,1,2.45-1.65,4.86,4.86,0,0,1,1.46-.68.69.69,0,0,0,.85-.35M243.34,2.16a13.42,13.42,0,0,0-2.81,1.92,18.5,18.5,0,0,0-2.27,2.42c-.68.86-1.35,1.71-2,2.53.49-1.49.89-2.69,1.18-3.59A11.67,11.67,0,0,1,238,4c.14-.31,0-.74-.4-1.29a3.62,3.62,0,0,0-1.32-1.18c-1.26-.63-2.1-.86-2.52-.68a1.29,1.29,0,0,0-.79.91c0,.24-.13.69-.3,1.36s-.38,1.49-.64,2.47-.57,2.06-.94,3.22-.76,2.33-1.2,3.51c-.28.78-.69,2-1.24,3.77s-1.16,3.67-1.82,5.81-1.34,4.38-2,6.72-1.32,4.51-1.91,6.52-1.1,3.71-1.52,5.1-.68,2.23-.78,2.51a3.17,3.17,0,0,0,0,1.71,10.67,10.67,0,0,0,.73,2.12,9,9,0,0,0,1.2,1.89,2.12,2.12,0,0,0,1.35.88,1.16,1.16,0,0,0,1-.59A12.74,12.74,0,0,0,225.94,47q.27-.7.54-1.59a15.27,15.27,0,0,0,.44-1.83c.07-.47.19-1.13.36-2s.36-1.74.57-2.69.41-1.85.62-2.71a12.59,12.59,0,0,1,.63-2.06c.22-1.3.54-2.76,1-4.37s.86-3.29,1.35-5,1-3.52,1.56-5.31,1.09-3.51,1.59-5.16a25,25,0,0,1,5.55-4.69,12.41,12.41,0,0,1,6.57-1.85A6.36,6.36,0,0,1,250.54,9a8.13,8.13,0,0,1,2.63,3.39,14.35,14.35,0,0,1,1.1,5.07,20.53,20.53,0,0,1-.72,6.28,35.68,35.68,0,0,1-2.1,5.89A21,21,0,0,1,247.89,35a21.82,21.82,0,0,1-5.57,4.37,27.63,27.63,0,0,1-8.24,2.83,10.39,10.39,0,0,1-1.66.11h-2a8.35,8.35,0,0,0-1.71.15c-.48.1-.73.29-.75.56a1.42,1.42,0,0,0,.22.86,2.31,2.31,0,0,0,1.07.79,8.56,8.56,0,0,0,2.29.56,21.8,21.8,0,0,0,3.94.09,27,27,0,0,0,8.62-1.8,29.36,29.36,0,0,0,7.7-4.36,26.93,26.93,0,0,0,5.91-6.46,22.14,22.14,0,0,0,3.25-8,19.19,19.19,0,0,0,.22-5.81,26,26,0,0,0-1.26-5.6,24.35,24.35,0,0,0-2.39-5,20.77,20.77,0,0,0-3.19-4,12.9,12.9,0,0,0-3.65-2.54A6.8,6.8,0,0,0,247,1.13a10.63,10.63,0,0,0-3.64,1M214,8.56a5.87,5.87,0,0,0-1.17-.85,4.89,4.89,0,0,0-1.37-.56A4,4,0,0,0,210.09,7a1.64,1.64,0,0,0-1.08.53.89.89,0,0,0-.23,1.09c.18.41.37.82.56,1.21a.85.85,0,0,1,.11.26.81.81,0,0,0,.11.27,17,17,0,0,1,.64,2.36,3.37,3.37,0,0,1-.18,2.12,3.32,3.32,0,0,1-.65.92,1.39,1.39,0,0,1-.61.32,1.67,1.67,0,0,1-.53,0,.52.52,0,0,0-.32,0,1.23,1.23,0,0,0-.46,1,1.64,1.64,0,0,0,.39.92,2.53,2.53,0,0,0,.93.67,1.91,1.91,0,0,0,1.2.15,3.38,3.38,0,0,0,1.08-.53,8.74,8.74,0,0,0,1.52-1.27A11.08,11.08,0,0,0,214,15.23a5.14,5.14,0,0,0,.8-2.24c.07-.67.11-1.26.13-1.77a4.2,4.2,0,0,0-.13-1.3A2.46,2.46,0,0,0,214,8.56M184.72,57.8a29.6,29.6,0,0,1-5,3.78,28.31,28.31,0,0,1-4.92,2.33,14.12,14.12,0,0,1-3.34.85,1,1,0,0,1-1.22-.94,5.15,5.15,0,0,1,.56-2.74,18.13,18.13,0,0,1,2.39-3.78,25.49,25.49,0,0,1,4.33-4.16,21.18,21.18,0,0,1,6.08-3.3,35.75,35.75,0,0,1,6.35-1.59c-.2.79-.42,1.53-.65,2.24a22,22,0,0,1-.81,2.06,15.32,15.32,0,0,1-3.73,5.25m5-53.13a6.74,6.74,0,0,1,1.66.53,11.81,11.81,0,0,1,1.26.71,1.92,1.92,0,0,0,1,.35c.68,0,1-.24,1.05-.85a5.44,5.44,0,0,0-1.2-2.69,5.13,5.13,0,0,0-1.71-1.47,8.93,8.93,0,0,0-2.23-.88A12,12,0,0,0,187.29,0a5,5,0,0,0-1.83.18A44.05,44.05,0,0,0,175.3,4.61a41,41,0,0,0-8.45,6.61,33.28,33.28,0,0,0-6,8.34,27.14,27.14,0,0,0-2.79,9.58,19.9,19.9,0,0,0,.38,7.14,15.93,15.93,0,0,0,2.12,4.8,11.8,11.8,0,0,0,2.76,3l2.34,1.71a7.61,7.61,0,0,0,2.61,1.15,12.44,12.44,0,0,0,3.11.39,10.17,10.17,0,0,0,4.13-.89,16.87,16.87,0,0,0,3.82-2.33,25.58,25.58,0,0,0,3.41-3.27,42.54,42.54,0,0,0,2.9-3.72c.88-1.25,1.65-2.46,2.33-3.62s1.24-2.15,1.67-3a30.71,30.71,0,0,0,1.45-3.13c.09,1.07.16,2.32.21,3.78s.05,3,0,4.66-.13,3.35-.28,5.1-.38,3.47-.68,5.16a47.72,47.72,0,0,0-8.92,1.56,35.14,35.14,0,0,0-7.31,2.89,20.31,20.31,0,0,0-5.32,4,12.22,12.22,0,0,0-2.88,5.07,7.89,7.89,0,0,0-.05,4.28,8.53,8.53,0,0,0,1.81,3.39,8.12,8.12,0,0,0,2.86,2.12,4.56,4.56,0,0,0,3,.35,45.73,45.73,0,0,0,4.69-1.35,29.7,29.7,0,0,0,5.81-2.74A28.32,28.32,0,0,0,189.8,61a22.85,22.85,0,0,0,4.51-7.11,28.22,28.22,0,0,0,1-2.86,30.27,30.27,0,0,0,.76-3.21c.55,0,1,0,1.48,0l1.26.08a8,8,0,0,0,2.48-.11,1.76,1.76,0,0,0,1.07-.59c.13-.24.06-.47-.2-.71a2.3,2.3,0,0,0-1.24-.47c-1.52-.12-3-.18-4.52-.18a75.23,75.23,0,0,0,.81-7.52q.22-3.85.27-7.13c0-2.19,0-4.06-.07-5.64s-.11-2.59-.12-3.06a2.25,2.25,0,0,0-.84-1.59,6.85,6.85,0,0,0-1.77-1.07,16.23,16.23,0,0,0-2-.67,8.89,8.89,0,0,1-1.43-.5c-.35-.2-.57,0-.67.47a8.64,8.64,0,0,0-.06,2.12c-.53,1.3-1.17,2.74-1.9,4.33a48.87,48.87,0,0,1-2.52,4.78A42.11,42.11,0,0,1,183,35a18.45,18.45,0,0,1-3.8,3.66,12.55,12.55,0,0,1-4.47,2,9.62,9.62,0,0,1-5.1-.26,5.13,5.13,0,0,1-2.36-1.68,11.5,11.5,0,0,1-1.71-2.92,13.11,13.11,0,0,1-.89-3.51,10.84,10.84,0,0,1,.08-3.39,33.51,33.51,0,0,1,2.89-8.49,30.44,30.44,0,0,1,4.91-7.2,28.26,28.26,0,0,1,6.68-5.37,26.73,26.73,0,0,1,8.19-3.06,5.84,5.84,0,0,1,2.31-.12M139.63,28c-.06-.12-.2-.18-.41-.18h-2.45a1.29,1.29,0,0,0-.63.18,1.08,1.08,0,0,0-.47.45l-.34.57c-.11.19-.23.39-.36.58s-.38.64-.56,1l-.57,1-1.15,2c-.13.2-.25.4-.37.6s-.24.38-.35.57a.48.48,0,0,1-.4.27.43.43,0,0,1-.37-.27l-.91-1.53-.92-1.57q-.48-.78-.93-1.56c-.31-.51-.61-1-.91-1.53a1.2,1.2,0,0,0-.47-.45,1.32,1.32,0,0,0-.64-.18H124a.45.45,0,0,0-.42.18.43.43,0,0,0,.06.45c.46.81.94,1.62,1.44,2.41s1,1.6,1.54,2.41,1,1.6,1.5,2.39,1,1.6,1.43,2.42a2.65,2.65,0,0,1,.28.67,2.88,2.88,0,0,1,.1.72v5.17a.72.72,0,0,0,.21.52.65.65,0,0,0,.51.22h1.9a.69.69,0,0,0,.53-.22.73.73,0,0,0,.22-.52V39.45a3.36,3.36,0,0,1,.09-.72,2.08,2.08,0,0,1,.27-.67c.17-.31.36-.62.56-.94s.41-.66.64-1,.58-.94.87-1.43.61-1,.93-1.47.6-1,.9-1.47l.88-1.42.62-1,.55-.9a.45.45,0,0,0,0-.45m-25.34,11.5a.53.53,0,0,1,0-.49l1.9-4c.08-.19.18-.29.31-.29s.23.1.31.29l1.88,4a.52.52,0,0,1,0,.47.42.42,0,0,1-.42.21h-3.56a.48.48,0,0,1-.43-.19m-6.62,5.69a.43.43,0,0,0,.42.19h2.19a1.09,1.09,0,0,0,.61-.19,1.29,1.29,0,0,0,.45-.48l.69-1.42a1.09,1.09,0,0,1,.43-.48,1.18,1.18,0,0,1,.63-.19h6.82a1.09,1.09,0,0,1,.61.19,1.31,1.31,0,0,1,.45.46l.72,1.44a1,1,0,0,0,.43.48,1.18,1.18,0,0,0,.63.19h2.18a.43.43,0,0,0,.42-.19.48.48,0,0,0,0-.46L117,28.07a.54.54,0,0,0-1,0l-8.34,16.64a.5.5,0,0,0,0,.46M91.76,43a.62.62,0,0,0,.31.45c.18.13.34.25.51.35s.32.2.48.3.52.31.79.45.55.26.84.37a8.82,8.82,0,0,0,1.9.55A12.11,12.11,0,0,0,99,45.7a10.84,10.84,0,0,0,2.72-.34,5.82,5.82,0,0,0,2.11-1,4.27,4.27,0,0,0,1.37-1.66,5.54,5.54,0,0,0,.48-2.37,5.1,5.1,0,0,0-.36-2,4.18,4.18,0,0,0-.91-1.4l-.3-.27a3.12,3.12,0,0,0-.35-.25,5.13,5.13,0,0,0-.64-.39c-.25-.13-.47-.23-.66-.31l-.39-.14-.4-.12-.72-.21c-.24-.05-.47-.1-.7-.13a5.25,5.25,0,0,1-.62-.12l-.56-.12-.68-.17c-.23-.05-.47-.1-.71-.17L97,34.31c-.22-.06-.43-.14-.64-.22a3,3,0,0,1-1-.6,1.15,1.15,0,0,1-.39-.88,1.46,1.46,0,0,1,.31-.92,2,2,0,0,1,.38-.33,2.72,2.72,0,0,1,.44-.27,4.91,4.91,0,0,1,1.06-.36l.51-.07a3.94,3.94,0,0,1,.47,0,6.48,6.48,0,0,1,2.43.45,9.7,9.7,0,0,1,1.78.91.7.7,0,0,0,.56.12.71.71,0,0,0,.49-.31l1-1.44a.71.71,0,0,0,.15-.55.77.77,0,0,0-.32-.48l-.48-.29-.45-.29-.7-.37a6.88,6.88,0,0,0-.74-.32l-.79-.23a7,7,0,0,0-.82-.18,11.7,11.7,0,0,0-2-.15,11,11,0,0,0-2.31.24,7.19,7.19,0,0,0-2.16.82,4.89,4.89,0,0,0-1.59,1.61,5,5,0,0,0-.62,2.57A4.65,4.65,0,0,0,92,34.57a4,4,0,0,0,.94,1.35,5.19,5.19,0,0,0,1.3.94,7.47,7.47,0,0,0,1.46.6,8.29,8.29,0,0,0,1.45.36l.64.13.58.11.78.14.73.17c.26.06.49.13.7.19s.4.14.58.22a2.73,2.73,0,0,1,.86.6,1.37,1.37,0,0,1,.34.91,1.6,1.6,0,0,1-.22.82,2.24,2.24,0,0,1-.65.74,3.25,3.25,0,0,1-1,.53A4.29,4.29,0,0,1,99,42.6,6.72,6.72,0,0,1,96,41.93a19.43,19.43,0,0,1-2.11-1.16.8.8,0,0,0-.56-.12.65.65,0,0,0-.45.31l-1,1.49a.8.8,0,0,0-.12.56m-23-12a.74.74,0,0,1,.53-.21h8.1a.73.73,0,0,0,.52-.22.69.69,0,0,0,.22-.53V28.52a.71.71,0,0,0-.22-.53.72.72,0,0,0-.52-.21H65.89a.72.72,0,0,0-.53.21.75.75,0,0,0-.22.53v16.1a.73.73,0,0,0,.22.52.69.69,0,0,0,.53.22H77.35a.75.75,0,0,0,.74-.74V43.08a.69.69,0,0,0-.22-.53.73.73,0,0,0-.52-.22h-8.1a.72.72,0,0,1-.74-.74V39a.72.72,0,0,1,.21-.53.71.71,0,0,1,.53-.22h7a.72.72,0,0,0,.52-.21.71.71,0,0,0,.22-.53V35.9a.75.75,0,0,0-.74-.75h-7a.72.72,0,0,1-.74-.74V31.5a.74.74,0,0,1,.21-.53m-8.93-3.14a.46.46,0,0,0-.48.19l-7.62,9.37a.65.65,0,0,1-1,0L43.14,28a.47.47,0,0,0-.48-.19.32.32,0,0,0-.29.36V44.62a.75.75,0,0,0,.75.74H45a.71.71,0,0,0,.53-.22.73.73,0,0,0,.22-.52v-7.4c0-.21,0-.33.14-.36s.21,0,.34.19l4.54,5.45a.56.56,0,0,0,.46.24.58.58,0,0,0,.47-.24l4.57-5.45c.12-.18.23-.24.32-.21s.13.17.13.38v7.4a.75.75,0,0,0,.75.74h1.89a.67.67,0,0,0,.51-.22.73.73,0,0,0,.22-.52V28.19a.32.32,0,0,0-.29-.36M31.32,31.08a6.06,6.06,0,0,1,3,3.22,5.86,5.86,0,0,1,0,4.55,6.26,6.26,0,0,1-1.23,1.91,6.12,6.12,0,0,1-1.82,1.32,5.37,5.37,0,0,1-4.48,0A6,6,0,0,1,25,40.76a6.26,6.26,0,0,1-1.23-1.91,5.86,5.86,0,0,1,0-4.55,6,6,0,0,1,3.06-3.22,5.37,5.37,0,0,1,4.48,0M32.62,45a9.24,9.24,0,0,0,4.85-4.86,9.09,9.09,0,0,0,0-7.09,9.22,9.22,0,0,0-4.85-4.87,9.09,9.09,0,0,0-7.09,0,9.18,9.18,0,0,0-2.89,2,9,9,0,0,0-2,2.91,9.09,9.09,0,0,0,0,7.09,9.22,9.22,0,0,0,2,2.9,9.35,9.35,0,0,0,2.89,2,9.09,9.09,0,0,0,7.09,0M16.74,41.13a.65.65,0,0,0-.38-.38L14.58,40A.85.85,0,0,0,14,40a1,1,0,0,0-.51.34l-.24.25-.24.25c-.18.18-.36.34-.55.5a6.13,6.13,0,0,1-.58.42,4.41,4.41,0,0,1-.65.33l-.67.27a5,5,0,0,1-1.45.21,5,5,0,0,1-2.25-.5A5,5,0,0,1,5,40.77a6.64,6.64,0,0,1-1.22-1.9,5.56,5.56,0,0,1-.46-2.28,5.7,5.7,0,0,1,.46-2.28A6.78,6.78,0,0,1,5,32.41a5.91,5.91,0,0,1,1.81-1.32,5.48,5.48,0,0,1,2.25-.48,4.72,4.72,0,0,1,1.45.22l.67.26a5.75,5.75,0,0,1,.65.34,6,6,0,0,1,.58.41,4.84,4.84,0,0,1,.55.48l.24.25.24.25a1,1,0,0,0,.51.33.9.9,0,0,0,.59,0l1.78-.72a.66.66,0,0,0,.38-.37.55.55,0,0,0-.07-.52,9.1,9.1,0,0,0-1-1.27,9.42,9.42,0,0,0-.88-.78,8,8,0,0,0-1-.69,8.9,8.9,0,0,0-2.21-.93,8.94,8.94,0,0,0-2.45-.34,8.78,8.78,0,0,0-3.53.72,9.73,9.73,0,0,0-2.9,1.95,9.73,9.73,0,0,0-1.95,2.9,9,9,0,0,0,0,7.06,9.21,9.21,0,0,0,2,2.89,9.37,9.37,0,0,0,2.9,2,8.78,8.78,0,0,0,3.53.72,9.34,9.34,0,0,0,2.45-.34A8.84,8.84,0,0,0,12.71,45a7.46,7.46,0,0,0,1-.55,8.39,8.39,0,0,0,1.88-1.47,6.35,6.35,0,0,0,.54-.61c.17-.21.33-.43.49-.66a.57.57,0,0,0,.07-.53" transform="translate(0 0)"></path></g></g></g></svg> 