<?xml version="1.0" encoding="utf-8"?>
<!-- Generator: Adobe Illustrator 22.1.0, SVG Export Plug-In . SVG Version: 6.00 Build 0)  -->
<svg version="1.1" id="Layer_1" xmlns="http://www.w3.org/2000/svg" xmlns:xlink="http://www.w3.org/1999/xlink" x="0px" y="0px"
	 viewBox="0 0 619 233" style="enable-background:new 0 0 619 233;" xml:space="preserve">
<style type="text/css">
	.st0{fill:#FFFFFF;}
</style>
<title>hub-projects-logo</title>
<g id="Layer_2_1_">
	<g id="Layer_1-2">
		<path class="st0" d="M29.9,189.9c40,46.9,110.5,52.5,157.3,12.5c8.4-7.1,15.6-15.5,21.6-24.8l-11.5-0.9
			c-4.8,6.7-10.4,12.7-16.6,18.1c-42.7,36.4-106.8,31.3-143.2-11.4C1.2,140.8,6.3,76.6,49,40.3C91.6,3.9,155.8,9,192.1,51.7
			c6.2,7.3,11.3,15.4,15.3,24l11.2,0.9C196,19.2,131.2-9,73.9,13.6c-57.4,22.6-85.5,87.4-63,144.8C15.4,169.9,21.9,180.6,29.9,189.9
			L29.9,189.9L29.9,189.9z"/>
		<path class="st0" d="M54,80.8c0.2,0.3,0.5,0.7,0.7,1.1c0.2,0.4,0.3,0.8,0.4,1.2c0.1,0.5,0.2,1,0.2,1.5v19.3c0.6-1.1,1.4-2,2.3-2.8
			c1-0.8,2.1-1.5,3.3-2c1.2-0.6,2.6-1,3.9-1.2c1.4-0.3,2.8-0.4,4.3-0.4c2.5,0,5,0.5,7.3,1.5c2.2,1,4.1,2.4,5.6,4.2
			c1.6,2,2.9,4.2,3.6,6.7c0.9,2.8,1.3,5.8,1.3,8.8v27h-9v-27c0.2-3.2-0.6-6.5-2.2-9.3c-1.4-2.3-4-3.5-6.7-3.4
			c-1.7,0-3.5,0.2-5.1,0.7c-1.5,0.4-3,1-4.3,1.8c-1.2,0.7-2.2,1.5-3,2.6c-0.7,0.9-1.2,2-1.3,3.1v31.5h-8.9V80.8L54,80.8L54,80.8z"/>
		<path class="st0" d="M128.1,145.6c-0.2-0.3-0.5-0.7-0.7-1.1c-0.2-0.4-0.3-0.8-0.5-1.2c-0.2-0.5-0.2-1-0.2-1.5v-1.9
			c-0.6,1.1-1.3,2.1-2.3,2.8c-1,0.8-2.1,1.5-3.3,2c-1.3,0.5-2.6,0.9-3.9,1.2c-1.4,0.3-2.8,0.4-4.3,0.4c-2.5,0-5-0.5-7.3-1.5
			c-2.2-1-4.1-2.4-5.6-4.2c-1.6-2-2.9-4.2-3.6-6.7c-0.9-2.8-1.3-5.8-1.3-8.7v-27h9v27c-0.2,3.2,0.6,6.5,2.2,9.3
			c1.5,2.2,4,3.5,6.7,3.4c1.7,0,3.5-0.2,5.1-0.7c1.5-0.4,3-1,4.3-1.8c1.2-0.7,2.2-1.6,3-2.6c0.7-0.9,1.2-2,1.3-3.1V98.1h8.9v47.5
			L128.1,145.6L128.1,145.6z"/>
		<path class="st0" d="M146.5,145.6V80.8h9v21.5c0.9-0.9,1.8-1.7,2.9-2.3c1-0.6,2-1.1,3.1-1.5c1-0.4,2.1-0.6,3.2-0.8
			c1.1-0.2,2.1-0.2,3.2-0.2c6.3,0,12.4,2.5,16.8,7.2c2.1,2.3,3.8,4.9,4.9,7.8c2.4,6.1,2.4,12.9,0,18.9c-1.1,2.9-2.8,5.5-4.9,7.8
			c-2.1,2.2-4.6,4-7.5,5.2c-2.9,1.3-6.1,1.9-9.3,1.9c-2.2,0-4.3-0.4-6.4-1c-2.3-0.8-4.3-2.1-6-3.8v0.3c0,0.5-0.1,1-0.2,1.5
			c-0.1,0.4-0.3,0.8-0.4,1.2c-0.2,0.4-0.4,0.8-0.7,1.1L146.5,145.6z M167.8,137.5c2.1,0,4.1-0.4,6-1.3c1.8-0.8,3.4-1.9,4.7-3.4
			c1.3-1.5,2.4-3.1,3-5c1.4-3.9,1.4-8.3,0-12.2c-0.7-1.8-1.7-3.5-3-5c-1.3-1.4-2.9-2.6-4.7-3.4c-1.9-0.9-3.9-1.3-6-1.3
			c-2.3,0-4.6,0.6-6.8,1.5c-2.1,0.9-4,2.1-5.6,3.8v21.1c1.6,1.6,3.5,2.9,5.6,3.8C163.2,137.1,165.5,137.5,167.8,137.5z"/>
		<path class="st0" d="M254.4,92.8c6.7-0.1,13.2,2.5,17.9,7.2c5,4.8,7.4,11.2,7.4,19.2c0,8-2.5,14.5-7.4,19.5
			c-4.4,4.8-10.7,7.5-17.2,7.5c-6.5,0-12.4-2.9-17.6-8.6v26.8h-10.9v-71h10.9v9.1C241.8,96.1,247.4,92.8,254.4,92.8z M237.3,119.6
			c-0.2,4.5,1.4,8.9,4.5,12.2c2.8,3.1,6.8,4.8,10.9,4.7c4.2,0,8.3-1.7,11.2-4.7c3.2-3.2,5-7.6,4.8-12.2c0.1-4.6-1.5-9.1-4.7-12.4
			c-2.9-3.2-7-5-11.2-5c-4.2-0.1-8.3,1.7-11,4.9C238.8,110.6,237.1,115.1,237.3,119.6z"/>
		<path class="st0" d="M319.5,103.8c-5.4,0-9.5,1.7-12.2,5.2c-2.7,3.5-4.1,8.2-4.1,14.2v22.3h-10.9V93.6h10.9V104
			c1.7-3.2,4.2-6,7.2-8c2.8-2,6.2-3.1,9.6-3.2l0.1,11L319.5,103.8z"/>
		<path class="st0" d="M373.6,138.6c-11,10.4-28.1,10.4-39.1,0c-10.4-10.5-10.4-27.5,0-38c11-10.4,28.1-10.4,39.1,0
			C384,111.1,384,128,373.6,138.6z M342.3,131.8c6.6,6.3,17,6.3,23.5,0c3.1-3.3,4.8-7.7,4.7-12.3c0.2-4.6-1.5-9-4.7-12.3
			c-6.6-6.3-17-6.3-23.5,0c-3.1,3.3-4.8,7.7-4.6,12.3C337.4,124.1,339.1,128.5,342.3,131.8L342.3,131.8z"/>
		<path class="st0" d="M393.8,148V93.6h10.9v54.8c0,5.5-1.6,9.8-4.9,13c-3.1,3.2-7.5,4.9-11.9,4.8c-4.8,0-9.3-1.9-12.7-5.2l5.1-8.2
			c1.7,1.9,4.1,3.1,6.7,3.2c2,0.1,3.9-0.7,5.1-2.1C393.3,152.2,393.9,150.1,393.8,148z M394.3,83.2c-2.7-2.7-2.7-7.1,0-9.8
			c1.3-1.3,3-2,4.8-2c3.8,0.2,6.8,3.4,6.6,7.2c-0.2,3.6-3,6.5-6.6,6.6C397.3,85.3,395.6,84.5,394.3,83.2L394.3,83.2z"/>
		<path class="st0" d="M468.9,124.3h-40.8c0.2,3.7,2.1,7.1,5.2,9.1c3.2,2.3,7,3.5,10.9,3.5c6.5,0,11.5-2.1,14.9-6.2l6.3,6.8
			c-5.6,5.8-12.9,8.7-21.9,8.7c-6.9,0.1-13.6-2.5-18.6-7.3c-5.1-4.9-7.7-11.4-7.7-19.5s2.6-14.7,7.8-19.5c5-4.7,11.6-7.3,18.4-7.2
			c6.6-0.2,13,2.1,18,6.4c5,4.3,7.4,10.1,7.4,17.6L468.9,124.3z M428.2,115.7H458c0-4.3-1.4-7.7-4.1-10.1c-2.8-2.4-6.4-3.6-10.1-3.5
			c-3.9,0-7.7,1.3-10.8,3.7C429.8,108.1,428.1,111.8,428.2,115.7z"/>
		<path class="st0" d="M504,146.3c-7,0.1-13.7-2.5-18.7-7.4c-5.2-4.9-7.8-11.3-7.8-19.3c-0.3-7.4,2.7-14.4,8.2-19.4
			c5.4-5,12.5-7.6,19.9-7.5c7.4-0.2,14.6,2.8,19.8,8.1l-6.5,8c-4.5-3.9-9-5.9-13.6-5.9c-4.4-0.1-8.6,1.6-11.9,4.6
			c-3.3,3-5.2,7.3-5,11.7c-0.1,9.4,7.5,17.1,16.9,17.2c0.1,0,0.2,0,0.3,0c4.8,0,9.4-2.2,13.7-6.6l6.5,7
			C519.6,143.2,512.3,146.3,504,146.3z"/>
		<path class="st0" d="M550.8,102.3v26.4c-0.1,2.1,0.6,4.3,2,5.9c1.4,1.5,3.4,2.3,5.5,2.2c2.6-0.1,5.1-1.4,6.7-3.4l4.5,7.7
			c-3.4,3.3-8,5.2-12.7,5.2c-4.5,0.1-8.8-1.7-11.9-4.8c-3.3-3.2-4.9-7.6-4.9-13v-26.2h-6.5v-8.8h6.5V77.2h10.9v16.3h13.7v8.8
			L550.8,102.3L550.8,102.3z"/>
		<path class="st0" d="M615.2,130c0.2,4.6-1.8,9-5.4,11.9c-3.9,3.1-8.8,4.7-13.8,4.5c-4,0-8-0.7-11.7-2.1c-3.9-1.3-7.6-3.2-10.8-5.8
			l5.3-8.5c6.1,4.6,11.9,6.8,17.6,6.8c2.1,0.1,4.2-0.5,5.9-1.7c1.4-1,2.2-2.6,2.2-4.4c0-2.6-3.5-5-10.4-7c-0.4-0.1-0.8-0.3-1.2-0.4
			c-10.8-2.9-16.3-7.8-16.3-14.7c-0.1-4.5,1.9-8.9,5.6-11.6c3.7-2.9,8.6-4.3,14.6-4.3c6.1,0,12,1.8,17,5.2l-4.1,8.2
			c-4.1-2.8-8.9-4.2-13.8-4.2c-2.2-0.1-4.3,0.4-6.3,1.3c-1.6,0.8-2.5,2.5-2.4,4.3c0,1.6,0.9,3.1,2.4,3.7c1.6,0.7,3.2,1.3,4.9,1.7
			c2.1,0.5,4,1,5.6,1.6c1.6,0.5,3.2,1.1,4.7,1.8c1.7,0.8,3.4,1.7,4.9,2.7C613.4,121.4,615.2,125.1,615.2,130z"/>
	</g>
</g>
</svg>
