<?xml version="1.0" encoding="utf-8"?>
<!-- Generator: Adobe Illustrator 25.2.3, SVG Export Plug-In . SVG Version: 6.00 Build 0)  -->
<svg version="1.1" id="Layer_1" xmlns="http://www.w3.org/2000/svg" xmlns:xlink="http://www.w3.org/1999/xlink" x="0px" y="0px"
	 viewBox="0 0 266.9 266.9" style="enable-background:new 0 0 266.9 266.9;" xml:space="preserve">
<style type="text/css">
	.st0{fill:none;}
	.st1{fill:#FFFFFF;}
</style>
<g>
	<rect x="0" y="0" class="st0" width="266.9" height="266.9"/>
	<g>
		<path class="st1" d="M133.1,57.1c24.9,0,27.8,0.1,37.6,0.5c9.1,0.4,14,1.9,17.3,3.2c4.3,1.7,7.4,3.7,10.7,7
			c3.3,3.3,5.3,6.4,7,10.7c1.3,3.3,2.8,8.2,3.2,17.3c0.4,9.8,0.5,12.8,0.5,37.6s-0.1,27.8-0.5,37.6c-0.4,9.1-1.9,14-3.2,17.3
			c-1.7,4.3-3.7,7.4-7,10.7c-3.3,3.3-6.4,5.3-10.7,7c-3.3,1.3-8.2,2.8-17.3,3.2c-9.8,0.4-12.8,0.5-37.6,0.5
			c-24.9,0-27.8-0.1-37.6-0.5c-9.1-0.4-14-1.9-17.3-3.2c-4.3-1.7-7.4-3.7-10.7-7c-3.3-3.3-5.3-6.4-7-10.7c-1.3-3.3-2.8-8.2-3.2-17.3
			c-0.4-9.8-0.5-12.8-0.5-37.6s0.1-27.8,0.5-37.6c0.4-9.1,1.9-14,3.2-17.3c1.7-4.3,3.7-7.4,7-10.7c3.3-3.3,6.4-5.3,10.7-7
			c3.3-1.3,8.2-2.8,17.3-3.2C105.3,57.2,108.2,57.1,133.1,57.1 M133.1,40.3c-25.3,0-28.5,0.1-38.4,0.6c-9.9,0.5-16.7,2-22.6,4.3
			C66,47.6,60.8,50.8,55.6,56c-5.2,5.2-8.4,10.4-10.7,16.5C42.6,78.4,41,85.1,40.6,95c-0.5,9.9-0.6,13.1-0.6,38.4
			c0,25.3,0.1,28.5,0.6,38.4c0.5,9.9,2,16.7,4.3,22.6c2.4,6.1,5.6,11.3,10.7,16.5c5.2,5.2,10.4,8.4,16.5,10.7
			c5.9,2.3,12.7,3.9,22.6,4.3c9.9,0.5,13.1,0.6,38.4,0.6c25.3,0,28.5-0.1,38.4-0.6c9.9-0.5,16.7-2,22.6-4.3
			c6.1-2.4,11.3-5.6,16.5-10.7c5.2-5.2,8.4-10.4,10.7-16.5c2.3-5.9,3.9-12.7,4.3-22.6c0.5-9.9,0.6-13.1,0.6-38.4
			c0-25.3-0.1-28.5-0.6-38.4c-0.5-9.9-2-16.7-4.3-22.6c-2.4-6.1-5.6-11.3-10.7-16.5c-5.2-5.2-10.4-8.4-16.5-10.7
			c-5.9-2.3-12.7-3.9-22.6-4.3C161.5,40.4,158.4,40.3,133.1,40.3L133.1,40.3z"/>
		<path class="st1" d="M133.1,85.6c-26.4,0-47.8,21.4-47.8,47.8c0,26.4,21.4,47.8,47.8,47.8c26.4,0,47.8-21.4,47.8-47.8
			C180.9,107,159.5,85.6,133.1,85.6z M133.1,164.5c-17.1,0-31-13.9-31-31c0-17.1,13.9-31,31-31c17.1,0,31,13.9,31,31
			C164.1,150.6,150.2,164.5,133.1,164.5z"/>
		
			<ellipse transform="matrix(0.9247 -0.3807 0.3807 0.9247 -18.1147 75.882)" class="st1" cx="182.8" cy="83.7" rx="11.2" ry="11.2"/>
	</g>
</g>
</svg>
