<svg xmlns="http://www.w3.org/2000/svg" viewBox="0 0 75.3 26.37"><defs><style>.cls-1{fill:#fff;}</style></defs><g id="Layer_2" data-name="Layer 2"><g id="Layer_3" data-name="Layer 3"><path class="cls-1" d="M17.71,11.92a7,7,0,0,0,6.05,4,10.25,10.25,0,0,0,6.45-2.82v2.38a9.78,9.78,0,0,1-6.32,2.41c-5.26,0-8.83-4-8.83-9.13A8.51,8.51,0,0,1,24,0a7.85,7.85,0,0,1,6.72,4Zm9.88-8.46A5,5,0,0,0,24,2,6.7,6.7,0,0,0,17,8.76a6.56,6.56,0,0,0,.14,1.39Z"/><path class="cls-1" d="M65.39,14a5.65,5.65,0,0,0,4.28,1.87c2,0,3.66-1.05,3.66-3.16,0-4.27-9-1.79-9-7.77,0-3.13,2.72-5,5.64-5a8.28,8.28,0,0,1,5.09,2L73.94,3.57A6.8,6.8,0,0,0,69.87,2c-1.94,0-3.57,1-3.57,2.89,0,4.27,9,1.46,9,7.77,0,3.57-2.75,5.23-6.08,5.23a7,7,0,0,1-5.33-2.58Z"/><polygon class="cls-1" points="33.25 17.11 34.54 17.11 38.96 11.14 38.3 10.29 33.25 17.11"/><polygon class="cls-1" points="38.94 6.33 34.75 1.01 33.45 1.01 38.3 7.17 38.94 6.33"/><polygon class="cls-1" points="40.85 8.63 46.68 1.01 45.39 1.01 39.56 8.63 46.04 17.11 47.33 17.11 40.85 8.63"/><polygon class="cls-1" points="44.29 1.01 43 1.01 38.94 6.33 39.59 7.17 44.29 1.01"/><polygon class="cls-1" points="32.34 1.01 31.05 1.01 36.98 8.63 30.79 17.11 32.09 17.11 38.27 8.63 32.34 1.01"/><polygon class="cls-1" points="38.96 11.14 43.63 17.11 44.92 17.11 39.59 10.29 38.96 11.14"/><path class="cls-1" d="M7,0A6,6,0,0,0,2,2.82H2V1H0V17.12H2V6.42C2,3.12,5.16,1.77,7,1.77c2.72,0,4.31,1.32,4.31,3.8V17.12h2V6C13.31,1.29,10.25,0,7,0Z"/><path class="cls-1" d="M55,18.12a6,6,0,0,0,4.92-2.82h.07v1.82h2V1h-2V11.7c0,3.3-3.19,4.65-5.06,4.65-2.71,0-4.31-1.32-4.31-3.8V1h-2v11.1C48.6,16.83,51.66,18.12,55,18.12Z"/><path class="cls-1" d="M30,26.29l-.36.08v-4.2l.36-.08v.71h0a1.39,1.39,0,0,1,1.2-.71,1.63,1.63,0,0,1,1.61,1.63,1.58,1.58,0,0,1-1.6,1.59A1.51,1.51,0,0,1,30,24.74h0ZM31.23,25a1.24,1.24,0,0,0,1.22-1.24,1.2,1.2,0,0,0-1.23-1.27A1.25,1.25,0,0,0,30,23.7,1.2,1.2,0,0,0,31.23,25Z"/><path class="cls-1" d="M33.69,22.78h0a1.05,1.05,0,0,1,1.14-.69l-.16.36h-.14c-.38,0-.85.48-.85,1.25v1.54l-.36.07V22.17l.36-.08Z"/><path class="cls-1" d="M38,23.7a1.57,1.57,0,1,1-1.57-1.61A1.6,1.6,0,0,1,38,23.7Zm-2.79,0a1.22,1.22,0,1,0,1.22-1.25A1.25,1.25,0,0,0,35.19,23.7Z"/><path class="cls-1" d="M38.83,26.29l-.36.08v-4.2l.36-.08v.71h0a1.4,1.4,0,0,1,1.21-.71,1.63,1.63,0,0,1,1.6,1.63,1.57,1.57,0,0,1-1.59,1.59,1.53,1.53,0,0,1-1.22-.57h0ZM40.08,25a1.23,1.23,0,0,0,1.21-1.24,1.19,1.19,0,0,0-1.22-1.27,1.25,1.25,0,0,0-1.24,1.25A1.2,1.2,0,0,0,40.08,25Z"/><path class="cls-1" d="M42.47,24.24a1.26,1.26,0,0,0,1.09.72,1.81,1.81,0,0,0,1.16-.51v.43a1.75,1.75,0,0,1-1.14.43A1.56,1.56,0,0,1,42,23.67a1.54,1.54,0,0,1,1.61-1.58,1.41,1.41,0,0,1,1.21.72Zm1.78-1.52a.85.85,0,0,0-.65-.27,1.2,1.2,0,0,0-1.25,1.22,1.06,1.06,0,0,0,0,.25Z"/><path class="cls-1" d="M45.59,22.78h0a1.05,1.05,0,0,1,1.14-.69l-.15.36h-.14c-.39,0-.86.48-.86,1.25v1.54l-.35.07V22.17l.35-.08Z"/><path class="cls-1" d="M47.4,21.41l.35-.19v1h.83v.35h-.83v1.9c0,.37.16.51.55.51h.29v.33a1.65,1.65,0,0,1-.32,0,.8.8,0,0,1-.87-.88V22.52H47l.08-.35h.33Z"/><path class="cls-1" d="M48.82,22.17l.35-.08,1.23,2.24,1.07-2.24.36.08-2,4.2-.35-.08.76-1.58Z"/><path class="cls-1" d="M53.71,24.62a1.06,1.06,0,0,0,.78.34.58.58,0,0,0,.66-.57c0-.77-1.62-.33-1.62-1.4a.93.93,0,0,1,1-.9,1.55,1.55,0,0,1,.92.36l-.2.29a1.26,1.26,0,0,0-.74-.29c-.35,0-.64.17-.64.52,0,.77,1.62.26,1.62,1.4,0,.64-.49.94-1.09.94a1.25,1.25,0,0,1-1-.46Z"/><path class="cls-1" d="M59,23.7a1.58,1.58,0,1,1-1.58-1.61A1.61,1.61,0,0,1,59,23.7Zm-2.79,0a1.22,1.22,0,1,0,1.21-1.25A1.24,1.24,0,0,0,56.21,23.7Z"/><path class="cls-1" d="M60,25.24l-.35.07V20.88l.35-.07Z"/><path class="cls-1" d="M61.17,22.09v2c0,.55.22.86.75.86s.94-.2.94-1.44V22.17l.35-.08v3.15l-.35.05v-.51h0a1.05,1.05,0,0,1-1,.53c-.77,0-1.07-.44-1.07-1.14v-2Z"/><path class="cls-1" d="M72.24,25.17v-2c0-.55-.22-.87-.74-.87s-.94.21-.94,1.45V25.1l-.36.07V22l.36-.05v.51h0a1,1,0,0,1,1-.53c.78,0,1.07.44,1.07,1.13v2Z"/><path class="cls-1" d="M64,21.41l.35-.19v1h.83v.35h-.83v1.9c0,.37.16.51.55.51h.29v.33a1.65,1.65,0,0,1-.32,0,.8.8,0,0,1-.87-.88V22.52h-.42l.09-.35H64Z"/><path class="cls-1" d="M66.18,21.13l-.29.31-.28-.31.28-.32Zm-.43,4.18V22.17l.35-.08v3.15Z"/><path class="cls-1" d="M69.88,23.7a1.58,1.58,0,1,1-1.58-1.61A1.61,1.61,0,0,1,69.88,23.7Zm-2.79,0a1.22,1.22,0,1,0,1.21-1.25A1.24,1.24,0,0,0,67.09,23.7Z"/><path class="cls-1" d="M73.29,24.62a1,1,0,0,0,.77.34.58.58,0,0,0,.66-.57c0-.77-1.63-.33-1.63-1.4a.94.94,0,0,1,1-.9,1.53,1.53,0,0,1,.92.36l-.2.29a1.24,1.24,0,0,0-.74-.29c-.35,0-.64.17-.64.52,0,.77,1.62.26,1.62,1.4,0,.64-.49.94-1.09.94a1.25,1.25,0,0,1-1-.46Z"/></g></g></svg>