<svg xmlns="http://www.w3.org/2000/svg" viewBox="0 0 63.58 63.58"><defs><style>.cls-1{fill:none;}.cls-2{fill:#d16c0c;}</style></defs><g id="Layer_2" data-name="Layer 2"><g id="Layer_1-2" data-name="Layer 1"><rect class="cls-1" width="63.58" height="63.58"/><path class="cls-2" d="M22.83,38.72l0,.05c.08.18.17.35.26.52l.07.08c-.11-.18-.2-.38-.3-.57A15.21,15.21,0,0,0,24.8,41a15.49,15.49,0,0,0,2.73,2,10.06,10.06,0,0,0,1.46.61,14.36,14.36,0,0,1-6.1-4.84l-.06-.1a.2.2,0,0,1,0,.08Z"/><path class="cls-2" d="M42.25,49.2l-.07-.12c.71-.36.18-.45.17-.66a19.77,19.77,0,0,0-1.81,1,54.92,54.92,0,0,0,.16-8c4.36-.92,3.09-19.71,2.16-10.47h-.14c.07-3.27-.29-1.63-.47-2C44.06,38.43,36.33,46,29,43.63a8.12,8.12,0,0,0,7.73-.74s-.1.14.07,0c-3,2.15-6.38,1.71-9.26.09a11.43,11.43,0,0,1-2.73-2,16.67,16.67,0,0,1-1.6-1.66A10,10,0,0,0,31,44.42a9.19,9.19,0,0,1-7.89-5.13c-.26-.31-.51-.62-.74-.94l.13-.07A6.45,6.45,0,0,1,22.1,37a13.32,13.32,0,0,0,.73,1.74,15.84,15.84,0,0,1-.9-2.7c-.25-2,0-4.29-.28-6.1a13.42,13.42,0,0,0-.26,2.36c-.24-3.56.3-5.63-.78-2.07,0,3.8-.67,8.32,2.78,10.9h0c-3.44-2.61-2.79-7.18-2.83-11C19.83,33.3,20,39,23.23,41.36c-.3,2.37,0,4.75-.12,7.1.07-1.29.1-2.5.07-3.79,0,0,.05,0,.07,0,.18,1.32-.11,2.54,0,3.86H23.1c0,.23,0,.46,0,.7-.65-.58-2.83-1.54-1.55.08l-.08.12c-.63-.48-.49,0-.67.13,2.22,1.74,4.75,3,7,4.56-1.2-.83-2.34-1.59-3.61-2.33,0,0,.07,0,0-.07,1.36.64,2.39,1.62,3.71,2.32l-.08.12c.43.19,0,.87.33,1.21.64-1.76-1.46-2.07-2.5-3,1.16.85,3.23,1.4,2.59,3.16.22.53.84.37.73-.22a.28.28,0,0,1,.22,0,1.83,1.83,0,0,0-.08-1.4,2,2,0,0,1,.15,1.42c1.33-2.39-3.19-3.93-4.75-5.19.08-2.42.34-4.87.21-7.31,3.57,3.95,10.76,4.08,14.36.12,0,1.88.06,3.68,0,5.53.07-1.29.1-2.5.07-3.79,0,0,0,0,.07,0,.18,1.32-.11,2.54,0,3.86H39.1a6.55,6.55,0,0,0,0,1.77c-1.31.84-2.6,1.66-3.95,2.45,1.28-.71,2.46-1.41,3.68-2.22,0,0,0,.07,0,.06-1.17.94-2.5,1.43-3.7,2.31l-.08-.12a2,2,0,0,0-.94,2.59c-.2-2.24,2-2.77,3.51-3.76-1.58,1.07-3.74,1.57-3.42,3.91.22.53.84.37.73-.22a.28.28,0,0,1,.22,0c-.28-1.58,1.42-1.9,2.5-2.52-1.09.66-2.79.94-2.43,2.54.46.12.15-1.11.3-1.09C37,53.24,44.88,49.71,42.25,49.2Zm-18.88.21-.05,0c.11-1.09.1-2.23.16-3.33C23.52,47.14,23.4,48.33,23.37,49.41Zm.43-7.9a.6.6,0,0,1-.08-.08v0l.1.1Zm5,11.94a2.78,2.78,0,0,1,.26.34A2.78,2.78,0,0,0,28.83,53.45Zm-.06-.07c-.55-.59-1.42-1-2.05-1.57A19.42,19.42,0,0,1,28.77,53.38ZM24.3,50l-.05,0c.09-1.12.07-2.28.23-3.38C24.37,47.71,24.31,48.84,24.3,50Zm.45-7.53v0a12.65,12.65,0,0,0,2.6,2.11,7.87,7.87,0,0,1-1.19-.78C25.64,43.31,25.2,42.88,24.75,42.45Zm14.56,7.71-.1.07a38.44,38.44,0,0,0,.27-4.18C39.51,47.39,39.39,48.86,39.31,50.16Zm1-.63,0,0c.07-1,.07-2,.21-3C40.39,47.56,40.31,48.54,40.31,49.53Z"/><path class="cls-2" d="M44.28,45.08c1.07,1.28,2.34,2,2.38,3.74,0,0-.06,0-.08,0-.12-1.58-1.38-2.69-2.44-3.7l.11-.1c-.49-.43-.84-1.17-1.49-1.37.89,1.28,2.07,2.29,3.05,3.54-1.07-1.23-2.24-2.35-3.21-3.58-.49-.19-.84.33-.37.66a.31.31,0,0,1-.16.16c.89,1,1.83,1.93,2.61,3a35.66,35.66,0,0,0-2.67-3c.13,1.07,2.15,2.32,2.73,3.45.83.8-.33,6.6,1.23,4.23h.15c-.08.74.28.37.46.47a25.39,25.39,0,0,0,.13-3.9C46.66,47.09,45.3,46.23,44.28,45.08Z"/><path class="cls-2" d="M19.51,47.29c.4-.37.86-.72,1.2-1.08a4.19,4.19,0,0,0-.61.45l-.21.19A3.07,3.07,0,0,0,19.51,47.29Z"/><path class="cls-2" d="M21.06,43.88C15.92,46.23,16.52,55,18,52.16h.15c-.08.74.28.37.46.47.2-2-.16-3.85.93-5.34a2.11,2.11,0,0,0-.85,1.55s-.05,0-.08,0c-.11-.85.63-1.41,1.31-2a1.9,1.9,0,0,1,.21-.19,3.35,3.35,0,0,0,.55-.59l.1.1c.43-.49,1.16-.83,1.36-1.47a26.62,26.62,0,0,0-3.39,3,28.86,28.86,0,0,1,3.43-3.21c.18-.5-.34-.84-.67-.37a.24.24,0,0,1-.15-.16c-1.06.92-2,1.81-3,2.67,1.25-1.09,1.94-1.71,3-2.73A.15.15,0,0,0,21.06,43.88Z"/><path class="cls-2" d="M34.11,12.31a4.32,4.32,0,0,0,.07-1.72A11.05,11.05,0,0,0,34.11,12.31Z"/><path class="cls-2" d="M35.29,16.75c.4-2.48.89-5.44,0-7.27C36.06,11.35,34.82,14.9,35.29,16.75Z"/><path class="cls-2" d="M32.23,9.58h0Z"/><path class="cls-2" d="M28.14,16.94c.15,1.63.65,1,.83-.61h.15c-.08,1.63.28.82.46,1,.27-2.51-.07-5.33.27-7.7.86,0,1.68-.05,2.38-.07a17.28,17.28,0,0,0-2.5.07s0-.06-.06-.05c1.92,0,3.33-.49,4.07,0h-.9c.69.06,1.18.3,1.34,1a3,3,0,0,0,0-.42,5.32,5.32,0,0,1,.08,2.26H34.1a24.34,24.34,0,0,0,.08,4.42,10.55,10.55,0,0,1,.16-2.75c-.05,2.39,0,4.53.66,2.59.07-.08.15,0,.22,0-.55-2.5,1.89-7.95-1.64-8.41A2,2,0,0,1,35,9c-.79-1.06-2.24-1.55-4.8-1C26.33,8.21,28.64,14.68,28.14,16.94Zm6.34-6.86c0,.11,0,.26,0,.44A1.76,1.76,0,0,0,34,9.65s0,0,0-.05h0a1.36,1.36,0,0,0-.75-.32C33.9,9.24,34.6,9.25,34.48,10.08Z"/><path class="cls-2" d="M35,9a2.76,2.76,0,0,1,.3.5A1.9,1.9,0,0,0,35,9Z"/><path class="cls-2" d="M47.22,26.19c-7.95-.3-15.82,0-23.64-.14,4.12.07,8,.1,12.12.07,0,0-.12.05,0,.07-4.2.18-8.12-.11-12.32,0v-.14a44.3,44.3,0,0,0-6.1.07c1.18.07,2.4.12,3.63.15-3.28,0-5.53.09-3.41.67.11.08,0,.15,0,.23,4,.1,8.16.08,12.11.25-4.06-.13-8.09-.17-12.17-.19,3.28.49,34.81,1.22,28.36-.43v-.14C48.06,26.73,46.94,26.37,47.22,26.19ZM25,26.35l6.3.07C30.45,26.49,27.81,26.42,25,26.35Z"/><path class="cls-2" d="M46.08,23.43a3.88,3.88,0,0,1-.46-.22c.16.21.35.43.56.67C46.14,23.75,46.11,23.48,46.08,23.43Z"/><path class="cls-2" d="M43.88,17.48a8.53,8.53,0,0,1,.23,2.09A4.3,4.3,0,0,0,43.88,17.48Z"/><polygon class="cls-2" points="41.41 13.26 41.41 13.26 41.41 13.26 41.41 13.26"/><path class="cls-2" d="M41.41,13.26a12.89,12.89,0,0,1,2.47,4.22A8.38,8.38,0,0,0,41.41,13.26Z"/><path class="cls-2" d="M45.62,20.29C47.45,15.11,36.44,4,37.14,14c.15,1.58.65,1,.83-.59h.15c-.08,1.57.28.79.46,1-.31-3.34,1.27-2.84,2.83-1.1,0,0,.09,0,0-.06,2.23,1.85,2.83,4.59,2.8,7.37H44.1a2.38,2.38,0,0,0,1.52,2.64,6.57,6.57,0,0,1-.56-.8,1.74,1.74,0,0,0,.32.28c.55.38,1.09.22.91,1.19-.07,1.32.93,1.05.71-.16.07-.08.15,0,.22,0,.2-.72-.48-1.5-1.18-1.73a1.49,1.49,0,0,1-.14-.12c.78.36,1.59.92,1.39,1.89C48.57,22.26,44.82,22,45.62,20.29ZM43.41,15.4a4.3,4.3,0,0,1,.87,2.91A7.71,7.71,0,0,0,43.41,15.4Zm1.83,2.43a19.45,19.45,0,0,0,.21,3.42C45.06,20.33,45.29,19,45.24,17.83Z"/><path class="cls-2" d="M16.86,22.26c-1.08,1.25-.14,4,.14,1.46.07-.08.15,0,.22,0,2.26-2,2.11-2.86,2.19-4.31-.06,1.43.23,2-2.12,4.35,4.07-2.84,1.51-10.13,7.77-12.32-.08.77.19,5.88.91,1.92h.15c-.08,1.59.28.79.46,1,.64-6-2.74-4.95-5.46-1.92l.26-.27s0,.1.06,0a10.83,10.83,0,0,0-3.19,8.35H18.1c.21,1.43-2.8,1.39-1.92,3.31A1.8,1.8,0,0,1,16.86,22.26Zm2.65-3.87a9.9,9.9,0,0,1,.55-1.95A12.06,12.06,0,0,0,19.51,18.39Zm-.09.87v0Zm0-.44,0-.18ZM19.63,15c-1.42,1.84-.67,5-1.6,6.64C18.92,19.76,18.14,16.87,19.63,15ZM18,21.65s0,.05,0,.07a1.81,1.81,0,0,0-.35.07C17.75,21.74,17.87,21.69,18,21.65Z"/><path class="cls-2" d="M21.12,12.44a10.3,10.3,0,0,0-1.53,2A15,15,0,0,1,21.12,12.44Z"/><path class="cls-2" d="M18.11,20.44a11.51,11.51,0,0,1,1.48-6C18.34,16.47,17.58,18.75,18.11,20.44Z"/></g></g></svg>