<svg xmlns="http://www.w3.org/2000/svg" viewBox="0 0 63.58 63.58"><defs><style>.cls-1{fill:none;}.cls-2{fill:#d16c0c;}</style></defs><g id="Layer_2" data-name="Layer 2"><g id="Layer_1-2" data-name="Layer 1"><rect class="cls-1" width="63.58" height="63.58"/><path class="cls-2" d="M52.87,45.76h0Z"/><path class="cls-2" d="M53.17,45.65l-.1,0Z"/><path class="cls-2" d="M55,45.05c-3.68-5.89-9.14.74-5.71-6.06a6.1,6.1,0,0,0,4.53-3l.18-.22a1.81,1.81,0,0,1-.18.21c1-1.82.54-3.7-3.16-3.15-2.1.81-5.37,3.67-5.6,1.77a6.67,6.67,0,0,0-.11-1.9,6.57,6.57,0,0,1,.36,1.6c.46-3.26-.94-4.75-2.79-5.56a5.65,5.65,0,0,0-.51-.34,4.44,4.44,0,0,0-3.81-.78c-1.49-.34-2.53-.78-2.33-1.95a13.25,13.25,0,0,1,1.87-3.06,11.36,11.36,0,0,0-1.61,2.25,4.06,4.06,0,0,0-.26.79,2.78,2.78,0,0,1,.26-.79c.64-1.48,1.94-2.41,2.8-3.7a7.15,7.15,0,0,0-1.22,1.12c1.06-1.5,1.74-2.64-.74-.52,1.42-4.32-3.1,8.58-6,5.53-4.85-2.16-7.66,8.78-8.75,2.84-.56-4.3-1.06-8.77-1.35-13,2.24,23.46.61,2.25-.61-9.06a25.71,25.71,0,0,0-2.62,12.06c-1.86-4.1-6-8.22-9-11.54a79.9,79.9,0,0,1,6,11.27,34.33,34.33,0,0,0-2.11-4.7C15.11,19.28,16,24.18,17,29a25.08,25.08,0,0,1-1.28,6,11.41,11.41,0,0,0-2.28,7l.18-.56a6.67,6.67,0,0,0,2.63,6c.09,5.71-8.62,3.4-3.1,8.11,10.13-.86,23-4.8,29.52-8.26,2.73-.15,7.61,1,10.44-.36a3.24,3.24,0,0,0,.63-.16l-.48.08A3.37,3.37,0,0,0,55,45.05ZM19.53,14.81c.62,5.08.63,10.11,1.65,15.15,0,1.12-.46,0-1.7-5.5a17.6,17.6,0,0,1-.29-3.55,24.68,24.68,0,0,1,.25-5.58c.12,1.22.25,2.45.38,3.68A37.2,37.2,0,0,1,19.53,14.81ZM18.39,30.65c-.22-1.65-.54-3.29-.9-4.92,1.23,4.44,1.34,4.79-.76-4C18.78,24.42,20.17,35.5,18.39,30.65Zm-2.71,14c-.14-.4-.31-.82-.51-1.27-.88-3.29,1-7.32,3.49-9.78,1.18.45,2.61-.54,3.58-.49,7.49,4,6.83,8.91,2.38,12.22-1.26.66-2.51,1.34-3.73,2-.61.25-1.25.48-1.92.68-.37-.18-1.26-.45-.77-.59a6.57,6.57,0,0,1-1.05-.69A2.35,2.35,0,0,0,18,47,6.24,6.24,0,0,1,15.68,44.61ZM39.4,47.76c.37-1,1.67-2.59.62-2.61C38.09,49.9,16.45,55.44,13.44,53.9a9,9,0,0,0,2-.16c-1.61,0-1.28-.83.21-2.09.75-.41,1.52-.87,2.31-1.36,2.41-1.3,5.09-2.67,6.47-3.57-1.13.49-2.15,1-3.09,1.4L23.15,47c4.6-2.37,9.94-4.52,13.24-4.78a8.55,8.55,0,0,1,3.85,1.64c.58-1.08-2.29-2.31-2-2.57-13.66,1-4.19.34-.57-.44-11.76,2.34-6.78-3.36-12.25-7.89.45-3.71,4-4.64,7.06-3.79a3.64,3.64,0,0,0,1.23.44,8.28,8.28,0,0,1,.89.46,14.26,14.26,0,0,1,1.48-.59l1.36-.3c1.92-.07,3.72,0,5,.89,0,0,0,0,0,0s0,0,0,0c1.06.79,1.72,2.23,1.68,4.8a8.63,8.63,0,0,0-.54-3.56c.62,1.55,1.05,3.48.23,4.9a14.13,14.13,0,0,0-3.15,2.28c-1.31,1.8-2,3.4-1,2-.54,1.19-.21,1.72.56.81,0,.37,3.43-3.71,4.69-4.45-2.45,2.84.79-.63,2.15-.37-.25.34.15.28.16.45,1.83-3,9.17-3.45,3.58.05l.18-.09a22.48,22.48,0,0,1-3.09,1.25,11,11,0,0,0,1.11-.23c-1.19.43-1.89.73-.84.95a1.77,1.77,0,0,1-.8,1.21c1.51-.29-3.77.86.32.2-1.79.55-2.66.92-4.15,1.48h.12c-2.13.62-3.69,1.6-1.64.8-.75.33-1.39.69-1.5,1.26C41.49,44,40.44,46.83,39.4,47.76Zm8.81-1.95c-.05.51,0,0-.54.19-.14.43-.8,0-1.19-.17,2.7,1.42-2.64-1.25.69.63-.77-.26-2.29-1.48-1.66.06-.37-.55-1.52-.35-2.5-.74,2,1.27-3.69-2.12.19.42-2.2-.91-3-2.77-.28-3.11-4.12,1.43,2.56-.35,4.09-.19-3,.67.88,0,1.68.75-.31,1.05,3.68-.19,4.58,1.2l0,.07a1.25,1.25,0,0,1,.12.31.43.43,0,0,1-.26.42.47.47,0,0,0,.29-.38c.28,1.38-4,.08-5-.19a9.71,9.71,0,0,0,1,.44C48.26,45.2,47.54,45,48.21,45.81Z"/><path class="cls-2" d="M51,45.71a5.37,5.37,0,0,0,1.87,0A7.61,7.61,0,0,1,51,45.71Z"/><path class="cls-2" d="M53.07,45.69l-.2.07Z"/><path class="cls-2" d="M40.14,39a3,3,0,0,0-.79,1.35C39.61,39.93,39.85,39.42,40.14,39Z"/><path class="cls-2" d="M40.14,39q.22-.26.48-.51l.23-.3A2.56,2.56,0,0,0,40.14,39Z"/><path class="cls-2" d="M47.28,40l-.8.15A1.66,1.66,0,0,0,47.28,40Z"/><path class="cls-2" d="M43.45,41.69a8.27,8.27,0,0,0-2,.72C42.25,42.14,42.89,41.9,43.45,41.69Z"/><path class="cls-2" d="M43,45.78l-.72-.44A2.19,2.19,0,0,0,43,45.78Z"/><path class="cls-2" d="M19.32,53c-1.68.39-2.95.64-3.93.79a17.72,17.72,0,0,0,4-.73C19.08,53,19.26,53,19.32,53Z"/><path class="cls-2" d="M19.85,19.28c.15,1.47.3,3,.46,4.48C20.2,22.21,20,20.73,19.85,19.28Z"/><path class="cls-2" d="M14.6,19.84c.44,1.21.85,2.44,1.21,3.7A29.55,29.55,0,0,0,14.6,19.84Z"/></g></g></svg>