<svg xmlns="http://www.w3.org/2000/svg" viewBox="0 0 63.58 63.58"><defs><style>.cls-1{fill:none;}.cls-2{fill:#d16c0c;}</style></defs><g id="Layer_2" data-name="Layer 2"><g id="Layer_1-2" data-name="Layer 1"><rect class="cls-1" width="63.58" height="63.58"/><path class="cls-2" d="M9.81,37.41c0,.63.08,1.22.12,1.76a.09.09,0,0,0,0,0c0-1.9,0-3.85,0-5.83l0,.47C9.86,35.08,9.8,36.32,9.81,37.41Z"/><path class="cls-2" d="M15.63,40.68c-1.45,0-2.9.08-4.31,0l.11,0A24.62,24.62,0,0,0,15.63,40.68Z"/><path class="cls-2" d="M24.36,42.24c.45-.18.93.43,1.19.7,2.08,2.49,6.1.88,8.93,1.3,1.88-.15,2.94-2.34,4.71-2.45a2.75,2.75,0,0,0-3.33.88l-.11-.11A3.79,3.79,0,0,1,38,41.07c.06-.1-.32-.23-.07-.32-1.44-.23-2,1.33-3.1,1.94-2.43-.47-5.75.65-7.8-.59-2.94-2.38-7.28-1.72-11.39-1.42,1,0,2,0,3,0-.06,0-.22.06,0,.08-3.7.32-5.95.33-7.29,0l-.35,0h.24A2.47,2.47,0,0,1,10.11,40a4.15,4.15,0,0,1-.17-.73v.11a.86.86,0,0,1,0-.16,12.81,12.81,0,0,1-.12-1.76q0-.63-.09-1.32c.07-.67.15-1.41.21-2.23l0-.6v.13c0-.27,0-.54,0-.83a19.24,19.24,0,0,0,0-3.93c0,.46,0,.93,0,1.39,0-.54-.07-1.1-.13-1.69H10c0-2.88.16-6.28,0-9.34a4.76,4.76,0,0,1,1.16-2.36c-.78-.63-2.38-.12-2.08,1.1-.07.19-.15.08-.22,0,0,.43,0,.86,0,1.29.07,2.27,0,4.34-.07,6.24,0,4.8-.07,9.62-.18,14.31.07-4.78.13-9.31.16-13.88C7.94,40.21,3.85,43.93,24.36,42.24ZM10.1,41h0c.17,0,.51,0,.69,0ZM9.88,39.6a5.39,5.39,0,0,1-.22-2.81C9.71,37.75,9.78,38.68,9.88,39.6Zm0-20.17c0,4.5-.36,9.4-.35,14.08C9.31,28.63,9.17,22.9,9.92,19.43Z"/><path class="cls-2" d="M8.87,19c0-.46,0-.92-.06-1.39,0,2.73,0,5.4,0,8.06,0-.14,0-.29,0-.43Q8.83,22.09,8.87,19Z"/><path class="cls-2" d="M52.45,22.06c0,.68,0,1.34,0,2,0-.44.06-.87.08-1.31,0-.23,0-.47,0-.71C52.5,22.14,52.47,22.08,52.45,22.06Z"/><path class="cls-2" d="M51.66,16.08c1,1.52,1,4,.88,6.67.1,2.57-.12,5,0,7.61h-.14a19.61,19.61,0,0,0,.08,4.11c.06-.73.1-1.49.13-2.26,0,2.16.09,3.6.69,2.12.07-.08.14,0,.22,0,.1-2.77.08-5.47.25-8.17-.13,2.73-.17,5.47-.18,8.21C54,32,55.49,10.57,51.67,15.29a5.82,5.82,0,0,1,.91.25.75.75,0,0,0-.06.13C52,15.52,51.55,15.57,51.66,16.08Zm1,13.3c0-1.46,0-2.92.07-4.35C52.83,25.62,52.75,27.45,52.68,29.38Z"/><path class="cls-2" d="M52.38,30.24c0-2.11.08-4.12.08-6.18A34,34,0,0,0,52.38,30.24Z"/><path class="cls-2" d="M48.38,16.32v-1A8.5,8.5,0,0,0,48.38,16.32Z"/><path class="cls-2" d="M48.39,13.78v0a2.15,2.15,0,0,0-.35-.56l.2,0,0,0-.23,0-.06-.05h-.06l-.16,0-1.37-.2a8.13,8.13,0,0,1,.92.24,49.33,49.33,0,0,1-6-.21l-.65,0c2.43.11,5,.44,7,.31a2.27,2.27,0,0,1,.86.63c0,.46,0,.93,0,1.39,0-.46,0-.93,0-1.37l.08.1c0-.09-.07-.16-.1-.23Z"/><path class="cls-2" d="M12.36,14.06c.09-1.12.41-2.13,1.4-2.41C12.7,11.86,12.42,12.92,12.36,14.06Z"/><path class="cls-2" d="M12.52,16c0,.19-.06.38-.08.57h.08A5.41,5.41,0,0,0,12.52,16Z"/><path class="cls-2" d="M31.14,14.9c-2.09-3.38-5.85-3.58-9.7-3.39a12.5,12.5,0,0,0-5,.23h0l-.23.09a13.19,13.19,0,0,1-1.57-.11c-2.57-.28-2.16,2.42-2.11,4.27a8.51,8.51,0,0,1,1.63-4.08c.52.06,1,.08,1.59.1-2.31,1-3.14,3.25-3.36,6.31,0,1.08,0,2.2,0,3.32l0-.72q0,.55,0,1.14c-.05,3.62-.09,7.36.12,10.7a16.55,16.55,0,0,0,.25-2.1c0,1.46,0,3-.05,4.5.65,4.12.41-3.61.84-2.92a60,60,0,0,0,.24-7.32,53.72,53.72,0,0,1,0,6.52c.58-1.31-.77-13.65.32-17.34a3.62,3.62,0,0,0-.84,2,3.11,3.11,0,0,1,1-2.44c.22-.46.53-.66.92-.49A9.88,9.88,0,0,1,18,12.7a9.88,9.88,0,0,0-2.18.38,35.69,35.69,0,0,1,4.14-.4c1,0,2.16.08,3.46.16,10.92,1.61,6.07,13.84,6.83,25.75-3-3.79-26.08-1.52-12-1.12v.14c-6-.07-3,.29-3.72.47,4.33.62,10.18-1.28,13.76,1.38a2.3,2.3,0,0,0,2.9.49c2.54,1.37,4-2.58,6.76-1.83,3.38-.23-1.92-1.16-3.37-.22l-.07-.12c1.52-.92,3.14-.1,3.13-1-3-1.09-6.29,4.83-5.62-.67.08-11.93-2.42-21.2,6.23-23.09.85,0,1.63,0,2.35,0-.77,0-1.53,0-2.26,0l.5-.09c.79,0,1.6,0,2.41.08,1.13-.06,2.11-.16,2.94-.23s1.39.11,2.15.2a15.94,15.94,0,0,0-2.13-.21c1.83-.17,3-.23,3.72.4a.66.66,0,0,1,.29.08h0l.08.07a3.85,3.85,0,0,1,.07.49v-.42a1.54,1.54,0,0,1,.2.83,1.3,1.3,0,0,1-.1-.15c0,.1.06.22.09.33a10.37,10.37,0,0,0-.06,2.33h-.14c0,4.27-.24,9.33.08,13.61A62.07,62.07,0,0,1,48.8,19c0,.83-.08,1.76-.15,2.82.07,1.8-.49,14.86.63,9.88.08-.71-.21-2.45.22-1.83,0-.58-.08-1.15-.11-1.7,0,.6.09,1.21.18,1.83-.47-18.49,6-19.09-13.48-18.35A6.12,6.12,0,0,0,31.14,14.9Zm-9.41-2.22.42,0Zm1.67-.87a11.83,11.83,0,0,1,6,1.51A54.31,54.31,0,0,0,23.4,11.81ZM31,15.09c-1.87-3.21-5.26-3.6-8.82-3.49l-.43,0c3.72-.16,7.35.06,9.31,3.43Zm.83,5.37a26.49,26.49,0,0,1,0-2.82c.06.72,0,1.36.05,2v.71C31.9,20.27,31.87,20.18,31.86,20.46Zm.08-2.57c.21-3.53,2.51-4.66,5.43-4.93l.74,0C35,13.17,32.38,14.22,31.94,17.89Zm7.72-5.13a25.07,25.07,0,0,1,4.46,0C42.93,12.68,41.46,12.7,39.66,12.76Zm9.67,13.12c0-4.91.68-8.27.59-10.49C50.28,17.89,49.38,21.5,49.33,25.88Zm-2.83-14a37.54,37.54,0,0,0-7.3,0A22.83,22.83,0,0,1,46.5,11.89Z"/><path class="cls-2" d="M12.38,16.56v.6q0-.3.06-.6Z"/><path class="cls-2" d="M12.38,18.32V17.16a29.11,29.11,0,0,0-.07,3.76C12.3,20,12.32,19.13,12.38,18.32Z"/><path class="cls-2" d="M12.38,16.12c0-.57-.05-1.33,0-2.06A17.59,17.59,0,0,0,12.38,16.12Z"/><path class="cls-2" d="M15,11.63a2.77,2.77,0,0,0-1.23,0,2.11,2.11,0,0,1,.63,0,14.82,14.82,0,0,0,2,.12h0A11.07,11.07,0,0,1,15,11.63Z"/><path class="cls-2" d="M15.21,13.13a3.47,3.47,0,0,0-.92.49,3.69,3.69,0,0,0-.19.48,3.81,3.81,0,0,1,1.71-1l-.53.07Z"/><path class="cls-2" d="M50.78,52.19a1.71,1.71,0,0,0,.56-.14A2.19,2.19,0,0,1,50.78,52.19Z"/><path class="cls-2" d="M51.65,51.89s.27-.16.31-.18l.5-.32C52.34,51.47,51.77,51.83,51.65,51.89Z"/><path class="cls-2" d="M50.44,52.2h.34A1.29,1.29,0,0,1,50.44,52.2Z"/><path class="cls-2" d="M49.48,51.9a10.85,10.85,0,0,1-1.41-2A5.81,5.81,0,0,0,49.48,51.9Z"/><path class="cls-2" d="M46.16,46.39c.66,1.11,1.24,2.36,1.91,3.51A15.44,15.44,0,0,0,46.16,46.39Z"/><path class="cls-2" d="M44.41,47A13.49,13.49,0,0,1,42,48.82,7.1,7.1,0,0,0,44.41,47Z"/><path class="cls-2" d="M46.16,46.39l-.09-.14a1.11,1.11,0,0,0-.27-.17A1.74,1.74,0,0,1,46.16,46.39Z"/><path class="cls-2" d="M51.47,43.35c.57-.21,1.58-.06,2.17-.2C52.35,43,51.71,43.05,51.47,43.35Z"/><path class="cls-2" d="M51.34,43.39l0,.11a.55.55,0,0,1,.08-.15S51.37,43.37,51.34,43.39Z"/><path class="cls-2" d="M53.24,42.1c-6.4-.61-1.11,3.7-.46,6.42-.68-2.72-6.14-7.06.57-6.48-8.15-1.55.6,5.58-1.06,7.69C47.57,54,49.42,38.22,42.08,46.9c0-5,0-9.43-.07-14.22,2.2,1,18.91,13.86,9.6,5.64l.08-.11c3.58,2.68,2,1.08,2.54,1.26-12.45-9.74-15-12.93-13.84,5.29,0-1.64.15-3.49.06-5,0,.07,0,.24.07-.06C41,44.2,38.69,53.43,45.18,46h.15c-.33.37-.63.71-.92,1,.38-.33.77-.66,1.16-1a.7.7,0,0,1,.23.08.78.78,0,0,0-.2-.11l.2-.16a4,4,0,0,1,.27.44c2,1.52,2.74,8.58,6.6,4.85l.08.12c3.56-1.77-.37-5.35-1.36-7.72-.22.64.73,1.88,1.54,3.19A13.76,13.76,0,0,1,51.32,44c-1.79-2.3,6.65.66,3.77-3.34C56,42,53.21,42.89,53.24,42.1Zm-1.06,8a1.55,1.55,0,0,0,.46-.41,1.39,1.39,0,0,1-.47.42c-4.1,3.73-4-9.77-8.45-4.44C48.21,40.33,48.08,53.85,52.18,50.13Zm.62-1.51a.09.09,0,0,1,0,.05A.09.09,0,0,0,52.8,48.62Zm-9.55-1a9.9,9.9,0,0,1,1.94-1.84C44.58,46.28,43.9,47,43.25,47.57Zm2.34-2c.43,0,.82.24,1.14,1.09A3,3,0,0,0,45.59,45.58Zm2.65,4c.89,1.53,2,2.69,3.51,2C50,52.54,49.09,51.24,48.24,49.58Zm4.68,1.23.22-.19a1.91,1.91,0,0,0,.74-1.95A1.69,1.69,0,0,1,52.92,50.81Z"/><path class="cls-2" d="M40.39,44.76c0,.21,0,.41,0,.61,0-.12,0-.24,0-.36S40.39,44.85,40.39,44.76Z"/><path class="cls-2" d="M40.38,45.37c-.19,3.44.52,4,1.65,3.45C40.65,49.29,40.38,47.6,40.38,45.37Z"/></g></g></svg>