<svg xmlns="http://www.w3.org/2000/svg" viewBox="0 0 63.58 63.58"><defs><style>.cls-1{fill:none;}.cls-2{fill:#d16c0c;}</style></defs><g id="Layer_2" data-name="Layer 2"><g id="Layer_1-2" data-name="Layer 1"><rect class="cls-1" width="63.58" height="63.58"/><path class="cls-2" d="M49.55,48.82c-.13,0-.12-.09-.11-.19-.24.19-.47.35-.7.5a7.14,7.14,0,0,0,.71-.59,6.27,6.27,0,0,1-8-1.45c-2.71,1.67-6.1,3.6-8.83.51-1.69-1.79-3.42,2.2-5.58,1.73-1.84.46-6.92-3.84-3.33,0l-.08.12c-1.28-.84-1.06-1-1.48-.57a6.53,6.53,0,0,0,9.46.09,6.79,6.79,0,0,0,9.62-.07A7,7,0,0,0,42.62,50a7.78,7.78,0,0,1-1.4-1.13,6.74,6.74,0,0,1-8.81.7s.14,0,0-.07a6.89,6.89,0,0,0,8.82-.72,6.85,6.85,0,0,0,1.91,1.38,3.26,3.26,0,0,0,.38.18l.1,0-.06.14a6.08,6.08,0,0,0,6.65-1.13,6.09,6.09,0,0,1-4.35,1.31C49.53,50.45,52.68,47.2,49.55,48.82ZM40,48.11a3.62,3.62,0,0,0-.92.7A3.12,3.12,0,0,1,40,48.11Zm1.15.43a7.68,7.68,0,0,1-4,2,7.53,7.53,0,0,0,3.73-1.85c.14-.12.22-.2.33-.28a7.81,7.81,0,0,0,.56.68C41.56,48.91,41.34,48.74,41.13,48.54Zm1.56-.23c1.47.67,3,1.81,4.71,1.43C45.48,50.25,44.06,49,42.69,48.31Z"/><path class="cls-2" d="M27.22,42.89l.2,0h-.17Z"/><path class="cls-2" d="M13.33,40.93c-.58-.44-.31,0-.6.08A6.56,6.56,0,0,0,22,40.94a6.81,6.81,0,0,0,5.26,1.93c.05,0,.1-.06-.08,0a8.74,8.74,0,0,0,4.47-2.13c2.44,2.91,6.6,2.4,9.28.46a6.75,6.75,0,0,1-9.3-.32,8.17,8.17,0,0,1-4.2,2,6.68,6.68,0,0,0,4.19-2,6.75,6.75,0,0,0,9.37.2l.06,0h0l.19-.17-.2.18a10,10,0,0,0-1.69.59c1-.6,1.83-1.16,2.4-.71l-.38,0c2.17,2.19,6.06,2.86,8.45.64a6.43,6.43,0,0,1-4.49,1c3.93.12,8-3.66,3.69-1.75a4.82,4.82,0,0,1-5.38.12A4.85,4.85,0,0,0,49,40.82c-4.67,1.81-4.6-.2-8.08-1.6-6.48,5.66-7.29-1.43-10.27.29-3,3.19-6,1.27-8.79-.44-1.59,1-3.35,2.68-5.44,2.19-2.38-.75-5.83-3.19-1.71.38l-.07.13A14.17,14.17,0,0,1,13.33,40.93Zm27.85-1.52a14.93,14.93,0,0,0,1.25.92c-.45-.29-.87-.6-1.28-.9-1.87,1.54-4.35,3-6.74,1.75C36.84,42.46,39.28,40.92,41.18,39.41ZM36,42.58a1,1,0,0,0,.25.05c-1.28.12-2.67-.27-4.3-1.86A6.6,6.6,0,0,0,36,42.58Z"/><path class="cls-2" d="M41.36,40.82l-.32.24.31-.06-.08-.07Z"/><path class="cls-2" d="M36.27,25.22a7.3,7.3,0,0,1,.91-3A4.4,4.4,0,0,0,36.27,25.22Z"/><path class="cls-2" d="M43.8,19.79c-6.87-4.93-13.51,8.4-5,11C52.47,33,44.29,15.5,46,23.05l-.14,0c-.56-1.38-.55-1.38-1-1.07,3.23,6.7-4.26,8.75-7.3,6.1a4,4,0,0,0,3,1.39s-.11,0,0,.07a4,4,0,0,1-4.09-2.92s0,0,0-.06l0-.07v0l-.06-.31c0-.09,0-.2-.08-.29A4.87,4.87,0,0,1,38,21.12l.08.11a3.76,3.76,0,0,1,2-.83,13.26,13.26,0,0,1,1.8.08,10.41,10.41,0,0,1,1.51.37,4.92,4.92,0,0,0-.45-.24c1.67.26,2.5.51.62-.59-.08-.11,0-.15.12-.19-4.46-2.57-10,2-8.51,6.85C33.69,21.74,39.32,17.25,43.8,19.79Zm-4.95.76a5.28,5.28,0,0,0-2.78,3.63A3.27,3.27,0,0,1,38.85,20.55Z"/><path class="cls-2" d="M37.49,28.12a4.89,4.89,0,0,1-1.22-2.9,4.27,4.27,0,0,0,.09,1c0,.13.06.27.1.41A3.36,3.36,0,0,0,37.49,28.12Z"/><path class="cls-2" d="M31.33,17.12a42.67,42.67,0,0,1,4.11-2c-.35.11-.68.22-1,.34-.7.33-1.41.64-2.11,1A11.35,11.35,0,0,0,31.33,17.12Z"/><path class="cls-2" d="M16,34.28l.09.11c-1.62,1.25-.6.87-.68,1.17,2.48-1.63,5.43-4.45,8.45-6.07,0,0,0,0-.07,0C27,27,30.5,27.87,33,30.73l-.1.1a13.78,13.78,0,0,1,2.54,4.4,8,8,0,0,0-.22-.91c.85,1.66,1.19,2.48,1,.55,0-.12.13-.08.22,0a11.41,11.41,0,0,0-7.59-8,11.57,11.57,0,0,1,7.67,8.07c-.18-3.88-5.24-9-9.61-8.3a3,3,0,0,0,.33-1.43h.14c0,1.49.34.72.52.89-.66-4,.7-6.95,3.41-8.9A11.26,11.26,0,0,0,28.83,19s0-.09-.07,0a10.88,10.88,0,0,1,3.57-2.48,14.12,14.12,0,0,1,2.11-1c.35-.16.71-.33,1-.51a.75.75,0,0,1,.06.13,29.45,29.45,0,0,0,3.71-1.52c-.58.15-1.17.33-1.75.53,1.76-.71,2.8-1.23,1.35-1.26-.09,0-.08-.13-.06-.21a55.94,55.94,0,0,0-7.57,3.05,65,65,0,0,1,7.58-3.13c-6.5.85-15.26,6.24-12,14-4.47,1.24-8.66,4.85-11.87,7.53C13.43,35.6,14.35,35.45,16,34.28Zm16.07-4.69A6.71,6.71,0,0,0,27.3,27.8C29.19,27.34,30.8,28.24,32.11,29.59Zm2.12-14.2a34.18,34.18,0,0,0-3.47,1.76A11.66,11.66,0,0,1,34.23,15.39Z"/><path class="cls-2" d="M31.13,29.18a6,6,0,0,0-7,.2C26.48,28.16,28.88,27.71,31.13,29.18Z"/><path class="cls-2" d="M32.25,30.1l.07.06Z"/><path class="cls-2" d="M32.32,30.16c.17.17.34.36.51.56C32.66,30.52,32.49,30.34,32.32,30.16Z"/><path class="cls-2" d="M31.29,29.29c.12.08.23.17.34.26C31.52,29.46,31.41,29.37,31.29,29.29Z"/><path class="cls-2" d="M31.63,29.55l.19.15Z"/><path class="cls-2" d="M31.82,29.7c.14.12.29.26.43.4C32.11,30,32,29.82,31.82,29.7Z"/><path class="cls-2" d="M31.13,29.18l.16.11Z"/><path class="cls-2" d="M24.11,29.38l-.21.11s0,0,0,0Z"/></g></g></svg>