<svg xmlns="http://www.w3.org/2000/svg" viewBox="0 0 63.58 63.58"><defs><style>.cls-1{fill:none;}.cls-2{fill:#d16c0c;}</style></defs><g id="Layer_2" data-name="Layer 2"><g id="Layer_1-2" data-name="Layer 1"><rect class="cls-1" width="63.58" height="63.58"/><path class="cls-2" d="M31.65,15.37c-.12.11-.28.28-.42.43Z"/><path class="cls-2" d="M31,16.05a1.9,1.9,0,0,0,.26-.25l-.4.38Z"/><path class="cls-2" d="M30.83,16.18l-.44.38C30.53,16.45,30.68,16.32,30.83,16.18Z"/><path class="cls-2" d="M28.76,17.83a24.46,24.46,0,0,1-4.89,2.36l.51-.09A19.31,19.31,0,0,0,28.76,17.83Z"/><path class="cls-2" d="M15.58,21.43c-.35,0-.69,0-1.06,0A6.23,6.23,0,0,0,15.58,21.43Z"/><path class="cls-2" d="M44.58,11.91a13.31,13.31,0,0,0-2-.11l-.65.14A15.17,15.17,0,0,1,44.58,11.91Z"/><path class="cls-2" d="M42.8,10.55l-1,.2c.73-.09,1.48-.17,2.24-.23Z"/><path class="cls-2" d="M44.87,10.47l1.22,0a14.65,14.65,0,0,0-2.74.05C43.86,10.47,44.36,10.46,44.87,10.47Z"/><path class="cls-2" d="M15.58,21.43h1A6.4,6.4,0,0,0,15.58,21.43Z"/><path class="cls-2" d="M51.41,13.28v0h0Z"/><path class="cls-2" d="M53.27,19.53c0,.18,0,.35,0,.52a13.57,13.57,0,0,0-.1-2.78l0,.9A8.79,8.79,0,0,1,53.27,19.53Z"/><path class="cls-2" d="M24.38,20.1a25.47,25.47,0,0,1-7.83,1.32c.2,0,.26.09.07.24,4.45,1.23,7.9,0,11.07-2a17.51,17.51,0,0,1-3.7,1.9c6.44-2,11.75-8.06,18-9.6a15.23,15.23,0,0,0-5.89,1.88,13.58,13.58,0,0,1,6.54-2,11.51,11.51,0,0,1,7.2.94c-.74,2,2.21,3,1.85,5.14-.31,4.37.71,9.42-.31,13.49-1.14,1.81-2.44,0-3.86-.49-.27-.26,0-1-.13-1.35-.62-2-3.5-2.39-4.38-4.17-1.39-1.42.52-4,.49-4.45-1.36.49-2.29,3-1.41,4.57l-.13.06c-1.09-1.91.39-3.45-.39-3.84-2,3.66,1.74,6.25,4.19,8.2-.49,2.21,1.82,2.84,3.36,3.63,1.39,1.11,2.86-.26,3.8-1.38.84-3.76.59-8,.4-12.1a2.17,2.17,0,0,1,0,.26c0-.07,0-.24-.06,0,0-.25,0-.49.05-.74,0-.45,0-.91-.05-1.36a9.57,9.57,0,0,0-1.66-4.34l.25.25a2.72,2.72,0,0,1-.4-.8c0,.07,0,.15-.07.23l-.15-.22c.7-1.43-.2-2.21-1.85-2.58l1.33.06c1.13.47,1,1.59.75,2.49a1.74,1.74,0,0,0-.65-2.51L49,10.65a16.42,16.42,0,0,0-2.95-.22c.28,0,.56.06.85.1-.69,0-1.38-.06-2.07-.06l-.87,0c1.2,0,2.4,0,3.58.1.43.08.86.17,1.3.29a29.31,29.31,0,0,0-9.8.71,17.13,17.13,0,0,1,2.68-.87A23.53,23.53,0,0,0,36.5,11.9,19.16,19.16,0,0,0,31,16.14l-.93.72,0,0L30,17l-1.2.87.93-.58A9.86,9.86,0,0,1,24.38,20.1Zm5.81-3.18,0,0h0Z"/><path class="cls-2" d="M17.38,21.94a11.87,11.87,0,0,0,6.61-.4A13.18,13.18,0,0,1,17.38,21.94Z"/><path class="cls-2" d="M53.17,16.48a3.55,3.55,0,0,0-.8-1.64,6.6,6.6,0,0,1,.82,2.43C53.18,17,53.17,16.74,53.17,16.48Z"/><path class="cls-2" d="M37.66,11.39a19.46,19.46,0,0,1,5.14-.84l.55-.07A20.39,20.39,0,0,0,37.66,11.39Z"/><path class="cls-2" d="M51.81,14.08c.17.25.36.5.56.76A5.13,5.13,0,0,0,51.81,14.08Z"/><path class="cls-2" d="M37.66,11.39a13.67,13.67,0,0,0-1.73.71A15.32,15.32,0,0,1,37.66,11.39Z"/><path class="cls-2" d="M23.87,20.19a57.58,57.58,0,0,1-7.76.42A14.16,14.16,0,0,0,23.87,20.19Z"/><path class="cls-2" d="M34.52,13a13.74,13.74,0,0,1,1.22-.75A6.88,6.88,0,0,0,34.52,13Z"/><path class="cls-2" d="M28.1,25.16c.13,0,.07,0,0,.06a13.5,13.5,0,0,0,3.41-2c-.41.28-.84.53-1.26.78A11.53,11.53,0,0,1,28.1,25.16Z"/><path class="cls-2" d="M36.37,18.33l.11.09a8.07,8.07,0,0,1,4-2.27,6.07,6.07,0,0,0-3.15,1.2,7,7,0,0,1,3.85-1.46c1.22-.5-.61-.69-1-.53-.11-.06-.06-.14,0-.22-3.73.36-5.6,4.07-8.36,6.11,2.77-2.09,4.66-5.77,8.4-6.18-5.55.06-8.22,8.43-14.1,9.1-1.35.6-12.29,0-6.74,1.23v.15c-1.92-.08-1,.28-1.2.46A18.18,18.18,0,0,0,30.3,24a40.77,40.77,0,0,0,4.28-3.69C35.23,19.66,35.8,19,36.37,18.33Zm.46-.62.26-.21ZM31.4,23c1.83-1.42,3.34-3.46,5.12-5C34.75,19.51,33.29,21.65,31.4,23Z"/><path class="cls-2" d="M36.38,18.53a60.82,60.82,0,0,1-4.82,4.68A20.14,20.14,0,0,0,36.38,18.53Z"/><path class="cls-2" d="M49.84,20.81c-.37-.58-1.76-3-2.2-1.29l-.11.1c-.09-.19-.27.13-.41.24a.38.38,0,0,1,.1.31,16.91,16.91,0,0,1,1.27,1.27,3.66,3.66,0,0,0-.71-.81s0,0,0-.05c.39.14.43.58.77.77l-.1.1c.15.13.17.45.44.33a2.91,2.91,0,0,0-.67-1.08,3.25,3.25,0,0,1,.76,1,.9.9,0,0,0,.53-.5l-.05-.06c0-.05.1-.1.15-.15a6,6,0,0,1-.57-.94,3.07,3.07,0,0,0,.63.89A.32.32,0,0,0,49.84,20.81Z"/><path class="cls-2" d="M31.19,27.4l-.07-.13c1.45-.74.55-.65.64-.9-5,3-11,2.08-16.58,2.17,3,.06,5.9.11,8.9.06,0,0-.08,0,0,.07-3.06.2-6-.1-9,0v-.14a24.18,24.18,0,0,0-4.49.07c.79.06,1.6.11,2.42.14-2.3,0-3.8.1-2.26.68.08.08,0,.15,0,.23,3,.1,6,.08,8.92.25-3-.13-6-.17-9-.19a95,95,0,0,0,15,.36C27.56,30.49,36,26.14,31.19,27.4ZM16.13,28.84l4.73.07C20.2,29,18.22,28.91,16.13,28.84Z"/><path class="cls-2" d="M39,40l.8.69a7.53,7.53,0,0,1-1.47-2.22s0,0,0-.13c1.45,3.65,6.48,5.48,8.75,8.74l-.14,0c.21.65.42,1.31.63,2a23.33,23.33,0,0,0-1.8,2.63L47,50.3c-1.18,1.54-2.64,4.13-.45,1.81.12,0,.15,0,.17.15,4.43-3.64,0-7.43-3.12-10,3.31,2.63,7.49,6.41,3.14,10.11,6.63-4.81-3.67-10.26-6.88-13.82,3.24-2.45.75-6.86,2.51-9.78,1.34-2-.25-1.13-1.11.29L41.16,29c.68-1.34.92-1.13.4-1.51-2.66,2.48-.52,6.1-2,8.84C38.62,37.32,37.41,38.94,39,40Zm8.42,9.81c.14-.18.27-.35.39-.52a.41.41,0,0,1,0,.11A3.19,3.19,0,0,0,47.4,49.85Zm.33-1.28c-.61-2.92-4-4.59-6-6.66C43.71,44,47.24,45.62,47.73,48.57Zm0,.25v0Z"/><path class="cls-2" d="M43.17,43.59A47,47,0,0,1,46.91,47,18.38,18.38,0,0,0,43.17,43.59Z"/><path class="cls-2" d="M43.17,43.59c-1.14-1-2.28-1.9-3.39-2.86A25.21,25.21,0,0,0,43.17,43.59Z"/><path class="cls-2" d="M22.22,39.55c-.16.66,1.59,1.75,2.27,2.63,1.84,2.89,5.83,2.18,8.75,3,2.2,2.2,9,3.11,6.1,6.84-.74,1.8,0,1.38,1.07-.27l.13.06c-.94,1.7-.18,1-.13,1.29,3.8-4.24-.73-6-4.22-8l.3.22s-.12,0,0,.08c-2.47-1.91-5.59-2.13-8.56-2.54a12.37,12.37,0,0,0,1.38.45c-.87-.13-1.72-.27-2.49-.44l-1.36-1.42a10.65,10.65,0,0,0,1.07.73,27.67,27.67,0,0,0-3.6-3.49c.22.33.44.61.67.9-1.27-1.22-2.18-1.9-1.11-.19,0,.12-.08.14-.17.15,2.4,3.08,5,4.94,8.93,5.05C27.17,44.52,24.69,42.56,22.22,39.55Z"/><path class="cls-2" d="M34.9,44.3c.4.27.84.53,1.29.79A7.2,7.2,0,0,0,34.9,44.3Z"/><path class="cls-2" d="M26.6,42.46c.11.08.18.2.3.24.33.06.67.1,1,.15l-.31-.13c.5.09,1,.16,1.53.22-.52-.07-1.05-.14-1.57-.23a10.4,10.4,0,0,1-1-.54l.19.19Z"/><path class="cls-2" d="M34.6,44.08a15.3,15.3,0,0,0-5.47-1.14A18,18,0,0,1,34.9,44.3Z"/></g></g></svg>