<svg xmlns="http://www.w3.org/2000/svg" viewBox="0 0 63.58 63.58"><defs><style>.cls-1{fill:none;}.cls-2{fill:#d16c0c;}</style></defs><g id="Layer_2" data-name="Layer 2"><g id="Layer_1-2" data-name="Layer 1"><rect class="cls-1" width="63.58" height="63.58"/><path class="cls-2" d="M14.71,13.18h0l0,.07Z"/><path class="cls-2" d="M20.71,12.94l2.62,0C22.46,12.94,21.58,12.94,20.71,12.94Z"/><path class="cls-2" d="M40.82,11.89h.45c-1.83-.15-3.73-.18-5.65-.17l.39,0C37.64,11.74,39.25,11.77,40.82,11.89Z"/><path class="cls-2" d="M44.05,11.67a16.7,16.7,0,0,1-2.78.22,31.46,31.46,0,0,1,4.2.59A1.71,1.71,0,0,0,44.05,11.67Z"/><path class="cls-2" d="M15.25,12.94a.8.8,0,0,0-.54.24c2-.17,4-.23,6-.24Z"/><path class="cls-2" d="M33.46,13,23.33,13C26.69,13,30.08,13.11,33.46,13Z"/><path class="cls-2" d="M45.1,12.46l.15,0Z"/><path class="cls-2" d="M13.94,36.18c.64.67,5.59.18,4.7-.07-.83-.44-3.36,0-4-.61.76.08,2.8.37,2.61-.36-.83-.18-2.48.48-2.8-.56.18-6.16,0-12.38.07-18.5a18.08,18.08,0,0,1,.08-2.83c-.52.71.08,2.42-.13,3.27,0,0,0-.12,0-.09.15-1.25-.79-3.5.82-3.61,9.44.18,18.9-.13,28.23.4.86.35,1.36.84,1.35,1.5.31,2.43.71-.39.52-1.57-.12-.44-.52-.71-.28-.69a34.48,34.48,0,0,0-4.28-.57c-1.4,0-3-.06-4.81-.15-4.8,0-9.74.35-14.2,0,4.49.33,9.23,0,13.81,0-9.13-.48-21.53-1.61-22.64,1.72C13.76,20.75,11.57,29.49,13.94,36.18ZM43.21,13.12c-5.47-.65-11.33-.45-17.09-.38C32.21,12.48,39.9,12,43.21,13.12Z"/><path class="cls-2" d="M36.77,34.86a3.21,3.21,0,0,1-2.62,4.06s.06-.06,0-.06a2.84,2.84,0,0,0,2.55-3.46,2,2,0,0,0-.35-1.12c-.76-1.52-2.46-2.5-4.32-1.06a2.92,2.92,0,0,1,3.53.33c-1.75-1.06-4.75-.52-3.33.48a2.06,2.06,0,0,1,1.15-.31.52.52,0,0,0-.5.43c1.5-.82,3.34,1,2.34,2.47-1.87,2.2-3.51-.36-3-2.16-.23-.19-.58.51-.92.6.32-.8.31-.64-.07-.89C29.07,37,33,40.5,35.65,38.37A3.21,3.21,0,0,0,36.77,34.86Zm-.63,2.52a4.43,4.43,0,0,0,.52-1.57A2.63,2.63,0,0,1,36.14,37.38Zm-1.9-3.52A2.18,2.18,0,0,1,35.61,35,2.7,2.7,0,0,0,34.24,33.86Z"/><path class="cls-2" d="M36.76,34.82l-.12-.31Z"/><path class="cls-2" d="M36.64,34.51a3.23,3.23,0,0,0-.22-.41A3.23,3.23,0,0,1,36.64,34.51Z"/><path class="cls-2" d="M36.77,34.86v0Z"/><path class="cls-2" d="M27,34.86v0Z"/><path class="cls-2" d="M27,34.86a3.21,3.21,0,0,1-2.62,4.06s.06-.06,0-.06a2.85,2.85,0,0,0,2.56-3.46,2.13,2.13,0,0,0-.36-1.12,2.68,2.68,0,0,0-4.32-1.06,2.93,2.93,0,0,1,3.54.33C24,32.49,21,33,22.42,34a2.06,2.06,0,0,1,1.15-.31.51.51,0,0,0-.5.43c1.49-.82,3.34,1,2.34,2.47-1.88,2.2-3.51-.36-3-2.16-.23-.19-.58.51-.92.6.32-.8.31-.64-.07-.89-2.1,2.82,1.82,6.33,4.48,4.2A3.19,3.19,0,0,0,27,34.86Zm-.63,2.52a4.43,4.43,0,0,0,.52-1.57A2.63,2.63,0,0,1,26.35,37.38Zm-1.89-3.52A2.14,2.14,0,0,1,25.82,35,2.64,2.64,0,0,0,24.46,33.86Z"/><path class="cls-2" d="M27,34.82a2.45,2.45,0,0,0-.12-.31A2.45,2.45,0,0,1,27,34.82Z"/><path class="cls-2" d="M26.85,34.51a2.32,2.32,0,0,0-.22-.41A2.32,2.32,0,0,1,26.85,34.51Z"/><path class="cls-2" d="M22.15,41.86a2.88,2.88,0,0,0-.4-1A5.34,5.34,0,0,1,22.15,41.86Z"/><path class="cls-2" d="M21,45.05l-.3.15a3.56,3.56,0,0,1-1.23.41c.09,0,0,0,0,.07A3,3,0,0,0,21,45.05Z"/><path class="cls-2" d="M22,42.16A2,2,0,0,0,21.65,41c-.76-1.53-2.46-2.5-4.32-1.06a2.92,2.92,0,0,1,3.53.33c-1.75-1.06-4.75-.52-3.33.48a2,2,0,0,1,1.15-.32.52.52,0,0,0-.5.44,1.78,1.78,0,0,1,2.34,2.47c-4.3,3.43-2.1-4.31-3.83-1.53-.28-.19.31-.81.07-.78-.07-.07-.24,0-.27-.15-2.11,3.91,1.81,5.32,4.19,4.28A2.82,2.82,0,0,0,22,42.16Zm-.53,2A4.56,4.56,0,0,0,22,42.57,2.63,2.63,0,0,1,21.47,44.14Zm-1.9-3.52a2.17,2.17,0,0,1,1.37,1.11A2.74,2.74,0,0,0,19.57,40.62Z"/><path class="cls-2" d="M22.15,41.86A3.27,3.27,0,0,1,21,45.05,2.54,2.54,0,0,0,22.15,41.86Z"/><path class="cls-2" d="M27.91,45.62a3.21,3.21,0,0,0,3.62-4.76,3.2,3.2,0,0,1-2.28,4.82s.07-.06,0-.07a2.84,2.84,0,0,0,2.55-3.46A2.12,2.12,0,0,0,31.42,41,2.67,2.67,0,0,0,27.11,40a2.92,2.92,0,0,1,3.53.33c-1.75-1.06-4.75-.52-3.33.48a2,2,0,0,1,1.15-.32.52.52,0,0,0-.5.44c1.5-.82,3.34,1,2.34,2.47-1.88,2.19-3.51-.36-3-2.17-.23-.18-.58.52-.92.61.32-.8.31-.64-.07-.9A3.07,3.07,0,0,0,27.91,45.62Zm3.34-1.48a4.51,4.51,0,0,0,.51-1.57A2.55,2.55,0,0,1,31.25,44.14Zm-1.9-3.52a2.13,2.13,0,0,1,1.36,1.11A2.67,2.67,0,0,0,29.35,40.62Z"/><path class="cls-2" d="M16.64,47.53a5.18,5.18,0,0,0-1.62.39A8.34,8.34,0,0,1,16.64,47.53Z"/><path class="cls-2" d="M30.59,47.56h.13v0Z"/><path class="cls-2" d="M44,50.31c-.3-3.22-4-3.22-7-2.81a30.38,30.38,0,0,0,3.44,0s-.06.05,0,.06c-1.44.18-3-.09-4.42,0l-.86.15a3.43,3.43,0,0,0-1.2.51,21.28,21.28,0,0,0-3.33-.74s0,0,0,0c-2.19.27-4.7-.52-6.48.7a21,21,0,0,0-3.33-.74s0,0,0,0c-1.19,0-2.61-.08-3.89,0a2.77,2.77,0,0,0-.3,0c-2,.25-3.64,1.12-3.18,3.94a3.63,3.63,0,0,1,1.74-3.39c-2.05,1.38-2,4.67-1,3.78a12.38,12.38,0,0,1,.5-1.75c-.25.94,0,1.69.18.46-.93-2.55,7.54-2.18,7.86-.83.08.71.39,3.8,1.26,2,.11.3.29,0,.43.08.2-1.17.2-3.35,2.09-3s4.95-.82,6,.93c.08.71.39,3.8,1.25,2,.12.31.3,0,.44.08.2-1.17.2-3.35,2.09-3s4.95-.83,6,.93c.15,1.06.49,4.08,1.18,1.44.06,1.11.33.52.52.64A9.19,9.19,0,0,1,44,50.31Zm-27-1.7h0Zm.33,0a4.46,4.46,0,0,1,.56.13C17.75,48.71,17.57,48.68,17.39,48.64Zm7.09,2.53a2.41,2.41,0,0,1,.32-1.58A4.89,4.89,0,0,0,24.48,51.17Zm1.76-2.47a4,4,0,0,1,1.49.07C27.24,48.75,26.68,48.71,26.24,48.7Zm.8-.86a3.15,3.15,0,0,0-2.64.75c.93-1.13,2.78-.73,4.16-.76Zm7.22,3.33a2.41,2.41,0,0,1,.32-1.58A4.89,4.89,0,0,0,34.26,51.17ZM36,48.7a4,4,0,0,1,1.49.07C37,48.75,36.46,48.71,36,48.7Zm.79-.86a3.16,3.16,0,0,0-2.64.75c.94-1.13,2.79-.73,4.17-.76Z"/><path class="cls-2" d="M16.64,47.53c1.36-.12,2.78.15,4.17,0A14.93,14.93,0,0,0,16.64,47.53Z"/><path class="cls-2" d="M20.81,47.56h.13l0,0Z"/><path class="cls-2" d="M37.07,47.5a6,6,0,0,0-2.5.42l.68-.12a4.07,4.07,0,0,1,.86-.15Q36.58,47.56,37.07,47.5Z"/><path class="cls-2" d="M26.41,47.53c1.37-.12,2.79.15,4.18,0A15,15,0,0,0,26.41,47.53Z"/><path class="cls-2" d="M26.41,47.53a5.18,5.18,0,0,0-1.62.39A8.52,8.52,0,0,1,26.41,47.53Z"/><path class="cls-2" d="M39,45.68a3,3,0,0,0,1.5-.63,2.9,2.9,0,0,1-.57.25,3.38,3.38,0,0,1-1,.31C39.1,45.62,39.05,45.66,39,45.68Z"/><path class="cls-2" d="M37.74,39.42a1.77,1.77,0,0,0-.86.56,2.93,2.93,0,0,1,3.54.33c-1.75-1.06-4.75-.52-3.33.48a2,2,0,0,1,1.15-.32.52.52,0,0,0-.5.44c1.49-.82,3.34,1,2.34,2.47-1.88,2.19-3.51-.36-3-2.17-.23-.18-.58.52-.92.61.32-.8.31-.64-.08-.9-2,3.77,1.53,5.21,3.92,4.38a3,3,0,0,0,1.55-3.52,1.33,1.33,0,0,0-.12-.4A2.92,2.92,0,0,0,37.74,39.42Zm1.39,1.2a2.13,2.13,0,0,1,1.36,1.11A2.67,2.67,0,0,0,39.13,40.62ZM41,44.14a4.56,4.56,0,0,0,.52-1.57A2.63,2.63,0,0,1,41,44.14Z"/><path class="cls-2" d="M41.71,41.86a2.72,2.72,0,0,0-.41-1A4.8,4.8,0,0,1,41.71,41.86Z"/><path class="cls-2" d="M41.71,41.86a3.26,3.26,0,0,1-1.18,3.19A2.55,2.55,0,0,0,41.71,41.86Z"/><path class="cls-2" d="M50.77,35.87c-.24-3.21-.21-5.78-.89-7.49a2.57,2.57,0,0,0-1.68-1.9c-1.22-.6-3.13-.66-6.13-.06.72-.13,1.35-.22,2-.29a4.44,4.44,0,0,0-2.09.75c2-.61,5.21-1,7,.28-1.9-1.1-5-.9-7-.27a3.37,3.37,0,0,0-.74.72,13.43,13.43,0,0,0-.82,3.46,7.51,7.51,0,0,1,.74-3.36c-1.06,1.46-1.25,3.8-1.08,6.61,0-.16.08-.32.11-.49-.06,2,.21,2.92.88.34a22,22,0,0,1,.53-4.81c-.16,1.68-.69,5.14-.23,4.49.6-3.82-.76-7.2,5-6.19,4-.44,2.07,6.26,2.86,8.67a2.09,2.09,0,0,1-1.21,1c-1.23.84-.29,3.57-.65,5-.07,2.24-.2,8.57.91,2.91-.13,2.61.24,1.31.4,1.64.13-2.75.28-5.61.35-8.34A2.78,2.78,0,0,0,50.77,35.87Zm-6.72-9.74a8.42,8.42,0,0,1,3.65.22,6.07,6.07,0,0,0-.63,0A10.17,10.17,0,0,0,44.05,26.13Zm-.71,1.21a6.29,6.29,0,0,1,2.95,0A8.13,8.13,0,0,0,43.34,27.34Zm6.39.93a2.28,2.28,0,0,0-.15-.36l.09.16a4.37,4.37,0,0,1,.18,1.13A7.66,7.66,0,0,0,49.73,28.27Zm.78,6c-.39-1.46-.15-3.69-.5-5.43a18.34,18.34,0,0,1,.56,5.39S50.51,34.14,50.51,34.31Z"/><path class="cls-2" d="M41.71,27l.23-.06h0Z"/><path class="cls-2" d="M41.24,27.53a1.88,1.88,0,0,0-.12.18l.08-.1A.59.59,0,0,1,41.24,27.53Z"/><path class="cls-2" d="M41.24,27.53a3.81,3.81,0,0,1,.45-.56A1.16,1.16,0,0,0,41.24,27.53Z"/><path class="cls-2" d="M43.44,20.78s0-.09,0-.13S43.45,20.74,43.44,20.78Z"/><path class="cls-2" d="M43.42,21c0-.07,0-.14,0-.21S43.42,20.92,43.42,21Z"/><path class="cls-2" d="M43.88,18.09c-5.92,3.22,2.84,10,4.63,3.76,0-1.9-.43-.09-1,.15.3-.75.09-.63-.26-.69C46.5,24,43.5,22.63,43.42,21a1.72,1.72,0,0,0,.5,1.32s-.07,0,0,.06c-2.11-2.41,2-4.68,3.25-1.84-.27-2.2-3.78-2-4,.25.12-2.3,3.75-2.43,4.07-.28,0,.35.57.94.7.14,0-.29-.23-.55.11-.48a2.69,2.69,0,0,0-.47-1,2.71,2.71,0,0,1,.65.7A3.23,3.23,0,0,0,43.88,18.09Zm-1.38,1.6a2.48,2.48,0,0,1,2.42-1.57A2.93,2.93,0,0,0,42.5,19.69Z"/><path class="cls-2" d="M43.46,20.65a2,2,0,0,1,.09-.26A1.14,1.14,0,0,0,43.46,20.65Z"/><path class="cls-2" d="M44.55,19.37a1.65,1.65,0,0,0-.88.76A2.51,2.51,0,0,1,44.55,19.37Z"/><path class="cls-2" d="M43.55,20.39a1.89,1.89,0,0,1,.11-.25A1.89,1.89,0,0,0,43.55,20.39Z"/><path class="cls-2" d="M43.66,20.14h0Z"/></g></g></svg>