<svg xmlns="http://www.w3.org/2000/svg" viewBox="0 0 63.58 63.58"><defs><style>.cls-1{fill:none;}.cls-2{fill:#d16c0c;}</style></defs><g id="Layer_2" data-name="Layer 2"><g id="Layer_1-2" data-name="Layer 1"><rect class="cls-1" width="63.58" height="63.58"/><path class="cls-2" d="M31.73,40.54a6.79,6.79,0,0,1-.14,1.17c-5-.11-10.31-.17-15.35-.25.11-.81-.47-1.84-.89-.49H15.2c.07-.7-.29-.35-.47-.43a56.76,56.76,0,0,0-.14,7.38c0-.64.06-1.27.08-1.89a1.19,1.19,0,0,0,.08.2,14.53,14.53,0,0,0,0,1.75h-.14c0,.49-.09,1-.05,1.51-1.43-.11-3.61.47-.63.88v0h-.18s0,.08,0,.11c-1.32,0-.62.3-.81.48h.68c0,.81.07,1.57,0,2.36a7,7,0,0,0,.07-1.52s.06,0,.07,0c.18.53-.1,1,0,1.54h-.14c0,.26-.21.59.08.76A5.54,5.54,0,0,0,14,52.39a6.79,6.79,0,0,1-.2,1.81.67.67,0,0,0,.73,0v-.1a.54.54,0,0,1,.22,0A12.69,12.69,0,0,1,15,52.6a6.61,6.61,0,0,0-.19,1.53c.62-.5.42-2.12.45-3,5,0,9.78-.07,14.67,0-3-.07-5.75-.11-8.72-.07,0,0,.09-.06,0-.07,3-.18,5.84.1,8.86,0v.14l2.58.06c0,.73,0,1.44,0,2.17a7,7,0,0,0,.07-1.52s.06,0,.07,0c.18.53-.1,1,0,1.54h-.14c0,.26-.21.59.08.76A5.54,5.54,0,0,0,33,52.39a6.79,6.79,0,0,1-.2,1.81.67.67,0,0,0,.73,0v-.1a.54.54,0,0,1,.22,0A12.69,12.69,0,0,1,34,52.6a6.61,6.61,0,0,0-.19,1.53c.63-.52.42-2.15.45-3.05l.17,0h-.16v-.11c1.33.2,1.46-.91,0-.7-.07-.07,0-.15,0-.22l-1.77,0v0l1.81,0c0-.37-.77-.22-1.29-.26-.21-1.76,1.33-10.26-.66-8.71H32.2C32.27,40.27,31.91,40.62,31.73,40.54ZM14.81,49.48h-.09a27.16,27.16,0,0,0,.21-3l0,.05C14.94,47.52,14.86,48.55,14.81,49.48Zm1,0h-.06c0-.45.06-.91.08-1.36s0-.68,0-1h0A23.48,23.48,0,0,0,15.79,49.48ZM33,46c-.13,1.22-.18,2.43-.19,3.65h-.06C32.82,48.47,32.8,47.22,33,46Zm-1,.17h0c0,1.17-.1,2.39-.17,3.51h-.1A28.83,28.83,0,0,0,31.94,46.2Zm-.16,3.72v0c-2.07-.06-4.2-.06-6.22-.19C27.63,49.84,29.7,49.91,31.78,49.92Zm-.11-4.82c0-.33,0-.65,0-1,0,0,0,0,0,0a4.57,4.57,0,0,1,0,1.33.43.43,0,0,1-.08.33c0-.24,0-.49,0-.73C31.67,45.06,31.67,45.09,31.67,45.1Zm-4-3.19c1.32,0,2.6,0,3.92,0v0c-4.09-.1-8.33-.06-12.34-.22Zm-2.77.88c2.5.06,4.44,0,6.7.11V43c-4.85-.28-9.65-.13-14.47-.23C19.6,42.76,22.43,42.72,24.9,42.79Zm-5.15,6.68c-1.22,0-2.5,0-3.71,0a19.68,19.68,0,0,1,.11-2.3c2.57-.1,20.87.37,12.65-.92v-.14c2.83.07,1.42-.29,1.77-.47-4.75-.2-9.61-.08-14.32-.17a20.12,20.12,0,0,0,0-2.33c3.45-.16,7.12,0,10.63,0-3.71,0-7.08-.16-10.64-.05V43c3.62-.05,7.16.13,10.86,0v.14c1.42,0,2.95,0,4.38.06a.07.07,0,0,1,.05.06c0,.74.13,1.81.09,2.62-.13.15-.27.27,0,.35,0,.56,0,1.13,0,1.7,0-.57.06-1.13.07-1.69,0,0,.06,0,.09,0a14.55,14.55,0,0,0,0,1.75h-.14a8.15,8.15,0,0,0,0,1.71C27.66,49.55,23.67,49.37,19.75,49.47Zm-3.48-3.83,0,0v-.08l0,0S16.23,45.6,16.27,45.64Zm16.32,5.23v.07c-2.69-.13-5.52-.13-8.25-.18C27,50.71,30,50.84,32.59,50.87Z"/><path class="cls-2" d="M47.53,24.93l.17.23a8.59,8.59,0,0,0-4.06-3.84,9.14,9.14,0,0,1,1.3.86A7.77,7.77,0,0,1,47.53,24.93Z"/><path class="cls-2" d="M49.17,27.75a17.28,17.28,0,0,0-1.47-2.59,7.75,7.75,0,0,1,.76,2.28A9.24,9.24,0,0,1,53.35,32c-.05-.05-.16-.23,0,.1a8.86,8.86,0,0,0-4.9-4.46,7.65,7.65,0,0,0-.89-2.67,13.29,13.29,0,0,0-2.59-2.75C41.05,19.65,35.1,20.35,33,25.51l-.13-.06c-1.27,4.13-7.06,3.62-6.19,10.8A8.69,8.69,0,0,1,31,28.33C27.64,30.81,25,35.6,28,39.12c.27.14-1-3.82-.28-3.35a7.51,7.51,0,0,1,5-7.21,7.48,7.48,0,0,0-5,7.32c.16-2.74,2.49-6.5,5.61-7.52,1-6.05,9.12-8.79,12.53-3.11,1,1.15.55,3.26,2.16,3.86,9.57,4.67,2.09,16.08-6.9,13.38,0-2.69,0-5.37,0-8.08.58-.57,3.9-2.57,2-2.94l-.11-.1c.27-.16-.09-.31-.2-.46a.68.68,0,0,1-.41.21c-.42.42-.81.84-1.21,1.24a19.17,19.17,0,0,0-.11-3.87c-.08,1.34-.13,2.73-.17,4.14l0,0c.18-1.28.09-7.6-.61-4-.08.09-.15,0-.23,0-.08,3-.09,6.12-.21,9.12h0c.11-3.06.14-6.09.15-9.16-.64,2.2-.13,6.16-.39,8.87-.57-.58-3-3.89-3-1.86l-.11.1c-.23-.33-.34.06-.5.16a32.78,32.78,0,0,0,2.85,3,14.34,14.34,0,0,0-1.46-1.56s.05,0,0-.06c.66.4.94,1.09,1.54,1.54l-.1.1c.24.21.37.59.68.7,0,1,0,1.91,0,2.87-4.17,0-6.54.56,0,.84v.15c-4.29,0-2.06.3-2.64.48l2.65,0c.12,1.78-.38,14.09.92,8.53h.14c-.07,1.9.29,1,.47,1.19.15-3.21.17-6.51.13-9.69C51.78,47.26,59.81,33.23,49.17,27.75ZM33,28.38a9.13,9.13,0,0,1,1.76-3.57A24.13,24.13,0,0,0,33,28.38Zm6-6.43a6.11,6.11,0,0,1,5.31,1.23A6.78,6.78,0,0,0,39.05,22Zm-6.47,5.37,0,0c1.16-6.77,10.82-8.91,14.41-2.87C43.39,18.54,33.67,20.58,32.58,27.32Zm8.66,5.12c.17-.16.33-.32.49-.5,0,0,0,0,.06,0a1.67,1.67,0,0,1-.56.59A.66.66,0,0,0,41.24,32.44Zm0,.38.3-.26-.3.32Zm0,1.23a6.06,6.06,0,0,1,.88-.62c-.26.16-.5.34-.74.52l-.14.13Zm-1.63,5.39a14.59,14.59,0,0,0-1.41-1.73,15.23,15.23,0,0,1,1.41,1.6Zm0-1.52a5.34,5.34,0,0,1-.53-.72c.17.24.35.47.53.7Zm.24.29h0Zm1,2.09c0-1.65,0-3.54,0-5.2,0-.2,0-.39,0-.58h0C40.89,36.46,40.88,38.4,40.84,40.3Zm.08-6,0,0v-.08l0,0Zm0-1.24,0,0v0l0,0Zm0-.3,0,0v-.11l0,0Zm.25,1.26v0l-.13.12v0Zm-.14,10Zm0-1.54c0-2.68.07-5.27,0-8a.34.34,0,0,0,.12-.12c-.05,2.74-.08,5.37-.07,8.08Z"/><path class="cls-2" d="M36.83,21.38a7.69,7.69,0,0,1,6.81-.06A6.83,6.83,0,0,0,36.83,21.38Z"/><path class="cls-2" d="M30.13,23.73c.09-.07,0-.29.14-.3a5.66,5.66,0,0,0-8.39,3.13c-4.5.28-6.72,5.88-4.13,9.4-2.5-3.5-.44-8.9,4-9.34,0,0-.12.07,0,.07a5.88,5.88,0,0,0-4.59,8.1A4,4,0,0,0,18,36l-.12.08c1,2.1,3.29,2.44,5.33,1.95a4.8,4.8,0,0,1-4.48-1.36c2.87,2.07,7.88,1.09,4.29.54-.1-.07,0-.15,0-.22-3.64.9-6.09-3.32-4.7-6.36-1.36,3.13,1.09,7.25,4.75,6.29-6.09.8-6.57-9.51.11-8.67.28-6.83,10.07-2,5.66-4.81l0-.14C29.82,23.67,30,23.82,30.13,23.73ZM17,32.88a5.4,5.4,0,0,1,1.23-4A9.74,9.74,0,0,0,17,32.88Z"/><path class="cls-2" d="M20.81,14.5l.11-.17c0-.18.1-.36.16-.53l-.14.13a.88.88,0,0,1,0-.15l-.06.15a3.89,3.89,0,0,1-.83.56l.65,0Z"/><path class="cls-2" d="M21,13.71a6.68,6.68,0,0,1,5.75-4.43A6.41,6.41,0,0,0,21,13.71Z"/><path class="cls-2" d="M29.14,9.57a5.52,5.52,0,0,0-1.65-.3A6.23,6.23,0,0,1,29.14,9.57Z"/><path class="cls-2" d="M41.13,15.26v-.14c2.42.07,1.21-.29,1.52-.47-7.85.62-5.43-2.24-10-2.1a6.23,6.23,0,0,0-3-2.78A5.65,5.65,0,0,1,32,11.82s-.13-.09,0,.07c-3-4.35-9.35-2.67-10.91,1.91,1.2-1.15,1.67-2.85,3.54-3.74-1.61.95-2.73,2.8-3.7,4.27a1.66,1.66,0,0,1-.06.21l-.05,0-.2.3c-.25,0-.67-.05-1.19-.06a4.17,4.17,0,0,0,.68-.25,34.39,34.39,0,0,0-5.19.1c.3.06.58.12.85.16-1.85.07-3,.26-.62.65.12.08,0,.15,0,.23,2.92.36,4.49.31,5.43,0-.95.35-2.52.41-5.49.08,2.55.9,4.31.62,5.67-.15A2.16,2.16,0,0,0,21.5,15c3.17-2.45,4-7.33,9.38-2,.72,1.93,2.75.57,4,1.69.63.55,1.21,1.61,2.21,1.47C38.94,16.3,47.14,16,41.13,15.26Zm-20.37.27a7.57,7.57,0,0,0,.66-.44A2.3,2.3,0,0,1,20.76,15.53Zm1.36-1.38a7.31,7.31,0,0,1,3.72-3.49A7.85,7.85,0,0,0,22.12,14.15Z"/><path class="cls-2" d="M26.77,9.28h0Z"/><path class="cls-2" d="M29.16,9.57h0Z"/><path class="cls-2" d="M29.65,9.77l-.49-.2Z"/><path class="cls-2" d="M27.13,9.27h0Z"/><path class="cls-2" d="M9.82,21.91c1.22-.09,7.5,1.21,6.12-.65v-.14c.49.07.25-.29.31-.47a49.59,49.59,0,0,0-5.17-.14,23.45,23.45,0,0,0,2.65.07s0,.05,0,.07c-.92.18-1.78-.11-2.7,0v-.14c-.43,0-1-.23-1.33.08a18.13,18.13,0,0,0,3.06.29,19.24,19.24,0,0,1-3.15-.21c-.2.2-.35.51,0,.73h.19a.45.45,0,0,1,0,.23c.88.1,1.79.08,2.65.25a21.63,21.63,0,0,0-2.66-.19A.18.18,0,0,0,9.82,21.91Z"/><path class="cls-2" d="M20.28,20.73c-.61-.26-2.42-.67-1.75.64v.15c-.14-.07-.07.29-.08.47a.24.24,0,0,1,.21.14,8.83,8.83,0,0,1,1.26,0,1.75,1.75,0,0,0-.75-.07s0-.06,0-.07c.27-.18.51.1.77,0v.14c.17,0,.33.18.39-.08a1.59,1.59,0,0,0-.88-.29,1.75,1.75,0,0,1,.9.2,1.21,1.21,0,0,0,0-.73H20.3V21c-.25-.11-.51-.09-.75-.26a1.68,1.68,0,0,0,.76.19A.42.42,0,0,0,20.28,20.73Z"/><path class="cls-2" d="M47.28,14.73c-.61-.26-2.42-.67-1.75.64v.15c-.14-.07-.07.29-.08.47a.24.24,0,0,1,.21.14,8.83,8.83,0,0,1,1.26,0,1.75,1.75,0,0,0-.75-.07s0-.06,0-.07c.27-.18.51.1.77,0v.14c.17,0,.33.18.39-.08a1.59,1.59,0,0,0-.88-.29,1.75,1.75,0,0,1,.9.2,1.21,1.21,0,0,0,0-.73H47.3V15c-.25-.11-.51-.09-.75-.26a1.68,1.68,0,0,0,.76.19A.42.42,0,0,0,47.28,14.73Z"/><path class="cls-2" d="M51.28,14.73c-.61-.26-2.42-.67-1.75.64v.15c-.14-.07-.07.29-.08.47a.24.24,0,0,1,.21.14,8.83,8.83,0,0,1,1.26,0,1.75,1.75,0,0,0-.75-.07s0-.06,0-.07c.27-.18.51.1.77,0v.14c.17,0,.33.18.39-.08a1.59,1.59,0,0,0-.88-.29,1.75,1.75,0,0,1,.9.2,1.21,1.21,0,0,0,0-.73H51.3V15c-.25-.11-.51-.09-.75-.26a1.68,1.68,0,0,0,.76.19A.42.42,0,0,0,51.28,14.73Z"/></g></g></svg>