<svg xmlns="http://www.w3.org/2000/svg" viewBox="0 0 63.58 63.58"><defs><style>.cls-1{fill:none;}.cls-2{fill:#d16c0c;}</style></defs><g id="Layer_2" data-name="Layer 2"><g id="Layer_1-2" data-name="Layer 1"><rect class="cls-1" width="63.58" height="63.58"/><path class="cls-2" d="M52,47.39c-1.18-.15-2.51.08-3.68,0q0-5,.05-10h-.16c-.16-1.3,1.14-11.76-.68-9.22h-.15c.07-.75-.29-.37-.47-.47-.3,2.64,0,5.3-.14,7.92.07-1.38.11-2.68.07-4.06,0,0,0,0,.07,0,.18,1.41-.1,2.72,0,4.13h-.14a16,16,0,0,0,0,1.7c-2.61.57-2.86-1.15-3.59-3.23-1.82.15-4.06-.64-4.36,1.75-.27-2.52-2.49-1.57-4.35-1.69-.73,2.32-1.26,3.63-3.91,3.12.37-1.2-.3-1.35-.8-.3l-.13-.06c.29-.7-.2-.4-.34-.51-.78,2.29-3.84-.41-1.42-1.24A1.09,1.09,0,0,0,27.17,37s-.06,0-.05.06c-.89-.77-.05-2.14,1-2.05v.14c.5,0,.64.52,1,.76-.08-1.46-2.43-1.31-2.56.14.06-1.53,2.52-1.59,2.66-.17.05.28.59.59.74.05,0-.26-.15-.41.14-.38A2.26,2.26,0,0,0,28.36,34h0a2.3,2.3,0,0,1,1.81,1.6c.59-.62-1-1.73-1.68-1.84.54-1.08-.07-1.85-.7-.53l-.13-.06c.29-.7-.2-.4-.34-.51-.79,2.31-3.83-.42-1.42-1.24a1.1,1.1,0,0,0-.64,1.85s-.05,0,0,0c-.89-.76-.06-2.13,1-2v.14c.5,0,.64.52,1,.76-.08-1.46-2.43-1.31-2.56.14.06-1.53,2.52-1.59,2.66-.17.05.28.59.59.74,0,0-.26-.15-.4.13-.37a2.32,2.32,0,0,0-3.9-.9h0c1.51-1.88,3.59.28,4.13.68a2.58,2.58,0,0,0-4.3-.85c-1.94-2.23-5.65.41-4.27,3a2.7,2.7,0,0,0-2,3.62H15.4c-.17-1.3,1.14-11.72-.69-9.18h-.14c.07-.75-.29-.37-.47-.47-.3,2.64,0,5.3-.14,7.92.07-1.38.1-2.68.07-4.06,0,0,.05,0,.07,0,.18,1.41-.11,2.72,0,4.13H14c.84,3.65-2.26,12.11,2.19,13.09-2-.49-1.35-3-1.32-4.62H15c.15,1.46-.43,3.3.49,3-.09-2.67.09-5.47.12-8.18l31.19,0c0,2.82,0,5.64,0,8.5H45.06l1.7,0c0-2.91,0-5.74.05-8.55-.61-.09-1.48.17-2-.11l2,0c0,1.72,0,7,0,8.74l-2.19,0v-.14c-4.42,0-9.65-.24-14.07.08,5.65.11,10.91.18,16.44.22,0-3,0-6.08,0-9.11-.76,0-1.56,0-2.3,0h2.34c0,3.06,0,6.1-.06,9.16-3.28.1-27.21-.68-16,.8,5.58,0,11.1.1,16.65.12h0c-3.78.19-15.79-.49-16,.15,4.95.06,13.42.08,18.82.2,0,.2,0,.38,0,.7.13-.13.29-.41.2-.54a2.18,2.18,0,0,0,.05-.29,1.85,1.85,0,0,1-.58.08s0,0,0-.07c.31,0,.32-.09.51,0l-.06.23a3.13,3.13,0,0,0,0,.67h-.14c0,.43-.23,1,.08,1.32a16,16,0,0,0,.28-2.4h0c.1,1-.75,3.56.75,2.37.1-1.1.13-2,.25-3.08-.08,1.13-.18,2-.18,3.09A5.86,5.86,0,0,0,52,47.39ZM14.33,33c0,1.41-.09,2.95-.16,4.32h-.09C14.27,35.91,14.27,34.42,14.33,33Zm.77,4.32c.09-1.24.07-2.53.24-3.75-.12,1.25-.18,2.49-.19,3.75Zm31.73.28a.41.41,0,0,1,.11,0h-.11Zm.88,0h0Zm.15,0ZM48,48.28s0,.1,0,.15h0Zm0-.84c0-3.23.07-6.46.1-9.84h0c0,3.33-.06,6.59-.09,9.84Zm.13-13.88c-.12,1.26-.18,2.52-.19,3.79h-.06C48,36.09,48,34.79,48.12,33.56Zm-1-.57c0,1.42-.08,3-.16,4.35h-.09C47.06,35.94,47.05,34.43,47.11,33ZM44,37.31a2.31,2.31,0,0,1-.1-.28A2.31,2.31,0,0,0,44,37.31Zm-1.13,1.28h-.13c.15,0,.3,0,.45,0Zm0-1.32,0,0c-.16-.14-.18-.48-.3-.72C42.76,36.8,42.86,37,43,37.27Zm-1-1.61c.26-.22.6,1.18.78,1.64h-.1c-.11-.36-.64-1.66-.61-1.57h-.08A.09.09,0,0,0,42,35.66Zm-1.6.63.19-.49c1.22,0,1.49-.36,2.05,1.5-.92,0-1.81,0-2.74,0A5.49,5.49,0,0,0,40.35,36.29Zm-2.44,1h0c-.15-.14-.17-.47-.29-.7C37.72,36.8,37.82,37,37.91,37.27Zm-1-1.61c.26-.22.58,1.16.78,1.61-.28-.1-.68-1.69-.71-1.54H36.9A.09.09,0,0,0,36.91,35.66Zm-1.79,1.1c.11-.27.28-.69.38-1,1.19,0,1.49-.38,2,1.47H34.83A5,5,0,0,1,35.12,36.76Zm-.33,2c1.24,0,2.63.11,3.87.11H32.15c.07,0,.27-.06-.07-.08ZM24,37.31a1.09,1.09,0,0,1,0-2.13A1.1,1.1,0,0,0,23.38,37s-.05,0,0,.06c-.89-.77-.06-2.14,1-2.05v.14A1.08,1.08,0,1,1,24,37.31Zm-2.76-4.58a1.09,1.09,0,0,1,.87-1.33,1.1,1.1,0,0,0-.64,1.85s-.06,0,0,0c-.92-.75,0-2.13,1-2v.14C24.82,32.06,22.18,35,21.26,32.73Zm1.53,3.35c0-1.44,2.58-1.64,2.52-.26C25.08,34.44,22.92,34.72,22.79,36.08ZM23.43,32a.13.13,0,0,1,0,.06c-.23-1.37-2.39-1.1-2.52.27C20.87,30.89,23.37,30.66,23.43,32Zm-1.84,3.65a1.52,1.52,0,0,0-.06.2c-.24-1.38-2.39-1.1-2.52.26A1.37,1.37,0,0,1,21.59,35.62Zm2.54-4.53,0,0s0,0,0-.05Zm-1.35-.88A2.33,2.33,0,0,1,24,30.9s0,0,0,0a2.38,2.38,0,0,0-3.81.47A2.44,2.44,0,0,1,22.78,30.21ZM20,34v0a2.51,2.51,0,0,0-1.79,1.21A2.46,2.46,0,0,1,20,34Zm-.65,2.55a1.1,1.1,0,0,1,.87-1.33A1.1,1.1,0,0,0,19.6,37s-.06,0-.05.06c-.92-.75,0-2.14,1-2.05v.14C22.93,35.85,20.29,38.77,19.37,36.51Zm20.48,2.38,0-.11c1.24,0,2.64.11,3.89.11Zm4.64-.29s0,0,0,0S44.49,38.58,44.49,38.6Zm2.29-1h0Z"/><path class="cls-2" d="M11.75,22.79a4.65,4.65,0,0,0,8.06,1,4.66,4.66,0,0,0,7.58,0,4.64,4.64,0,0,0,7.55-.05,4.64,4.64,0,0,0,7.58,0c2.35,4.23,9.42.61,7.93-2.63-.07,1.87-2.54,4.42-4.92,3.65l0-.14c1.44.54,4.29-1.14,3.32-1.77-2,2.9-6.34.71-5.53-2.57H41.68c.86,4.88-6.72,4.92-5.92,0H34.13c.81,4.93-6.82,4.89-5.9,0H26.52c1,5-6.87,4.95-5.82,0H18.94c.75,5.72-7.37,4.46-5.91-.86l15.07,0L13,19.35c-1.24,4.15,4.5,7,6,2.5-1.22,4.77-7.5,1.7-6.09-2.59,5.29,0,10.38,0,15.73,0v.14c6.17,0,13.36.24,19.5-.08-11.53-.2-23.75-.2-35.42-.25-.38,2.49.59,5.69,3.65,5.37-3.06.33-4.07-2.89-3.69-5.41,12.33,0,25.13.14,36.8.16.33,3,.64,1.6.68-.68-.13.16-2-1.81-1.38-1.65-5.27-6.7-6.91-4.84-14.52-5.18,10.14-.06,8.75-.58,14.43,4.7-5.48-7.17-8.25-4.36-16.25-5-11.64.15-12.74-2.12-21,6.4C11.53,19.21,11.22,21.48,11.75,22.79Zm8.06-.94h0Zm2.45,2a3,3,0,0,0,3.24-.36c-.05.06-.22.23.11,0-1.54,1.53-4.88.59-5-1.65A3.07,3.07,0,0,0,22.26,23.86Zm-1.72-2.68-.11.11c0-.06.08-.13.11-.17Zm-1.46,0s0,0,0-.06.13.11.1.16Zm-6.61-3.1c.23,0,.45,0,.68,0A5.14,5.14,0,0,1,12.47,18.08Zm10.64-3.33c.66-2.31,2.64-1.59,4.55-1.68-.27,1.32-.45,2.59-.77,3.86a17.31,17.31,0,0,0,.54-2.37s.05,0,.08,0c0,.86-.43,1.58-.49,2.43l-.14,0c-.06.31-.21.61-.25.93l-5.64,0A19.18,19.18,0,0,0,23.11,14.75Zm10.45-2h0Zm4.75.22a.59.59,0,0,0,0,.08H34.67a.3.3,0,0,0,0-.1Zm.62-.19c-.07,0-.17,0-.19,0h.18A.06.06,0,0,0,38.93,12.74Zm-.56.31c.61,1.61,1.79,2.93,2.54,4.46a24,24,0,0,0-1.38-2.42s.06,0,.06-.05c.65.74.87,1.66,1.46,2.43l-.12.07.21.43c-1.94,0-4,0-5.67,0a41.45,41.45,0,0,0-.79-4.93ZM42.5,18c-.36-.78-.83-1.54-1.13-2.35A20,20,0,0,0,42.57,18Zm-1,0c-.42-.63-.77-1.48-1.18-2.17A22.77,22.77,0,0,1,41.49,18Zm-6.42-.83A7.68,7.68,0,0,1,35,15.79,14.69,14.69,0,0,0,35.21,18h-.05Zm-.81,1.06v0h-.09v0ZM34.17,18a19.93,19.93,0,0,0-.27-2.31A20.1,20.1,0,0,1,34.24,18Zm1,.23h.07v0h-.07Zm.19,0c2,.05,4-.07,5.92.06l-6,0A.16.16,0,0,0,35.37,18.2Zm6.16,0s.09,0,.1.05S41.54,18.27,41.53,18.21Zm-8.44-4.73c.26,1.29.57,2.5.76,3.77a21.88,21.88,0,0,0-.41-2.4s.05,0,.07,0c.34.79.21,1.62.48,2.43l-.14,0c0,.22.06.45.08.68l-5.77-.06a29,29,0,0,0,1.17-4.85h3.74A1,1,0,0,0,33.09,13.48Zm-6.37,4.69h0Zm.56-1.48c-.2.38-.15,1-.44,1.21a19.64,19.64,0,0,0,.71-2.41A7.17,7.17,0,0,1,27.28,16.69Zm.52,1.49h0Zm.08-.27a15.53,15.53,0,0,1,.6-1.9,12.89,12.89,0,0,0-.56,1.9ZM21,17.43c-.12.13-.17.35-.31.43a20.52,20.52,0,0,1,1.23-1.67C21.6,16.6,21.29,17,21,17.43Zm-.45.7s0,0-.06,0Zm-.05-1.59c-.41.42-.59,1.14-1.06,1.31a21.19,21.19,0,0,0,1.82-2.51A10.58,10.58,0,0,1,20.5,16.54Zm-1.11,1.58h0l-5.68,0C15.6,18.08,17.51,18.12,19.39,18.12Zm1.44,0c2,0,3.93,0,5.88,0Zm7.28,0h0c1.95,0,3.9,0,5.86,0v0Zm14.94-5.43c2.4,1.11,4,4.23,6.2,5.77-.08-.07-2.68.18-1.74-.23-5.69,0-5.17-.1.18-.06-.37-.44-3.07-.18-4.91-.27a34.2,34.2,0,0,0-2.63-4.91h2.24c-.74-.1-1.69.16-2.32-.13.85,0,1.69,0,2.55,0v.15c2.21.38,3.61,3.65,5.61,4.74-2.44-2.53-4.34-5.88-8.28-5.08Zm-4.66-.06a32,32,0,0,1-3.79,0Zm-5.32,0h0Zm0,.19s0,.07,0,.1H29.34v-.11Zm-5.39,0a.32.32,0,0,0,0,.09H26.08s.16,0,0-.07Zm-11,2.39a5.19,5.19,0,0,1,5.49-2.22c-.73,1.23-1.38,2.42-2.15,3.59a26.07,26.07,0,0,0,1.49-2.36s0,0,.06,0c-.34.92-1,1.54-1.45,2.42L20,16.71c-.19.38-.64.7-.65,1.14l-5.37,0C14.86,17,15.76,16.12,16.69,15.31Zm-2.4,1.33.1.11c-.79.65-.82,1.17-1.54,1.08C13.24,17.54,13.73,17.14,14.29,16.64Zm-2.59,3.7V18.07h.22s-.14,0-.2,0a25.68,25.68,0,0,0,.09,4.12A7.22,7.22,0,0,1,11.7,20.34Z"/><path class="cls-2" d="M25.08,47.19c-1.62-7.12-12.15,1.05-5.06,4.66,4.91,2.59,6.89-6.31,4.52-2.38l-.13,0c.35-.89.18-.78-.25-.85-1.94,5.65-8.29-2.11-2.3-2.67a2.36,2.36,0,0,0-1.92,4s-.08,0-.05.06c-1.72-1.56-.11-4.39,2.07-4.16l0,.14c1,.07,1.59,1,2.1,1.68-.39-2.75-4.78-2.46-5,.33.17-2.88,4.7-3,5.12-.36.05.41.63,1.2.77.19,0-.31-.29-.66.09-.57-.78-3.05-5.27-3.32-6.64-.56A3.68,3.68,0,0,1,25.08,47.19Z"/><path class="cls-2" d="M22.67,47.93c.09-2.52-4.41.18-1.58,1.64,1.3.85,3.09-1.84,1-1.17.15-.16-.29-.13-.39-.17h0c.17,0,.78.13.68-.22a.52.52,0,0,1,.21-.07,1.09,1.09,0,0,0-2-.23A1.14,1.14,0,0,1,22.67,47.93Zm-1,.3Zm0,0Zm0,0Zm0-.15c.09.05.14.11,0,.15.1-.14-.14-.16-.19,0C21.52,48.14,21.58,48,21.67,48.08Z"/><path class="cls-2" d="M21.71,48.23Z"/><path class="cls-2" d="M20.24,35.18a.88.88,0,0,1,.28,0A.88.88,0,0,0,20.24,35.18Z"/><path class="cls-2" d="M24,35.18a.88.88,0,0,1,.28,0A.88.88,0,0,0,24,35.18Z"/><path class="cls-2" d="M22.13,31.4a.88.88,0,0,1,.28,0A.66.66,0,0,0,22.13,31.4Z"/><path class="cls-2" d="M25.91,31.4a.88.88,0,0,1,.28,0A.66.66,0,0,0,25.91,31.4Z"/><path class="cls-2" d="M27.8,35.18a.88.88,0,0,1,.28,0A.88.88,0,0,0,27.8,35.18Z"/></g></g></svg>