<svg xmlns="http://www.w3.org/2000/svg" viewBox="0 0 63.58 63.58"><defs><style>.cls-1{fill:none;}.cls-2{fill:#d16c0c;}</style></defs><g id="Layer_2" data-name="Layer 2"><g id="Layer_1-2" data-name="Layer 1"><rect class="cls-1" width="63.58" height="63.58"/><path class="cls-2" d="M47.79,23.1a.56.56,0,0,0,.15.35,16.28,16.28,0,0,0,.29-3.06,20.42,20.42,0,0,1-.2,3.15c.19.2.5.35.73.05v-.18a.33.33,0,0,1,.22,0c.11-.88.09-1.79.26-2.65a18.31,18.31,0,0,0-.19,2.66c.47-.79,1.24-7.69-.43-6.2h-.15c.08-.49-.28-.25-.46-.31-.3,1.71,0,3.46-.15,5.17a21.32,21.32,0,0,0,.07-2.65s.06,0,.08,0c.18.92-.11,1.78,0,2.7h-.15C47.85,22.44,47.82,22.77,47.79,23.1Z"/><path class="cls-2" d="M50.79,23.1a.56.56,0,0,0,.15.35,16.28,16.28,0,0,0,.29-3.06,20.42,20.42,0,0,1-.2,3.15c.19.2.5.35.73.05v-.18a.33.33,0,0,1,.22,0c.11-.88.09-1.79.26-2.65a18.31,18.31,0,0,0-.19,2.66c.47-.79,1.24-7.69-.43-6.2h-.15c.08-.49-.28-.25-.46-.31-.3,1.71,0,3.46-.15,5.17a21.32,21.32,0,0,0,.07-2.65s.06,0,.08,0c.18.92-.11,1.78,0,2.7h-.15C50.85,22.44,50.82,22.77,50.79,23.1Z"/><path class="cls-2" d="M55.45,19.37c-.15-4.64-.65-2.9-.83,1.73h-.15c.08-4.63-.28-2.31-.46-2.89-.2,6.23,1.07,7.92-3.09,12.36.23,3.53.48,7.08.72,10.62a3.17,3.17,0,0,1,0-.54c0,.06.07.24.07-.07a8.29,8.29,0,0,1,.24,3.3c0-.73-.22-1.52-.3-2.25.07.95.13,1.91.2,2.86l-.12.43a5.8,5.8,0,0,1-1.2,1,4.35,4.35,0,0,0,.71,0c-.59.72-1.54.73-2.87-.7,0,.23,0,.46.07.68-.67-2-.39-4.38,0-6.8a31.66,31.66,0,0,0-.11,5.66c0-.27,0-.54,0-.82a3.54,3.54,0,0,0,.34,1,12.78,12.78,0,0,1-.2-3.15c.09-1.24.18-2.49.28-3.74,0-.17,0-.34,0-.5l0,.15c.05-.63.1-1.27.14-1.91a17.85,17.85,0,0,0,.19-3c0-.6.08-1.19.11-1.8h.14a1.89,1.89,0,0,0-.91-2c-3.7-1.13-1.22-6.53-2.09-9.25a7,7,0,0,0-.21-1.88c-.18-1.16-.43-1.74-.61.58-.07.66.18,2.31-.23,1.7,0,2.49-.15,4.9,0,7.38-.23-2.5,0-5-.07-7.5a21,21,0,0,0,.18,8.53c.68,1.54,3,1.27,2.36,3.18.32,4.93-2.34,11,0,15.32,1.88,1.24,5.36.92,5.72-1.66-.12-4.91-.71-9.91-1-14.84C57.14,29,55.13,23,55.45,19.37ZM49.14,30.79c0,.38,0,.77,0,1.16a7.25,7.25,0,0,0-.44-1.78ZM46.4,20.1c0,5.79-.92,5.74,1.18,8.64C45.15,27,46.28,23.26,46.4,20.1Zm0,9.1c.41.27.9.45,1.27.7A4.8,4.8,0,0,1,46.44,29.2Zm1.3,7.65c-.18,2.21-.37,4.45-.56,6.82.35-4.45.7-8.77,1-13.19C48.07,32.56,47.89,34.77,47.74,36.85Zm.73,9a1.35,1.35,0,0,0,.59.34A1.32,1.32,0,0,1,48.47,45.83Z"/><path class="cls-2" d="M49.38,31.27a48.37,48.37,0,0,1-.52,6.16C49.27,35,49.7,32.71,49.38,31.27Z"/><path class="cls-2" d="M50.55,45.88a2.07,2.07,0,0,1-1.82-1.06C49,45.92,49.55,46.43,50.55,45.88Z"/><path class="cls-2" d="M51.67,41.63l0-.44C51.65,41.34,51.65,41.48,51.67,41.63Z"/><path class="cls-2" d="M48.32,45.08l.07.07c0-.15,0-.31,0-.46C48.34,44.82,48.33,45,48.32,45.08Z"/><path class="cls-2" d="M10.47,46.31l-.11-.06C10.41,46.29,10.51,46.41,10.47,46.31Z"/><path class="cls-2" d="M10.38,46.14a1.56,1.56,0,0,1,.09.17l.18.11-.07-.16Z"/><path class="cls-2" d="M11.58,18.72l.23-.22Z"/><path class="cls-2" d="M11.16,19.16a6,6,0,0,1,.42-.44A6,6,0,0,0,11.16,19.16Z"/><path class="cls-2" d="M10,18.89c4.55-5.56,5.49-.75,5.47,5.84C16.05,20,15.19,11.34,10,18.89Z"/><path class="cls-2" d="M15.34,44.06c0,.3-.06.6-.09.89.82-2.71.51-7.43.23-11.65,0,.55,0,1.11,0,1.67A38.72,38.72,0,0,1,15.34,44.06Z"/><path class="cls-2" d="M10.65,46.42c.76,1.42,2.1,1.78,4.47-.2.05-.42.08-.85.13-1.27C14.6,47.08,13.25,48,10.65,46.42Z"/><path class="cls-2" d="M14.06,33.66c0-.21,0-.41,0-.61a25.38,25.38,0,0,0,0,4.22A25.47,25.47,0,0,1,14.06,33.66Z"/><path class="cls-2" d="M9.86,36.6c-.07,2.23-.43,7.25.72,9.66,2.87,1.77,4.21.49,4.76-2.2A85.86,85.86,0,0,0,15.52,35c-.08-1.24-.16-2.46-.24-3.62-.06,1.17-.13,2.32-.18,3.39.05-1.15.11-2.38.17-3.64A23.83,23.83,0,0,1,15.34,25h.1c0-6.88-1-11.88-5.7-5.23-.38,1.35-.43,3.48.54.65.08-.23.77-2.1.87-1.39,1.11-1.37,1.88-1.67,2.4-1.22a1.08,1.08,0,0,1,.43.65,7.23,7.23,0,0,1,.41,1.83,7.22,7.22,0,0,0-.32-1.41,9.62,9.62,0,0,1,0,2.14c-.36,1.2-.11,6.61,0,12,.14-2.55.4-5.67.48-8.43-.07,3-.33,6.42-.47,9,0,1.32,0,2.63,0,3.87,0-.08,0-.16-.05-.26,0,.1,0,.19.05.26,0,5.72-.53,10-2.55,6.9-.59-4,1.56-9.22-2-12,.43-2.83,1.62-17.06-.24-6.28l-.15,0c.55-4.52,0-2.31-.16-2.9.09,3.37-1.89,7.32-.59,10.43C9.38,34.52,10.13,35.16,9.86,36.6Z"/><path class="cls-2" d="M15.3,30.34c.07-1.61.12-3.24.13-4.8A20.57,20.57,0,0,0,15.3,30.34Z"/><path class="cls-2" d="M13.55,17.8c-.38-.22-1,0-1.74.7,1.16-1,1.86-.72,2.26.37a3.38,3.38,0,0,0-.09-.42A1.71,1.71,0,0,0,13.55,17.8Z"/><path class="cls-2" d="M15.3,30.34l0,.76c0,.08,0,.17,0,.25,0-.22,0-.45,0-.67S15.31,30.45,15.3,30.34Z"/><path class="cls-2" d="M15.43,25.54c0-.07,0-.15.05-.21,0,1.06-.06,2.11-.06,3.17.05-1.28.09-2.56.09-3.77a2.3,2.3,0,0,1,0,.26h0C15.44,25.17,15.44,25.36,15.43,25.54Z"/><path class="cls-2" d="M15.48,33.3c0-1.6-.06-3.2-.06-4.8,0,.73-.06,1.46-.1,2.18S15.42,32.39,15.48,33.3Z"/><path class="cls-2" d="M19.2,26.86a13.27,13.27,0,0,1,1.9-3,12.84,12.84,0,0,0-1.34,1.79A10,10,0,0,0,19.2,26.86Z"/><path class="cls-2" d="M21.27,39.34c.23.21.48.42.73.61a12.45,12.45,0,0,1-3.56-8.78c0,.11,0,.23,0,.34A12.7,12.7,0,0,0,21.27,39.34Z"/><path class="cls-2" d="M40.1,22.14c-1.16-.86,1.06,2.13,1.72,4.65l-.13,0c-.44-1-1.16-3.38-1.87-2.82C48,41.33,30.05,46,22,40a10.25,10.25,0,0,0,7.48,3c-.07,0-.28,0,.07.07a10.18,10.18,0,0,1-8.28-3.72,9,9,0,0,1-2.87-7.83,12.35,12.35,0,0,1,.8-4.65,12,12,0,0,0-1,6.75,11.21,11.21,0,0,1,1.52-8,10.84,10.84,0,0,1,3-3.6l0,0a13.23,13.23,0,0,0-1.75,1.76,13.55,13.55,0,0,1,5.18-3.56,14.17,14.17,0,0,1,9.94.75,11.8,11.8,0,0,0-4.11-1.57,13.27,13.27,0,0,1,7.14,2.92c.11-.93-3.49-2.13-3-2.49-10-5.54-22.21,4.9-18.47,15.6C14,24.64,26.43,14.29,36.4,19.87,25.6,12.7,11.29,27.52,18.92,38.75,29,54.36,52.7,35.89,40.1,22.14ZM18.36,34.21a1.16,1.16,0,0,1,0-.18A1.16,1.16,0,0,0,18.36,34.21Z"/><path class="cls-2" d="M18.44,31.17a19.32,19.32,0,0,1,3.09-7.78A11.11,11.11,0,0,0,18.44,31.17Z"/><path class="cls-2" d="M25.64,39.14c.45.15.87.26,1.29.38a8.7,8.7,0,0,1-1.43-.72C25.41,38.84,25.38,38.92,25.64,39.14Z"/><path class="cls-2" d="M35.1,39a10.5,10.5,0,0,1-4.94,1.16c14.56,1.59,6.94-19.84,7.48-12.84l-.13.07c-.58-1-.52-1-.94-.65C39,30.44,37.84,35.88,34.21,38a5.75,5.75,0,0,0,3-3.31s0,.1.07,0c-.85,3-4,4.16-6.83,4.36l-.29,0v-.09A11.31,11.31,0,0,1,26,37.8a6.87,6.87,0,0,0,.74.5c-1.52-.44-2.23-.7-1,.29,0,.1,0,.14-.13.18a7.91,7.91,0,0,0,1.83.88,18.85,18.85,0,0,0,2.41.47A10.65,10.65,0,0,0,35.1,39Zm.6-1.56a5.18,5.18,0,0,1-4.16,1.67A9.38,9.38,0,0,0,35.7,37.44Z"/><path class="cls-2" d="M34.21,38a8.83,8.83,0,0,1-3.07.89A6.64,6.64,0,0,0,34.21,38Z"/><path class="cls-2" d="M30.16,40.16l-.35,0a8.88,8.88,0,0,1-2.41-.47l-.47-.13A9.2,9.2,0,0,0,30.16,40.16Z"/></g></g></svg>