<svg xmlns="http://www.w3.org/2000/svg" viewBox="0 0 63.58 63.58"><defs><style>.cls-1{fill:none;}.cls-2{fill:#d16c0c;}</style></defs><g id="Layer_2" data-name="Layer 2"><g id="Layer_1-2" data-name="Layer 1"><rect class="cls-1" width="63.58" height="63.58"/><path class="cls-2" d="M25.35,24.32a2.13,2.13,0,0,0-.81.15c2.23.25,4.67.22,7,.29-2.37,0-4.93-.05-7.21-.2-.84.25-.37.86.32.73a.22.22,0,0,1,0,.22c2,.1,4.08.08,6.06.26-2-.14-4.05-.18-6.09-.19,1.74.45,17.3,1.27,14.18-.44V25c1.12.07.56-.29.7-.47-4-.3-7.91,0-11.82-.14,2.07.07,4,.11,6.07.07,0,0-.06.05,0,.07-2.1.18-4.06-.11-6.16,0v-.14Z"/><path class="cls-2" d="M55.68,29c0-.3,0-.58,0-.86,0,.14,0,.28,0,.43S55.66,28.81,55.68,29Z"/><path class="cls-2" d="M55,25.52l-.07-.11a.41.41,0,0,1,0,.09Z"/><path class="cls-2" d="M28.21,48.79c-2.6.05-4.65.11-6.28.1A49.54,49.54,0,0,0,28.21,48.79Z"/><path class="cls-2" d="M55.58,30.38s0-.14-.08,0a14.92,14.92,0,0,0-.06-3.57,1.39,1.39,0,0,0,.05-.39,7.46,7.46,0,0,1,.19,1.64c.25-2.14-.39-3.23-1.77-3.61a2.42,2.42,0,0,1,1.36,1.34,1.32,1.32,0,0,0-.28-.3l0,.09L55,25.5a6.63,6.63,0,0,0-3.42-1c1.44,0,2.74.09,3.37.87-.61-.92-1.74-1.33-3.76-.9H51v-.11a21.5,21.5,0,0,0-4.23.08,3.89,3.89,0,0,0,.81.15c-1.38.18-2,.48-.66.67.08.07,0,.15,0,.22,2.32.42,5.52-.59,7.32.62-1.8-1.18-5.08-.21-7.36-.55,1.59.64,4.85.13,6.9.39.5,1,.06,3.12.09,4.39-1.42.05-10.13-.27-5.6.9v.14c-1.55-.07-.78.29-1,.47,1.51,0,3,.21,4.55.14-.28.75-.65,2-1.07,3.56l-.14,0c1.11-4.66.24-2.4.19-3C49.65,37.73,48.33,43,47.24,48.21c-2.57.13-5.18.21-7.81.24a37,37,0,0,0-6.41,0h-.08c-1.54.09-3.14.22-4.73.32l2.32,0c-5.2.35-8.56.43-10.8.06.63,0,1.36.07,2.2.07a15.32,15.32,0,0,1-3.17-.48c4.42.06,8.78.06,13.18.05-4.44,0-8.89-.09-13.29-.09a4.94,4.94,0,0,1-2.6-1.59l-.06-.1.12,0c-.92-4-1.71-8.78-2.91-12.71,1.23,5.64,1.58,9.18,2.18,11.39-.87-2.61-1-6.8-2.83-13.31a13.79,13.79,0,0,0,3.33-.1c-1.12-.09-2.27-.14-3.44-.17l0,0c1.09.19,6.36.09,3.31-.61-.08-.07,0-.14,0-.22-1.89-.6-6.77,1.25-6.33-1.6-.39,2.84,4.52,1,6.37,1.53-4-1.27-7.15,2.1-6-4.75,1.41-.13,11.25.34,6.62-.93V25c1.55.07.77-.29,1-.47-2.73,0-5.68-.56-8.31.13,0,0,0,.05.09,0-1.87,2.06-1.79,8.55,2.51,7.2V32H12c-.1.54.86,3.09.27,2.57.3,1.07.55,2.07.75,3-.23-1-.5-2-.85-3.13C15.55,51.19,11.5,50.35,29.82,50c21.24.27,18.66,3,22.52-18,2.32.47,3.57-.93,3.34-3.06C55.66,29.42,55.62,29.89,55.58,30.38ZM8.4,28.13a5.62,5.62,0,0,0-.06.56A5,5,0,0,1,8.4,28.13Zm-.08,1.25a2.32,2.32,0,0,0,2.39,2.39C9,32,8.35,30.83,8.32,29.38Zm3.43,2.36.24,0v0Zm2.45,13c.53,2.95,1.35,4.49,4.74,5C15.23,49.33,14.65,47.91,14.2,44.74Zm25.74,3.72s-.13,0-.1,0l-.33,0ZM55.22,26a1.86,1.86,0,0,0-.1-.25A1.86,1.86,0,0,1,55.22,26Z"/><path class="cls-2" d="M33,48.46h0Z"/><path class="cls-2" d="M51.15,24.39a7.2,7.2,0,0,1,2.76.09A4.92,4.92,0,0,0,51.15,24.39Z"/><path class="cls-2" d="M11.53,32a3.74,3.74,0,0,1-.83.13A3.74,3.74,0,0,0,11.53,32Z"/><path class="cls-2" d="M10.7,32.14c-3.39.14-3.45-5.55-1.66-7.48l-.24.06C7.33,26.9,7.27,32.31,10.7,32.14Z"/><path class="cls-2" d="M9,24.66h0l0,0Z"/><path class="cls-2" d="M31.79,34.86h-.15c.07-.7-.29-.35-.47-.44-.3,2.46,0,4.94-.14,7.39.07-1.29.11-2.5.07-3.79,0,0,0,0,.07,0,.18,1.31-.1,2.54,0,3.85H31c0,.61-.23,1.34.08,1.91a35.15,35.15,0,0,0,.29-4.38,42,42,0,0,1-.2,4.51c.21.45.83.35.73-.2a.28.28,0,0,1,.22,0c.11-1.25.09-2.55.26-3.78a37,37,0,0,0-.19,3.8c.64-.85.17-3,.47-4.22C32.6,38.54,33.2,32.63,31.79,34.86Z"/><path class="cls-2" d="M37.49,43.67c0-1.76,2.36-10.17.23-8.82h-.14c.14-.7-.25-.38-.42-.49-.55,2.43-.52,4.95-.88,7.38.19-1.29.35-2.49.44-3.79,0,0,.05.05.08,0,0,1.33-.36,2.53-.39,3.85h-.14c0,.62-.37,1.32-.11,1.91a34.16,34.16,0,0,0,.72-4.34,38,38,0,0,1-.65,4.48c.17.48.79.44.75-.12a.34.34,0,0,1,.22,0c.23-1.24.34-2.54.63-3.76a37.22,37.22,0,0,0-.56,3.79A.15.15,0,0,0,37.49,43.67Z"/><path class="cls-2" d="M43.51,34.82c.22-.69-.21-.41-.37-.53-.78,2.4-1,4.94-1.61,7.36.32-1.28.6-2.48.82-3.78,0,0,0,.05.08,0-.09,1.35-.62,2.51-.78,3.85l-.14,0c-.08.62-.49,1.3-.3,1.92a33.71,33.71,0,0,0,1.16-4.31,39.79,39.79,0,0,1-1.1,4.46c.12.5.75.51.76-.06a.3.3,0,0,1,.21,0c.36-1.23.6-2.53,1-3.73-.38,1.24-.68,2.49-.94,3.77.65-.91,3.43-10.78,1.35-8.95Z"/><path class="cls-2" d="M27.17,43.68a.16.16,0,0,0,.2-.13c-.35-1.72.3-10.43-1.52-8.69l-.14,0c0-.71-.32-.32-.51-.39-.05,2.49.48,4.94.6,7.4-.06-1.3-.15-2.51-.31-3.8,0,0,.05,0,.07,0,.31,1.3.14,2.55.38,3.86H25.8c.1.61-.1,1.37.27,1.9a34.24,34.24,0,0,0-.15-4.4A40.67,40.67,0,0,1,26.17,44c.26.43.86.27.71-.27a.33.33,0,0,1,.22,0c0-1.26-.17-2.56-.12-3.81A37.58,37.58,0,0,0,27.17,43.68Z"/><path class="cls-2" d="M19.3,35.63c.42,2.16.92,4.21,1.27,6.34-.19-1.31-.4-2.52-.69-3.81,0,0,.06,0,.07,0,.44,1.28.4,2.56.77,3.85l-.14,0c.16.6,0,1.39.46,1.89a37.62,37.62,0,0,0-.59-4.43,42.67,42.67,0,0,1,.7,4.54c.3.42.88.19.68-.34a.33.33,0,0,1,.22,0c-.15-1.27-.43-2.56-.51-3.83a38.69,38.69,0,0,0,.58,3.84c.25-1.09-1-11.26-2.2-8.78l-.14,0c-.07-.72-.36-.3-.55-.35A3.54,3.54,0,0,1,19.3,35.63Z"/><path class="cls-2" d="M21.13,23.7c-.63,1.36-1.07,2.6-1.7,3.81-.08.88.66.66.8,0,.08,0,.14,0,.2.09.85-1.84,1.61-3.79,2.51-5.58-.89,1.85-1.68,3.72-2.46,5.63,1.08-1.48,7.66-15.73,4.92-13.46l-.14-.05c.49-1-.06-.63-.17-.83-1.76,3.6-3,7.41-4.56,11,.84-1.91,1.59-3.71,2.33-5.66,0,0,0,.08.08,0-.62,2-1.63,3.77-2.31,5.78l-.14-.05a11.86,11.86,0,0,0-1.07,2.89c1.07-2,2-4.3,2.9-6.46C22,21.74,21.56,22.81,21.13,23.7Z"/><path class="cls-2" d="M41.65,24.91c-.7-2-1.4-3.79-2.2-5.71,0,0,.07,0,.06,0,1,1.9,1.42,3.85,2.31,5.78l-.14,0a11.92,11.92,0,0,0,1.22,2.83c-.6-2.19-1.54-4.47-2.35-6.67.9,2.21,1.8,4.64,2.51,6.83.55.7.94,0,.56-.57.05-.08.13-.07.21-.07-.65-1.92-1.45-3.86-2-5.77.63,1.95,1.35,3.85,2.11,5.77-.25-1.81-5.3-16.67-5.73-13.13l-.13,0c-.35-1.08-.48-.42-.7-.48.31.68.41,1.46.71,2.15C39.29,19,40.52,21.88,41.65,24.91Z"/></g></g></svg>