<svg xmlns="http://www.w3.org/2000/svg" viewBox="0 0 63.58 63.58"><defs><style>.cls-1{fill:none;}.cls-2{fill:#d16c0c;}</style></defs><g id="Layer_2" data-name="Layer 2"><g id="Layer_1-2" data-name="Layer 1"><rect class="cls-1" width="63.58" height="63.58"/><path class="cls-2" d="M37.33,26.23c.78.49,1.56,1,2.36,1.43C38.89,27.2,38.11,26.71,37.33,26.23Z"/><path class="cls-2" d="M33,42.29a3.71,3.71,0,0,1,.55.22A3.71,3.71,0,0,0,33,42.29Z"/><path class="cls-2" d="M32.91,42.28h0Z"/><path class="cls-2" d="M33.5,42.51l.12.06Z"/><path class="cls-2" d="M33.62,42.57a3.47,3.47,0,0,1,.57.37A3.47,3.47,0,0,0,33.62,42.57Z"/><path class="cls-2" d="M50.11,34.26c.15-1-.17-4.57-.89-1.77h-.14a3.44,3.44,0,0,0,0-.46c.31-.08.34-.17.15-.27.15-.37-.63-.66-.95-.94,0,0,0-.05.06-.07-.32.06-1.41-.32-.88-.47-.34-.22-.86-.32-1.09-.6,2.26.9.47.38,0-.63l-.15.29c-4.32-2.87-13.31-5-13.61-10.36a18.79,18.79,0,0,1,9.18.34c.12-1.18-.12-7.3-.9-2.83h-.14c.07-1.78-.29-.89-.47-1.12,0,.43.06,1.73-.14,1.87v0a20.08,20.08,0,0,0-7.57,0c-.4-2,.66-2.15,2.41-2.15a14.66,14.66,0,0,0-2.44.31s0,1.49,0,1.91c.72-.14,1.45-.24,2.18-.31,0,0-.1.06,0,.07-.78.1-1.56.23-2.32.39-.2-2.69.36-2.22,2.7-2.52v.14c1.49-.15,3.16.23,4.63.18a16.74,16.74,0,0,0-7.39-.12,10.37,10.37,0,0,0-.12,2.28c.17-.65-.45-2.22.36-2.37,1.78-1,10.87,1.24,7.18-.84-2.63-.14-9.09-1.79-8.55,2.18a14.52,14.52,0,0,1,.11-2,21.67,21.67,0,0,1,8.49-.2c-1.95-1.09-6.08-.54-8.56,0-.65,1.19-.12,3.61-.34,5.2l.07,0a12.17,12.17,0,0,1,0,1.48A5.42,5.42,0,0,0,31,19.54s0,0,.07,0c.18.44-.11.85,0,1.29H31c0,.2-.19.47,0,.61-.15.34-1,1.8-1.14,1.13a76.36,76.36,0,0,1-14.16,7.59c4.09-1.75,12.17-5.58,13.67-7.6a84.4,84.4,0,0,1-15.44,8.08l0,.12h-.36c-.2,3.84-.85,12.63,3.08,4.46-.95,14.28-9.39,15.39,9.41,14.62h0c5.22.11,36.8-.06,15.33-.89V48.8c8.4.07,4.2-.29,5.25-.47q-5,0-9.95-.09c0-.39-.14-1.05.23-.76.91-4.48-4-8.31-8-5.93,4.08-2.44,8.89,1.51,8,6,2.23-9.16-13.15-8.92-10.93.65-16.68.23-8.22,1.34-7.66-13.56,1.46,1.58,2.53,6.21,4.87,1.23.7-.51,1.23-4.42,2.12-1.61,2.71,6.38,4.07,3.51,6.3-1,1.08.67,1.72,4.53,3.39,4.81,2,0,2.55-3.5,3.63-4.8.13-.3.76,1.35.83,1.34-2.2-4.86-2.44,11.13-7.69-1.4-1.31.82-2.37,7-4.81,4.07-1.86-2.58-1.68-6.46-3.82-1.41-.52.85-.88,2.32-2.14,2.14-1.57-.3-1.62-2.83-2.7-3.54-.16,1.23-.26,2.63-.48,3.87,0-.12,0-.46-.08.1.43-1.1-.09-3.76.78-4.1.8,1.72,2.65,5.6,4.14,2.19.43-.42,1.51-3.71,2.19-3.45.87,1.14,1.66,4.38,3.16,4.85,1.21.18,1.56-1.28,2.07-2.08.15-.05,1.45-3.25,1.74-2.72.4.73,1.76,3.34,2.18,4.11,3.26,3.72,3.8-8.11,5.89-2.14l-.13.07c1.81,4.64,3.7,3,5.19-.55a46.78,46.78,0,0,0,1.85,9.67,52.09,52.09,0,0,1-1.59-10.63s-.23.39-.3.49c-2.19,4.77-3.25,4.81-5.36,0-.2-.2-.71-2-1.14-1.1-3.12,6.37-3.43,6.07-6.47-.12-.85-.58-2.05,3.39-2.62,3.91-2.43,3.5-3.13-4.16-4.9-4,1.76-.1,2.78,7.94,5.08,3.58.53-.46,1.57-4.23,2.48-3.55,4.06,8.53,3.21,3.76,7,.07,1.15,1.44,1.43,4.46,3.39,4.83,1.17.23,3-5.77,2.93-3.7.55,4.83,1,11.06,3.74,15,.35.41-2.27-7-1.38-5.83a55.88,55.88,0,0,1-1.47-9.37,63.36,63.36,0,0,0,1.59,9.56c.17-1.3-1.24-6.36-1.27-8.91C48.21,39,50.55,40,50.11,34.26ZM30.58,41.91a4.19,4.19,0,0,1,3.9.9,4.4,4.4,0,0,0-6.11.54A4.48,4.48,0,0,1,30.58,41.91ZM27.71,47.3c-.52-3,2.1-6,5.2-5A4.16,4.16,0,0,0,27.66,47s-.06-.11-.08,0a4.27,4.27,0,0,1,6.81-4.14L34.3,43c1.5,1.06,1.38,3.09,1.59,4.65.19-1.74.11-3.64-1.37-4.83C36.27,44.16,36,46.29,36,48.23c-2.71-.06-5.6,0-8.29,0ZM48.47,34.51c0,.6-1.14-2-1.33-2.26h0v0a2.44,2.44,0,0,0,1.42-.08l-.17,0,.21,0C48.58,32.9,48.42,33.71,48.47,34.51ZM24,30.61l-6,0c1.89-.88,3.77-1.79,5.63-2.81a45.57,45.57,0,0,1-5.93,2.81,63.51,63.51,0,0,0,6.06-3l.07.12c1.8-1,3.62-2.06,5.37-3.22C27.55,26.53,26.08,29.3,24,30.61Zm-3.39.14c-1,0-2,.05-3,.05a14.26,14.26,0,0,1,3-.12S20.38,30.73,20.58,30.75Zm-3.35.06a.81.81,0,0,1,.48-.13A.83.83,0,0,1,17.23,30.81Zm-.45,0H16.7c.12,0,.22-.13.35-.12Zm.47,1.49a.71.71,0,0,0-.07.09l-.13-.07C17.09,32.26,17.19,32.3,17.25,32.29Zm14.45-9s0,0,0,0Zm5.78,8,.28.31c-.41-.07-.91-.12-1.49-.16v-.14C36.84,31.23,37.22,31.23,37.48,31.21Zm.81-1.53a39.37,39.37,0,0,1-4-5.41c1,.68,2,1.34,3.07,2-1.09-.69-2.19-1.38-3.23-2.14.45.81,1.07,1.67,1.6,2.43-.05,0-.14-.1,0,.07a23.34,23.34,0,0,1-1.78-2.77A49.4,49.4,0,0,0,40,27.65l-.07.12c1.81,1,3.67,2,5.59,2.9C43.2,30.17,39.86,31.61,38.29,29.68Zm7.55.83,0,.07h0l0-.07Zm.32.21h0v-.07S46.16,30.69,46.16,30.72Zm-.58-.24a84.2,84.2,0,0,1-11.92-7,84,84,0,0,0,12,7Zm-13.4-9.64a2.18,2.18,0,0,1,.15-.66Q32.24,20.51,32.18,20.84Zm-3.72,7.49a41.35,41.35,0,0,0,3.25-5,41.1,41.1,0,0,0,5.34,7.45c-3.48-.15-7-.14-10.47-.11C27.23,29.87,27.87,29.11,28.46,28.33Zm8.81,3.86.28,0c-2.74,4.81-1.7,5.3-4.47.08C34.59,32.26,36,32.25,37.27,32.19Zm4.63.06h2.72c-2.86,5.14-1.82,5.15-4.6,0Zm-7.7-9.61a70.07,70.07,0,0,0,11.89,6.91l0,.05a88.49,88.49,0,0,1-13.46-8A10,10,0,0,1,34.2,22.64ZM31.33,20a2.64,2.64,0,0,1-.17,1.15A9.12,9.12,0,0,0,31.33,20Zm-.09,1.56h0a3.43,3.43,0,0,1-.35.55Zm-1.71,2.31a70.51,70.51,0,0,1-12.45,6.76A85.11,85.11,0,0,0,29.53,23.87ZM14.25,30.69h0l0,.09h0Zm-.41.67c0,1.56-.07,2.6-.15,4.36.06-1.7.13-3.12.16-4.71h0Zm.92,1.23c0,.92,0,1.77-.07,2.69,0-1,0-2.06.07-3h0S14.77,32.57,14.76,32.59Zm1.26.35c-.33.6-.66,1.26-1,1.83,0-.65,0-2,0-2.48.06.68-.23,2.44,0,2.59-.38,1.31,0-2-.13-2.61h.13c.47,0,1,0,1.43,0A7.85,7.85,0,0,1,16,32.94Zm5.79,2.14c-.12.21-.44.81-.55,1C20.47,35,20,32.64,18.59,32.3c1.41,0,2.82,0,4.22,0v0h.53Zm5.35-.92-1-1.9c1.49,0,2.84,0,4.28,0C29.07,34,28.64,38.17,27.16,34.16Zm2,1c-.2.16-.69,1.84-1.1,1.18.86.39,2-3.53,2.71-4.12C30.71,32.3,29.19,35.11,29.15,35.18Zm7,.12c-1.23,3.69-2.43-2-3.43-3,3.13,5.91,2.06,5.19,5.16-.11C37.92,32.08,36.23,35.23,36.19,35.3Zm7.42-.65c-.41.49-1.23,3.26-1.87,1.45-.48-.86-1.58-3.06-2.08-3.86,3.13,5.7,2.12,5.66,5.24,0C44.83,32.38,43.68,34.5,43.61,34.65Zm2.61-1.4a.16.16,0,0,1,0-.09.25.25,0,0,1,0,.12Zm.28.6v0c.15.33.31.66.45,1C46.78,34.46,46.64,34.15,46.5,33.85Zm1-.15c-.22-.42-.58-1.1-.73-1.49.34.58,1,1.91,1.36,2.65Zm.84,1.19C47.88,34,47.46,33,47,32.21,47,32,48.91,35.54,48.33,34.89Z"/></g></g></svg>