<svg xmlns="http://www.w3.org/2000/svg" viewBox="0 0 63.58 63.58"><defs><style>.cls-1{fill:none;}.cls-2{fill:#d16c0c;}</style></defs><g id="Layer_2" data-name="Layer 2"><g id="Layer_1-2" data-name="Layer 1"><rect class="cls-1" width="63.58" height="63.58"/><path class="cls-2" d="M26.16,40.16c0,1.87,0,3.73,0,5.59C26.69,44.45,26.35,42.2,26.16,40.16Z"/><path class="cls-2" d="M30.49,53.82H17.09a.72.72,0,0,0,.64.06H31a.36.36,0,0,1,0-.09A1.94,1.94,0,0,1,30.49,53.82Z"/><path class="cls-2" d="M31.17,53.55c0,.08-.07.16-.1.23A.19.19,0,0,0,31.17,53.55Z"/><path class="cls-2" d="M16.8,53.45c0,.14.05.27.08.37h.21A.79.79,0,0,1,16.8,53.45Z"/><path class="cls-2" d="M31.66,26.05C25.51,21.88,28.54,15.17,27.5,9c-.05-.76-2-1.19-1.49-.74,2.45,1.21.4,4.63.89,7.45h-.14c.07-8.12-.29-4.06-.47-5.08,0,2.75,0,5.57-.07,8.37a26.92,26.92,0,0,0-4.4-.2c0-3.11,0-6.27-.1-9.33-.16,3.05-.08,6.25-.15,9.33h-.06c.07-3-.09-6.52.13-9.41a16,16,0,0,1,2.59-.24c5.15-.19-3.58-1.69-3.58.6,0,.24-.07.49-.09.74,0-.34-.06-.66-.1-.94-.26,2.52-.1,7.57-.13,11,.07,3.88-6.14,5.42-5.07,10.21,0,.32,0,.63.06.95a12.37,12.37,0,0,1,4-8l0,0,0,.05a12.32,12.32,0,0,0-4,8,70.84,70.84,0,0,1-.09,7.41c.28,4.39.84,8.88.16,12.7.66-3.79.12-8.22-.16-12.58-.29,5.51-.7,11.1.74,15.9,4.78.76,9.89.09,14.69.33,1.8.23,2.41-1.57,2.18-3C32.13,43.73,34.26,34.44,31.66,26.05Zm-6-6.85h.58v0A13.85,13.85,0,0,1,24.39,19C24.8,19.11,25.22,19.16,25.64,19.2Zm-.41.88c.34.05.66.06,1,.09v.06a18.73,18.73,0,0,0-2.13-.18A6.43,6.43,0,0,1,25.23,20.08Zm-3.67.28a1.48,1.48,0,0,0,0,.19,1.52,1.52,0,0,0,0-.21Zm-1-.85c-.06-1.55,0-3.43,0-5.23a25,25,0,0,1,0,6.59C20.58,20.42,20.56,20,20.56,19.51ZM26.16,36v1.34c0-.1,0-.21.06-.31s.05.13.07,0c-.5,2.25.89,6.9-.12,8.94v.25a2.28,2.28,0,0,1-.81.63h-.11a2.62,2.62,0,0,1-1.29.1v-.15a52.71,52.71,0,0,0-6.52.08,32.65,32.65,0,0,1,5.75.36c-1.91,0-4.29-.44-6.45-.21q0-4.2,0-8.41V35.28C18.65,35.75,26,34.61,26.16,36Zm-9.41-1.15v-.4a11,11,0,0,0,1.45.18v.15A4.47,4.47,0,0,0,16.75,34.88ZM26.17,46.5c0,.24-.23.32-.48.35a2,2,0,0,0,.48-.51Zm.35-4.74c.42,2,.33,3.29-.12,4.12A9,9,0,0,0,26.52,41.76Zm-9.77-6.88c-.2.1,0,.22,0,.36l0,0h0c0,3.94,0,7.85,0,11.76l-.08,0c0-2.16,0-4.31,0-6.47s0-4.07,0-6.12l.1,0Zm-.32,12.75v.25a2,2,0,0,0,0-.26Zm0-.52v-.34c0-4.2,0-8.28.05-12.35h0q0,6.34,0,12.68Zm.08-13.19h0V33.8A.53.53,0,0,1,16.47,33.92Zm0,15.77c0,1.21,0,2.42,0,3.61A10.61,10.61,0,0,1,16.42,49.69Zm.51,4.43.18.05H17Zm1.6.05a4.07,4.07,0,0,1,1.16,0Zm12.77-.41a.31.31,0,0,1-.14.18c-4.65.14-9.58,0-14.27,0-.81-1.64,0-4.35-.28-6.32l.09,0a2.66,2.66,0,0,1,.07.69,6.66,6.66,0,0,0,0-.68c.28,0,.94,0,.94,0s.05.15,0,.22c4.19-.37,11.17,2.33,9.86-4.35,1.38,6.71-5.76,4-9.93,4.42,5.62.19,11.51,2.85,10.21-5.86,1.53-10.49-3-8.38-11-8.24,0-1.31,0-2.64,0-3.89-.07,1.26-.06,2.58-.06,3.89h-.1c0-1.51,0-3.05.08-4.49l.14,0A3.45,3.45,0,0,1,17,28.28a6.47,6.47,0,0,0-.42.88,7.53,7.53,0,0,1,.14-.85c.31-1.8,1.92-2.83,3.2-4-.34.47-.7.93-1.07,1.39,1.57-1.45,3.41-2.7,2.92-5.25,1.27,0,2.47-.07,3.71,0a15.66,15.66,0,0,0-2.27-.07s0-.06,0-.08c.79-.18,1.52.11,2.31,0v.15l.65,0c-.9,4.28,5.08,5,4.86,9.11.23,7.93,0,16,.11,23.93v0c.26-.86-.09-2.09,0-3,0,.11.05.43.07-.11C31.28,51.55,31.34,52.66,31.3,53.76Z"/><path class="cls-2" d="M26.16,40.16V37.37A11.26,11.26,0,0,0,26.16,40.16Z"/><path class="cls-2" d="M17,28.28a17.61,17.61,0,0,1,1.85-2.61A5.86,5.86,0,0,0,17,28.28Z"/><path class="cls-2" d="M15.32,31.73v-.05a38.19,38.19,0,0,0-.09,7.58v-.12A38,38,0,0,1,15.32,31.73Z"/><path class="cls-2" d="M24.14,46.8a3,3,0,0,0,.73,0A2.22,2.22,0,0,0,24.14,46.8Z"/><path class="cls-2" d="M16.77,48.37v0Z"/><path class="cls-2" d="M16.77,48.5c0,1.48-.42,3.93,0,5A36.77,36.77,0,0,1,16.77,48.5Z"/><path class="cls-2" d="M24.87,46.8l.38,0a1.64,1.64,0,0,0,.92-.87v-.22A1.55,1.55,0,0,1,24.87,46.8Z"/><path class="cls-2" d="M37,37.11a.13.13,0,0,1,0,.06L37,37A.44.44,0,0,1,37,37.11Z"/><path class="cls-2" d="M37.31,35.38c.12-.54.24-1.08.38-1.63C37.56,34.29,37.43,34.84,37.31,35.38Z"/><path class="cls-2" d="M37,37c.09-.54.2-1.09.31-1.63C37.2,35.93,37.1,36.47,37,37Z"/><path class="cls-2" d="M43,29.23a4.73,4.73,0,0,0-3.77-.1C40.45,29.05,41.93,29.44,43,29.23Z"/><path class="cls-2" d="M37.4,30.16a2,2,0,0,1,1.76-1l.07,0a2.12,2.12,0,0,0-1.84,1c0,.2-.09.39-.14.59l0,0C37.32,30.52,37.36,30.33,37.4,30.16Z"/><path class="cls-2" d="M45.48,54.33a.84.84,0,0,0,.06-.14c.51.31.39-.13.54-.27a6.93,6.93,0,0,0-3.49-1.06,58.8,58.8,0,0,0,.19-6.5c12.39-1.36.8-25,3.8-14.28l-.14,0c-.29-.93-.26-1.58-.68-1.88-.09,0-.16.21-.27.18,3.64,7.5.81,13-2.53,14.29a5.23,5.23,0,0,0,.9-.29s-.13.11.06.06a7.63,7.63,0,0,1-1.28.34,3.71,3.71,0,0,1-2.44-.12,4.52,4.52,0,0,1-2.67-2.56,5.64,5.64,0,0,0,1.2,1.46C37.67,42.37,37,40.28,37,37.17a6.28,6.28,0,0,0-.24,1,12.34,12.34,0,0,1,.88-4.71l.14,0c.23-.89.48-1.78.73-2.68l.28-.35a42.55,42.55,0,0,0,4.45-.14c-1.36,0-2.91-.13-4.22-.11a.5.5,0,0,0,.07-.08c.82,0,8.56.31,5.06-.63-.5-.06-1.65.16-1.2-.22-1.08.19-2.56-.22-3.76-.13a5.29,5.29,0,0,0-1.89,1.53c-.94,3.79-2.73,8-1.15,11.74-1.62-3.77.21-7.93,1.13-11.72-3.53,4.48-2.84,15.23,4,15.65-.19,1.78.06,3.56-.06,5.32.07-1,.1-2,.07-3,0,0,.05,0,.07,0,.18,1.05-.11,2,0,3.08h-.14c0,.38-.06.77-.07,1.15a11.87,11.87,0,0,0-1.47.25,12.26,12.26,0,0,1,1.48-.21s0,.06,0,.09a4.61,4.61,0,0,0-1.5.27l0-.14c-.51.17-1.25.15-1.58.64a21.58,21.58,0,0,1,3.21-.58v0a14.36,14.36,0,0,0-3.29.69c-.14.27-.16.64.26.69l.2-.09a.37.37,0,0,1,.09.2,7.71,7.71,0,0,1,2.95-.51,6.57,6.57,0,0,0-2.58.45C40.92,54.13,47.14,55.78,45.48,54.33ZM38.13,31.4a26.92,26.92,0,0,0-1.65,6.91A15.61,15.61,0,0,1,38.13,31.4Zm-1.34,9.76a6.13,6.13,0,0,0,1.08,2.05A4.67,4.67,0,0,1,36.79,41.16Zm5.8,11.75.45,0S43,53,43,53c-.15,0-.3,0-.45,0A.31.31,0,0,0,42.59,52.91Zm-.07-2.73a23.43,23.43,0,0,0-.18,2.65h-.05C42.38,52,42.37,51,42.52,50.18Zm-.23,2.71h.05V53h-.06Zm-.95.32h-.11v0h.1Zm0-.21h-.09s0-.07,0-.1h.09A.31.31,0,0,0,41.36,53Zm0-.14h-.08a28.8,28.8,0,0,0,.23-3.1C41.56,50.77,41.43,51.87,41.37,52.86Z"/><path class="cls-2" d="M38.83,54.65a1.51,1.51,0,0,0-.36.13Z"/><path class="cls-2" d="M40.2,44.7a5,5,0,0,0,2.44.12l.32-.11a4.76,4.76,0,0,1-4.23-1.11A3.87,3.87,0,0,0,40.2,44.7Z"/></g></g></svg>