<svg xmlns="http://www.w3.org/2000/svg" viewBox="0 0 63.58 63.58"><defs><style>.cls-1{fill:none;}.cls-2{fill:#d16c0c;}</style></defs><g id="Layer_2" data-name="Layer 2"><g id="Layer_1-2" data-name="Layer 1"><rect class="cls-1" width="63.58" height="63.58"/><path class="cls-2" d="M54.94,17.73c-8.12-2.47-16.38-6.57-24.77-7.38-6.75,3.4-17.53,3.58-22.16,9-.91,2.68,2.9,4,4,3.47-1.67-.42-4.65-2.07-2.77-4.39l.08.12c-1,1,.14,4.13.91,2.66-.73-.05-.86-.59-.75-1.23.1-.27-.18-.92.17-1.05,6.83-2.13,13.63-4.49,20.39-6.78A42.21,42.21,0,0,1,41,14.6a91.64,91.64,0,0,1,11.34,3.81l-7.2-2.33c2.72,1,5.42,2,8.07,2.8a2.81,2.81,0,0,1,.83.7c-.1.73-.84,1.38-2,2l.52-.17c-.36.17-.78.35-1.27.53a39.56,39.56,0,0,1-5.44,1.77c-2.52.78-5.53,1.71-8.94,2.88l-.05-.14c-.24.14-.48.25-.72.37a29.84,29.84,0,0,1-7.77.44c-3-.77-6-2.24-8.85-3A30.17,30.17,0,0,0,26,26.91a25.33,25.33,0,0,1-8.52-3.28c2.11-.86,17.8-5.19,11.33-4.6l0-.14c2.14-.61,1-.61,1.18-.87-3.65,1.48-8.73,2-12.43,3.69A12,12,0,0,1,19,21.44s-.1.09.05.06a9.3,9.3,0,0,0-2.18.52A8.37,8.37,0,0,0,14,24.21l0,.06,0,0c-.06.07-.11.15-.16.22l0,.1a10.43,10.43,0,0,0-.68,6.38V31H13a42.72,42.72,0,0,0,.08,6.08c.08-.42.12-.84.16-1.28.14,1.95.4,2.82.66,1.06.07-.11.15-.05.22,0,.25-4-.23-7.94.46-11.87-.65,3.92-.23,8-.39,11.93,1.54-3.08-1.92-11.45,2.34-13,.61.43,4.24,1.33,3.26,1.47l.18.07a.12.12,0,0,0,0,.05c-.24-.12-.77-.19-.08.15a3.16,3.16,0,0,0-.12,1.1c-.07.09-.15,0-.22,0,.34,2.45-.73,5.57,0,8,3.88,7.84,20.83,3.58,14.61,3.56v-.15c1.84,0,.89-.33,1.1-.53-2.44-.14-6.48.2-9.71-.39s-5.73-2-5-5.57h.14a29.29,29.29,0,0,0-.08-5c.37,3.16-2,8.44,1.95,9.89-4.25-1.47-1.3-7.37-2.14-10.59,4.12,2,7.17,3,10.13,3.14a17.42,17.42,0,0,1-3.85-1,21.36,21.36,0,0,0,8.9.15,8.22,8.22,0,0,1-1.78.66A44.2,44.2,0,0,0,43.06,26c-.18,1.32.06,2.65-.06,4a15.8,15.8,0,0,0,.07-2.28s0,0,.07,0c.18.79-.11,1.52,0,2.31H43c0,.37-.23.84.08,1.14a12.67,12.67,0,0,0,.29-2.62,15.06,15.06,0,0,1-.2,2.7.49.49,0,0,0,.73,0v-.16a.41.41,0,0,1,.22,0,21.49,21.49,0,0,1,.26-2.28,13.52,13.52,0,0,0-.19,2.29c.67-1.29.57-4,.31-5.58C47,24.25,52.87,23.91,55,21.77l-.07.06a1.48,1.48,0,0,0,.26-.3.6.6,0,0,1-.09.13C55.87,20.74,56,19.5,54.94,17.73ZM13.16,30.22a14.56,14.56,0,0,1,.57-5.33A27.57,27.57,0,0,0,13.16,30.22Zm41.25-9.95c0,.6-.23,1.12-.94,1.15l-.22.08A1.82,1.82,0,0,0,54.41,20.27Zm-.62-1.68c-.39-.14-.89-.3-1.35-.45A12.56,12.56,0,0,1,53.79,18.59Zm.24.53v0Zm.07,1.16a4.87,4.87,0,0,0,0-.54A.64.64,0,0,1,54.1,20.28ZM20.24,25.64a.36.36,0,0,0-.07-.1l.39.21Zm9.92,1.95a20.66,20.66,0,0,0,4.92-.35A10.31,10.31,0,0,1,30.16,27.59Zm13-1.87-.12,0,.12-.05Zm-3.4.28c3-1,6.25-2.26,10.13-3.45a16.86,16.86,0,0,1,2.52-.74C48.07,23.34,43.88,24.92,39.73,26Zm4-.16h-.07l.1,0Zm9.37-3.28-9.57,3h0c3.61-1.16,7.24-2.29,10.86-3.43C54.35,22.19,53.16,22.54,53.12,22.56Zm2.26-1.92a1.62,1.62,0,0,1-.19.8A1.59,1.59,0,0,0,55.38,20.64Z"/><path class="cls-2" d="M30.48,29a9.27,9.27,0,0,0,3.27-.17A17.21,17.21,0,0,1,30.48,29Z"/><path class="cls-2" d="M20.62,31.76a3.55,3.55,0,0,0,2.15,4.55A4,4,0,0,1,20.62,31.76Z"/><path class="cls-2" d="M14,24.21A5.53,5.53,0,0,1,16.87,22l.64-.31a6,6,0,0,0-3.1,1.79,5.8,5.8,0,0,0-.4.73S14,24.22,14,24.21Z"/><path class="cls-2" d="M25.93,37.17a11.63,11.63,0,0,1-3.16-.86,9.55,9.55,0,0,0,2.69.88l.48.06C25.82,37.21,25.9,37.19,25.93,37.17Z"/><path class="cls-2" d="M20.78,36.71a3.91,3.91,0,0,1-1.31-2l0-.06A3.8,3.8,0,0,0,20.78,36.71Z"/><path class="cls-2" d="M19.43,26.71c-1.07,3.48-.9,6,0,7.93C18.77,32.25,19.84,29.12,19.43,26.71Z"/><path class="cls-2" d="M14.47,23.4A1.25,1.25,0,0,0,14,24a5.58,5.58,0,0,1,.37-.48A.53.53,0,0,1,14.47,23.4Z"/><path class="cls-2" d="M52.08,21.54q-4.24,1.38-8.54,2.75l2.35-.62C48.12,23,50,22.41,51.33,21.9,51.6,21.78,51.84,21.67,52.08,21.54Z"/><path class="cls-2" d="M13,30.81a12.27,12.27,0,0,1,.43-5.69A8,8,0,0,0,13,30.81Z"/><path class="cls-2" d="M43.54,24.29a31.11,31.11,0,0,0-6.14,2Z"/><path class="cls-2" d="M38.57,13.88c.43.16.16.11.06.1l6.51,2.1c-1.38-.51-2.76-1-4.14-1.48Z"/><path class="cls-2" d="M13.43,25.12a6.34,6.34,0,0,1,.42-.67A3.53,3.53,0,0,1,14,24,6.21,6.21,0,0,0,13.43,25.12Z"/><path class="cls-2" d="M55.06,21.66l-.1.11Z"/><path class="cls-2" d="M49,53.08a2,2,0,0,1-.56.14A1.71,1.71,0,0,0,49,53.08Z"/><path class="cls-2" d="M48.39,53.23h0a1.28,1.28,0,0,1-.34,0A1.82,1.82,0,0,0,48.39,53.23Z"/><path class="cls-2" d="M49.58,52.74l.51-.32-.82.5S49.54,52.76,49.58,52.74Z"/><path class="cls-2" d="M49.09,44.38c.58-.21,1.58-.06,2.17-.2C50,44,49.33,44.08,49.09,44.38Z"/><path class="cls-2" d="M49,44.42a1.17,1.17,0,0,1,0,.11,1.09,1.09,0,0,1,.08-.15Z"/><path class="cls-2" d="M43.78,47.42c.66,1.11,1.24,2.35,1.91,3.51A15.06,15.06,0,0,0,43.78,47.42Z"/><path class="cls-2" d="M38,46.4c-.19,3.44.51,4,1.65,3.45C38.27,50.32,38,48.63,38,46.4Z"/><path class="cls-2" d="M38,45.79v.61c0-.12,0-.23,0-.36S38,45.88,38,45.79Z"/><path class="cls-2" d="M50.86,43.13c-6.4-.61-1.11,3.7-.46,6.42-.68-2.72-6.13-7.06.58-6.48-8.16-1.55.59,5.58-1.07,7.69C45.2,55,47,39.25,39.7,47.93c0-5,0-9.43-.06-14.22,2.2,1,18.9,13.86,9.59,5.64l.09-.11c3.57,2.68,2,1.08,2.53,1.26C39.4,30.76,36.88,27.57,38,45.79c0-1.64.15-3.49.06-5,0,.07,0,.24.07-.06.48,4.46-1.82,13.69,4.66,6.23H43c-.32.37-.63.7-.91,1,.38-.33.76-.66,1.15-1a.63.63,0,0,1,.23.08.93.93,0,0,0-.19-.11,1.56,1.56,0,0,1,.2-.16l.27.44c1.95,1.52,2.73,8.58,6.6,4.85l.07.12C53.93,50.48,50,46.9,49,44.53a1.24,1.24,0,0,0,.14.86c-.07-.12-.15-.25-.21-.37-1.78-2.3,6.66.66,3.77-3.34C53.6,43.07,50.83,43.92,50.86,43.13Zm-1.06,8a1.55,1.55,0,0,0,.46-.41,1.39,1.39,0,0,1-.47.42c-4.1,3.73-3.95-9.77-8.45-4.44C45.83,41.36,45.71,54.88,49.8,51.16Zm.62-1.51a.11.11,0,0,1,0,.05A.11.11,0,0,0,50.42,49.65Zm-9.55-1a9.9,9.9,0,0,1,1.94-1.84C42.2,47.31,41.53,48,40.87,48.6Zm2.34-2c.43,0,.82.24,1.14,1.09A3,3,0,0,0,43.21,46.61Zm2.48,3.65c-.35-.71-.69-1.46-1.06-2.1A14.14,14.14,0,0,1,45.69,50.26Zm1.72,2.41a1.75,1.75,0,0,0,1.58.07,6.54,6.54,0,0,0,.64-.26A1.88,1.88,0,0,1,47.41,52.67Zm3.37-1c1.07-1.12.54-2.62-.32-4.14C51.43,49.11,52.25,50.77,50.78,51.71Z"/><path class="cls-2" d="M43.78,47.42a.64.64,0,0,0-.08-.14,1.17,1.17,0,0,0-.28-.17A1.74,1.74,0,0,1,43.78,47.42Z"/><path class="cls-2" d="M42,48a14.26,14.26,0,0,1-2.38,1.85A7.2,7.2,0,0,0,42,48Z"/><path class="cls-2" d="M47.11,52.93a10.89,10.89,0,0,1-1.42-2A5.69,5.69,0,0,0,47.11,52.93Z"/></g></g></svg>