<svg xmlns="http://www.w3.org/2000/svg" viewBox="0 0 63.58 63.58"><defs><style>.cls-1{fill:none;}.cls-2{fill:#d16c0c;}</style></defs><g id="Layer_2" data-name="Layer 2"><g id="Layer_1-2" data-name="Layer 1"><rect class="cls-1" width="63.58" height="63.58"/><path class="cls-2" d="M18.61,32.92l1.18,3.16a28.2,28.2,0,0,1,4-.17,22.2,22.2,0,0,0,3.78.13c7.52.37,16.87,1.18,19.6-1.2.47-3.75,9.54-16.45,3.19-17.15-8.73,0-18.5-.06-26.74.06-7.59.14-4.75.65,2.84.83v.14c-7.59-.07-3.79.29-4.74.47,5,0,10.13.17,15.17.14,3,.81,14.49-2.07,13.87,2q-2.6,6.52-5.17,13H43.72a35.46,35.46,0,0,0-4,0c-5.17.08-10.35.22-15.54.26a10,10,0,0,1-2-.56l-.45-.21-.21-.13c-.15-.09-.31-.17-.45-.27s-.32-.24-.47-.37l-.12-.1a5.48,5.48,0,0,1-.58-.6l.05.06-.14-.16h0l.09.11-.09-.11-.57-1.53c0-.15-.06-.3-.07-.45,0,.14,0,.27.05.4-.33-.9-.66-1.82-1-2.73-.45-1.3-.93-2.63-1.42-3.95s-1-2.84-1.57-4.26c-1.44-3.89-2.69-7.15-3.13-8.26-.69-1.78-7.89.2-4.1.38.95.06,3.71-.18,2.71.22,2.5,5.15,4.48,11,6.57,16.73,0,0,0,.05,0,.08-2.08-5.77-4.06-11.7-6.7-16.74.86,1.71,3.12,8.08,4.66,11.91q1.11,3,2.22,5.94A8.78,8.78,0,0,0,18.61,32.92ZM17.53,30l1.06,2.82A8.84,8.84,0,0,1,17.53,30ZM20,35.8c-.3-.71-.59-1.44-.87-2.17l0,.06c.28.7.55,1.4.84,2.09l3.16,0h.07Zm7.71-.66h.12l.63,0c.86,0,1.79,0,2.82,0-4.61.16-8.92.27-10.24-.1l-.38-.22s0,0,0,0l4.61,0C26,35,26.79,35.08,27.7,35.14Zm3.45.74h-.08l-7.78-.06h-.07ZM21,35.09a.69.69,0,0,1-.29-.16Zm2.94.83c1.12,0,2.33.06,3.6.12A23.4,23.4,0,0,1,23.9,35.92Zm7.28,0h.09l4.39,0Zm18-10.27c0,.1-.1.39.1-.07L45.8,34.33h-.13Zm-25,9h-.25a10.75,10.75,0,0,1-1.48-.46A11.77,11.77,0,0,0,24.18,34.63Zm-4.43-2.49,0,0h0l0,0Zm-2.42-3.3c.59,1.62,1.19,3.23,1.82,4.81l0-.06c-.61-1.54-1.19-3.1-1.76-4.68C17.34,28.88,17.33,28.86,17.33,28.84Z"/><path class="cls-2" d="M44.37,44.7a10.28,10.28,0,0,0,1.72-.15c-1.47-.08-3-.12-4.52-.16,6.35-.09,8-.55.78-.88a11.11,11.11,0,0,0,3.21-.28C37.08,43.05,28,42.9,19.38,43c-1.24-.18-.49-1.45-.19-2.21.82-2.23,0-1.62-1.12.48l-.13-.06c1-2.14.21-1.2.17-1.55-1.41,1.91-1.39,5.27,1.7,5,6.57,0,13.06-.07,19.64,0-4.29-.14-8.84,0-12.87-.14C32.73,44.3,38.31,44.59,44.37,44.7ZM38.1,43.36c-1.48,0-3.15-.08-5.05-.11C34.48,43.2,36.29,43.27,38.1,43.36Z"/><path class="cls-2" d="M21.16,47.83a1.49,1.49,0,0,0-1,1A2.06,2.06,0,0,1,21.16,47.83Z"/><path class="cls-2" d="M24,50.38c.32-.75.07-.61-.29-.68-.7,2.51-3.47,1.31-3.65-.22a2.22,2.22,0,0,0,.41,1.24c-2-2.33,2-4.49,3.13-1.78-.24-2.13-3.66-1.91-3.85.24.11-2.23,3.66-2.35,3.95-.26,0,.35.61.9.75.12.3-1.9-2-2.92-3.76-2.36a1.84,1.84,0,0,1,.25-.09h0c.1,0,.2,0,.3-.06a3,3,0,0,1,3.39,2c.37-.13,0-.77-.33-1.16C22,44.35,17,47.62,18.81,51c1.29,3.34,7.6,1.34,6-1.57C24.59,49.41,24.42,50.42,24,50.38Zm-3.85-3.47a1.82,1.82,0,0,1,.31-.16l-.05,0A1.26,1.26,0,0,0,20.17,46.91Zm-.26.16L20,47Zm.68-.37.22-.08Z"/><path class="cls-2" d="M20.08,49.48a2.11,2.11,0,0,1,.1-.66A1.27,1.27,0,0,0,20.08,49.48Z"/><path class="cls-2" d="M45.58,50.57a.66.66,0,0,1-.14.15Z"/><path class="cls-2" d="M45.44,50.72v0Z"/><path class="cls-2" d="M45.18,46.23c-1.48-1-5,1.81-1.91.91,0,0,0,.1,0,.14-.49.17-.54.35-.49.43,2.63-.45,3.59,1.5,2.91,2.65a2.19,2.19,0,0,0,.32-.82c-.21,3.08-4.56,1.79-3.47-1-1.22,1.48.82,3.69,2.52,2.76-1.75,1-3.75-1.34-2.61-2.82.22-.28.21-1.07-.45-.62-1.55,1.14-.65,3.47,1,4.33a1.28,1.28,0,0,1-.24-.11h0a2.2,2.2,0,0,1-.25-.17,3,3,0,0,1-1-3.85c0-.07-.13-.1-.28.1-1.47,2.78,2.18,5.91,4.79,4.07C48.51,50.85,47.79,47,45.18,46.23Zm-1.59,6.23-.33-.11h.06Zm.3.06h0Zm-.75-.22-.21-.1Z"/><path class="cls-2" d="M45.74,50.36l-.16.21A1.66,1.66,0,0,0,45.74,50.36Z"/><path class="cls-2" d="M43.54,51.11a1.61,1.61,0,0,0,1.89-.37A2.24,2.24,0,0,1,43.54,51.11Z"/><path class="cls-2" d="M25,28.92c.05.32.1.64.12.94V29.8c0-.13,0-.27,0-.4S25,29.1,25,28.92Z"/><path class="cls-2" d="M26.82,31.48c-.18-.84-1.23-12.35-2.33-9-1.47-1.59,0,4,.48,6.42a27.14,27.14,0,0,1-.47-3,14,14,0,0,1,.55,3.51,2.31,2.31,0,0,1,0,.4,8,8,0,0,0,.46,2.09c0-.51-.06-1-.12-1.54.48,2.23,1.05,2.56.94.1C26.45,31,26.57,31.43,26.82,31.48Zm-.6-2.77c0-.33-.09-.68-.14-1.06A7.44,7.44,0,0,1,26.22,28.71Z"/><path class="cls-2" d="M39.92,28.47c-.07.33-.15.65-.24,1A4.31,4.31,0,0,0,39.92,28.47Z"/><path class="cls-2" d="M39.67,29.48c-.5,2.33-.2,1.65.18.35-.43,2.6.16,3,1.13-.46-.83,3.42,0,1.86.77-2,.1-.84,1.78-7.17,0-4.9-.84-1.88-1.39,3.6-1.82,6a27.07,27.07,0,0,1,.62-2.9A15.2,15.2,0,0,1,39.67,29.48Z"/><path class="cls-2" d="M32.67,29.81c.08,2,.57,2.26.9.07,0,.53,0,.95.25,1,.07-1.89.37-4.06.25-6-.1-1.08.38-4.33-1-2.45-.9-1.84-.55,4.4-.58,6.27.06-1.1,0-2.31.11-3.23a28.27,28.27,0,0,1-.22,5.08C32.52,31,32.61,30.56,32.67,29.81Zm1.07-1.54q0-.43.06-.93A6.9,6.9,0,0,1,33.74,28.27Z"/><path class="cls-2" d="M32.45,28.72c0,.15,0,.3,0,.44A3.43,3.43,0,0,0,32.45,28.72Z"/></g></g></svg>