<svg xmlns="http://www.w3.org/2000/svg" viewBox="0 0 506.05 200.63"><defs><style>.cls-1{fill:#3d1f17;}.cls-2{fill:#d16c0c;}</style></defs><g id="Layer_2" data-name="Layer 2"><g id="Layer_1-2" data-name="Layer 1"><path class="cls-1" d="M112.21,55.48l-.3,0-.42-.31,0-.66,0-.91.22-.94.06-.31v-.65l.06-.27v-.61l0-.3.16-.63,0-.31-.07-.34.13-.93,0-.35.09-.53.07-.66.06-.31,0-.31,0-.57.07-.27v-.61l.18-.45-.13-.43,0-.3.06-.32.16-.62.12-.67.06-.31-.11-.29.17-.54.06-.27,0-.61.09-.44,0-.39.06-.31.15-.28,0-.3.06-.27.08-.66-.07-.3.17-.5,0-.43.07-.22,0-.35,0-.31.06-.31.16-.71,0-.27,0-.26,0-.3,0-.26.08-.58.06-.31,0-.66,0-.7-2.34.21h-.61l-.3.07-.39,0h-.44l-.35,0-.4-.1-.16-.38,0-.52.1-.36,0-.35-.07-.3.12-.62.06-.27v-.61l.13-.58.11-.27-.06-.61,0-.26.18-.5.36-.33L110,25l1.13-.1.22,0,.3,0,.3-.07,3.21-.29.31,0,1-.08,2.77-.29h.66l.9-.12h.4l2.68-.23h.62l.39.05.12.34,0,.26v.31l-.06.35,0,.31,0,.26-.06.31,0,.26,0,.53-.06.31,0,.26v.53l-.13.58-.06.31v.61l-.14.4-.42.09h-.4l-.52,0-.39.08-.43,0-1.82.11-.39.08-.06.31.07.26-.11.31,0,.26-.07.27,0,.57v.31l-.11.79-.14.37.1.21-.16.62-.12.58,0,.26v.53l0,.26,0,.3-.17.54,0,.66-.06.31-.08.62-.11.27,0,.3v.57l-.08.53-.15.32v.61l-.06.27,0,.26-.08.62-.07.66,0,.4,0,.43,0,.27-.07.26v.31l-.13.54,0,.3,0,.27.07.3-.08.61-.07.71-.12.58,0,.31-.08.57-.13.93-.06.35-.08.62.08.35-.14,1-.15,1.24,0,.61-.07.62-.07.27-.5.26-3.77.33-.51.17Z"/><path class="cls-1" d="M138.53,53.17l-1.17.11h-.48l-.31,0h-.3l-.3-.37v-.75l.06-.39.14-.32-.05-.61.09-.93,0-.3,0-.31,0-.3v-.57l.07-.23V47.6l.08-.66v-.83l.15-1.32.13-.49.05-.45-.05-.52.08-.61.06-.31,0-.62,0-.3,0-.53-.39.08-.3,0-.4-.05-1.38.25-.66-.07-.74,0,0,.22,0,.35-.12.62,0,.57-.15.32.06.74-.06.31-.13,1-.17,1,.06.26-.17.54,0,.22-.13.58,0,.66-.15,1.23v.35l-.08.62,0,.31,0,.61-.05.35,0,.31,0,.66-.18.45-.33.21-.39.07-.51.09-.65.15-.34,0-.32-.11-.3.07-.29.12-.53,0-1.39.13h-.87l-.22-.47,0-.34.14-.41.17-.58v-.44l.06-.4,0-.3.06-.27-.11-.29.22-.5.06-.31-.07-.35.12-.62-.1-.6L126,48l.13-.41,0-.3,0-.35.08-.62,0-.35.09-1.54.06-.27,0-.26.06-.36-.07-.3.12-.62V42l.1-.45,0-.53,0-.3,0-.66.1-.31.1-.36,0-.35.12-.62.11-1.28,0-.26,0-.62v-.61l.21-.63,0-.3v-.61l.09-.93,0-.57.06-.35,0-.93,0-.22,0-.6.14-.37v-.35l0-.26.08-.58-.08-.91.25-.59-.1-.6.06-.31,0-.31.1-.31-.07-.35.06-.31.08-.57v-1l.37-.25,1.09-.09,1.77-.2H132l.95-.08.43-.17.52,0,.44.05.13.38,0,.26.07.3-.09.53,0,.27v.61l-.09.4v.39l-.1.84,0,.62v.52l-.1.31.06.7-.06.31-.05.35v.57l-.07.23v.52l0,.26-.07.22-.06.36v.31l-.11.27.07.3-.08.57-.06.31.07.26-.06.35,0,.27-.06.35.31,0,.35,0,1.26-.07.34-.07h.53l.34-.08.91,0,0-.23,0-.48.14-.4,0-.31,0-.31.16-.66L137.9,32l.17-.58,0-.26,0-.31v-.35l0-.31.06-.27,0-.3.08-.57v-.57l.14-.41,0-.52-.07-.34,0-.31.12-.62,0-.35.08-.57.06-.27,0-.57,0-.27.14-.4.06-.31-.07-.3,0-.26.31-.42.26-.07.38-.08,1.56-.14.87,0,1.22-.1.7,0,.31.11.34.36,0,.26.07.3-.15.28.06.17,0,.26,0,.31-.13.53v.61l0,.35,0,.3-.06.32-.06.35v.57l0,.3,0,.57,0,.31-.08.57,0,.31-.05.31,0,.35,0,.57,0,.27-.17.54,0,.26,0,.57,0,.7v.66l-.16.62v.66l0,.26-.07.62,0,.31-.15.27,0,.35.11.3-.11.27v.3l.05.57,0,.31-.17.58,0,.31-.1.79,0,.26,0,.49-.08.61-.06.31.07.26L143,43l.06.26-.06.31-.06.27,0,.31-.08.61,0,.35v.31l-.08.62-.09.49-.06.26v.61l0,.7-.08.62,0,.31,0,.57-.06.31v.48l0,.53-.11.23v.35l-.06.31,0,.34-.06.32-.15.27-.51.18-.65.05-.26.07-.56.09-.87.08-.34.07Z"/><path class="cls-1" d="M151.49,52l-1.13.1-.3,0-2.3.2-.4,0-.16-.38.09-.4.05-.4,0-.65,0-.71.12-.66,0-.7.1-.36,0-.39.06-.31,0-.3.06-.36v-.91l0-.58.14-.36,0-.7,0-.3.06-.36,0-.57,0-.21.13-.54-.07-.26.08-.57.1-.32,0-.3.07-.67.06-.31.1-.92-.06-.65.12-.62,0-.66.1-.32,0-.35v-.3l0-.31.15-.27L148.9,34l.1-.36.06-.31L149,33l.07-.62.12-.67-.06-1.21.1-.32,0-.91.15-.28.05-.35,0-.31-.07-.26,0-.3.12-.58,0-.62.11-.27,0-.3.1-.32-.06-.25.06-.31v-.57l.06-.27,0-.26v-.57l0-.26-.11-.3.08-.53.11-.27,0-.27.32-.29.74-.06.26-.07.3,0,.52-.09.3,0,.35,0,.44,0,1-.13,3.24-.33,1,0h.35l1.25-.15.95-.08.39-.08h.83l.24.29-.08.49,0,.26v1.09l0,.26-.1.31,0,.31,0,.26-.07.67,0,.34-.12.62,0,.27-.09.57-.43.08-1.82.16-.51.09-2.82.25-1,.13-.08.54,0,.3,0,.61-.1.27,0,.35-.06.83,0,.62-.08.62-.06.31.07.34-.09.44,0,.79.78-.07,1.52-.09.82-.15,1.13-.1.35,0,.29.33,0,.53,0,.34,0,.49-.08.62-.06.31-.07.66,0,.3-.1.36,0,.61-.07.71,0,.61-.08.1-.44,0-.64.1-.39,0-1.08.14-.74,0-.48,0-.56.09-.39,0-.13.49-.08.58-.07,1.22-.09.45-.06.4v.43L154,43l-.06.79-.08,1.14,0,.35.19.15.62,0,2.55-.23h.61l1,0,1.21-.15.32.11,0,.35,0,.18-.05.48v.35l-.09,1,0,.56-.06.31-.07.27v.31l-.08.66,0,.74-.05.4-.09.49-4.12.36-.69.1h-.56l-.26.06-.91.08-.69.11-.34.07Z"/><path class="cls-1" d="M173.54,49.94l-.19-.25-.07-.3-.07-.25,0-.27.14-.45.09-.44,0-.31,0-.26.12-.58-.06-.65.13-.58,0-.3,0-.27,0-.57.05-.4,0-.52.16-.62.07-.27.1-.32-.07-.25.08-.58.11-.31,0-.26,0-.27,0-.61.06-.27-.05-.61,0-.26,0-.31,0-.26.12-.62,0-.3.16-.63.06-1.31.12-.63,0-.21.16-1.24,0-.57,0-.53.17-.58v-.35l-.05-.61.17-.58,0-.3,0-.53.05-.92-.07-.35.1-.36.12-.62.06-.35-.12-.3.06-.35v-.57l.05-.48.15-.28,0-.3,0-.31,0-.26.14-.32v-.7l.07-.7.12-.54v-.52l0-.3.07-.27.14-.89.11-.27.68-.15,1-.09,1.61-.09,1.69-.15.87,0,.18.5,0,.31,0,.31-.17,1.06,0,.3-.07.27-.05.92,0,.49-.05.44L181.67,25l-.07.62,0,.35-.12.62,0,.62-.14.31.11.34-.05.36,0,.31-.06.31-.08.62-.08.57-.14.32.07.34L181,31l0,.35-.05.92-.06.31.05.61-.06.31-.07.66,0,.31-.11.71v.65l-.07.62,0,.35v.31l-.12.71,0,.3-.06.35v.62l-.12.57v.57l0,.4,0,.43,0,.31,0,.26-.06.31v.49l-.05.44,0,.43.24.2.43,0h.39l2.26-.2.95-.12,1.12-.1.28.1v.66l-.06.31.07.3-.1.36-.08,1.53-.11.32,0,.3,0,.27,0,.65-.11.71-.32.34-.83.07-.55.13-1,.22-.78,0-.65.1-.61,0-.86.12-3.56.31-.43.08-1.21.11-.31,0-.56.09Z"/><path class="cls-1" d="M196.2,48.7l-.56.09-.31,0h-.39l-1-.21-.35,0-.66-.11-.32-.15-.64-.34-.84-.58-.67-.64-.15-.2-.23-.2-.16-.25-.24-.28-.4-.54,0-.26-.16-.29-.06-.26-.11-.21-.11-.25-.07-.3-.11-.25-.09-.6-.07-.26-.2-.86.06-.31-.08-.82.1-.45-.08-.34,0-.3v-1l.12-.62,0-.35,0-.62,0-.3.12-.62-.11-.21,0-.57.06-.31.06-.8.08-.53-.05-.56.09-.53,0-.31.11-.27.06-.31,0-.26.06-.31-.07-.26.22-.45L189,30l0-.61,0-.53.11-.31,0-.27,0-.61.08-1.1.19-.32,0-.57.21-.59.1-.31.13-.54.16-.63.22-.54.14-.32.34-.6,0-.3.15-.28.3-.59.3-.55.29-.25.19-.28.55-.7.53-.44.33-.16.29-.24.49-.35.5-.31.63-.23.26-.06.64-.23.43-.08.76-.2.61-.1.51-.09.79,0,.26,0h.48l.7,0,.36.1h.35l.27.06.68.25.82.45.37.19.24.24.51.35.51.39.24.24.16.29.31.54.15.25.11.25.12.3.18.64.16.81.08.35,0,.3v.57l0,.26.09.56,0,.31V25l-.06.31,0,.27.07.3,0,.43,0,.27,0,.61v.65l0,.7-.06.31,0,.7.08.43-.17.5.08.52-.12.57,0,.58-.08.57v.52l-.09.58-.1.27-.07.79,0,.39-.06.31,0,.62-.11.27-.3,1.56.06.25-.17.54-.11.27v.48l-.17.5-.09.53,0,.3-.09.49-.19.32v.44l-.25.64-.28.81L204,44l-.34.6-.15.27-.2.28-.06.27-.48.56-.24.24-.19.28-.49.44-.49.39-.16.15-1,.47L200,48l-.34.12-.6.18-.3.07-.46.18-.95.21Zm.84-5.89.59-.22.37-.21.57-.49.25-.63.21-.63.06-.31,0-.35.07-.66.06-.31,0-.62.1-.35v-.61l.1-.32.08-.57v-.35l.11-.28,0-.34-.06-.13.1-.4.07-.66v-1l.1-.4.1-.36v-.83l.11-.27-.11-.73.12-.67,0-.53.06-.35.06-.31-.07-.3V28l.06-.35.07-.62.06-.4-.05-.56,0-.79v-.57l0-.61-.25-.85-.19-.25-.34-.36-.72-.25-.82.12-.34.12L197,23l-.4.43-.26.5-.13.53-.15.32-.21.59-.06.31-.05.36-.18.93v.44l-.07.61,0,.27-.12.62-.07.62-.07.7,0,.31-.06.31,0,.66-.1.36-.11.71-.06.31,0,.61,0,.31,0,.3.08.35-.11.31-.16.63.07.34-.06.31.06.17-.05.4,0,.34-.06.32,0,.34-.07.66,0,.31-.1.31.16.29v.53l-.14.45.16.29.11,1.21.15.3.11.16.29.37.24.2.35.1.36.05.26,0Z"/><path class="cls-1" d="M217,46.79l-.31,0-.31,0h-.83l-.26,0h-.44l-.31-.06-.26,0-.59-.17-.53-.12-.28-.2-.46-.22-.23-.15-.27-.15-.6-.39-.2-.2-.23-.2-.36-.58-.44-.53-.18-.55-.11-.25-.13-.56-.12-.29-.07-.83-.07-.34,0-.39,0-.31-.1-1.13,0-.91,0-.35v-.61l0-.62,0-.3,0-.26v-.92l.12-.62-.07-.39,0-.35.09-.49-.06-.22.06-.79.15-.27-.05-.61,0-.13,0-.18.09-.49.05-.48.09-.44v-.53l0-.26.11-.27-.05-.61.14-.88.06-.31.05-.49V25.9l.11-.27v-.3l.06-.32,0-.26v-.31l.11-.31.08-.58.22-.89.19-.89.12-.62.19-.76.18-.54.2-.63.13-.49.28-.29.27-.46.31-.46.55-.66.24-.24.55-.31.24-.16.88-.46.73-.2.55-.18.3-.07.65-.06.82-.11.69-.06,1.1,0,.4.1.43,0,.62,0,.26,0,.31.06h.31l.18.12.49,0,.62.17.6.38.52.39.11.21.25.37.15.21.11.29.25.42.13.47.09.51.09.56.08.39.1.65.08.95v.44l-.06.35,0,.66,0,.7-.12,1.71-.05.36-.12,1.15-.16.18L225,27l-.61.1-2.73.19-1.28-.06-.34-.45,0-.61.06-.31.1-.79,0-.62.17-1v-.57l0-.62-.06-.65-.33-.75-.5-.22-.62-.12-.47,0-.52.13-.46.22-.35.51-.1.27-.11.31-.11.76-.16.58-.2.76,0,.26-.12.53-.08.67-.08.53-.1.4,0,.31,0,.26-.06.31,0,.62-.16.67-.19,1.76,0,.35-.11.71,0,.31,0,.57-.06.35-.07.66.08.91-.11.32v.31l0,.34,0,.31-.06.31.07.3,0,.92,0,.35-.08.62v.61l0,.43.07.26,0,.3.23.64.38.27.66.16.69-.15.65,0,.57-.45.16-.23.28-.81.16-.63.12-.57,0-.27,0-.22.08-.53.08-.66.05-.4,0-.31.16-.58,0-.44.28-.37.34-.08,1.13,0,.91-.08,2.14-.06H225l.33.28.2.28,0,.48-.06.27,0,.3,0,.57v.48l-.07.23,0,.31,0,.17-.05.92-.06.27-.17,1.11L225,40l0,.31-.06.31-.11.27-.2.72-.17.54-.1.31-.15.28L224,43l-.11.28-.07.26-.58.84-.6.62-.65.5-.3.15-1.1.36-.51.18-.51.13-.55.18-.66,0-.55.1-.43.12Z"/><path class="cls-1" d="M230.1,45.21l-.31,0-3.17.23-.4-.05-.11-.34.06-.31,0-.26.21-.55.3-.59L227,42l.21-.54.18-.54.38-1.08.13-.58.27-.81.07-.27.19-.32.17-.54.06-.27,0-.31.11-.27.16-.58.11-.32.25-.63.06-.31.05-.4.19-.36.21-.55.06-.31.21-.63,0-.26.1-.32.11-.27.16-.62.11-.28.24-1.24L231,29l.26-.59.15-.75.22-.5.1-.27.09-.58L232,26l.08-.58.06-.22.21-.59.08-.62.19-.32.15-.27.27-.94.17-.59.1-.27.23-.41.09-.45.11-.31.32-.82.06-.31.11-.27.06-.27.06-.31.22-.5.15-.27.07-.23.19-.8.25-.59.32-.81.11-.32.11-.27.13-.49.3-.07.43,0,.83,0,.43-.08.69-.06.82-.12.39,0,.31.06.39-.08.69-.06.23.07.32.19.29,1.85.09,1,.1.25.07.78.18,1.56.06.6.09.56.16.86.05.61.1.65v.3l.08,1,.14.6.08.86.09.61,0,.26.1.56,0,.26.1.69.13.47.15,1.69.09.52.07.34L244,32l.22,2,0,.3.1.65v.65l.1.61,0,.3.23,1.64,0,.26.09.56.07.3.06.65v.61l.07.35,0,.39.13.95.08.91c.06.17.14.55-.07.7a1.54,1.54,0,0,1-.48,0l-.3.08-.35,0-.6.06-.95.12-.35,0h-.52l-.3.07-.43.09h-.57l-.65.06-.19-.12-.12-.42-.11-.78-.08-.43v-.44l-.18-2-.07-.35-1,0-.7,0-1.91.12-1.17.1-.18.5-.25.59-.06.31-.1.32-.13.53-.36.86-.21.68-.08.48-.12.23-.14.32-.25.2-1.22.06-.34.07ZM238.29,34l.24-.24v-.61l-.07-.35v-.35l-.1-1.13,0-.3-.06-.74.05-.35-.13-1-.1-1.65-.1-1.57-.13-1-.33.16-.13.58-.15.71-.09.45-.16.71-.14.36-.14.45,0,.31-.14.32-.1.4-.1.31-.1.4-.17,1,0,.31-.16.67-.15.32-.15.75-.06.31,0,.4-.11.32.33.23.35,0H237Z"/><path class="cls-1" d="M248.11,43.41l-.19-.24-.07-.3-.07-.26,0-.26.14-.45.09-.45,0-.3,0-.27.12-.58-.06-.65.13-.58,0-.3,0-.26,0-.57.05-.4,0-.52.16-.63.07-.27.1-.31-.07-.26.08-.57.11-.32,0-.26,0-.26,0-.62.06-.26-.05-.61,0-.26,0-.31,0-.26.12-.62,0-.31.16-.62.06-1.32.12-.62,0-.22.16-1.23,0-.57.05-.53.16-.59,0-.35-.06-.6.17-.59,0-.3,0-.53.05-.92-.07-.34.1-.36.12-.62.06-.36-.12-.29.06-.36V19l.05-.49.15-.27,0-.31,0-.3,0-.26.14-.32v-.7l.07-.71.12-.53V14.6l0-.31.06-.27.14-.88.11-.27.68-.15,1-.09,1.61-.1,1.69-.15.87,0,.18.51,0,.31,0,.3-.17,1.06,0,.31-.07.26-.05.93,0,.48-.05.44-.22,1.55-.07.62,0,.34-.12.63,0,.61-.14.32.11.34,0,.35,0,.31-.06.31-.08.62-.08.57-.14.32.07.35-.06.31,0,.34-.05.93-.06.31.05.61-.06.31-.07.66,0,.3-.11.71v.66l-.07.62,0,.35v.3l-.12.71,0,.31-.06.35v.61l-.12.58v.57l-.06.39,0,.44,0,.31,0,.26-.06.31v.48l-.05.44,0,.44.24.19.43,0h.39l2.26-.2,1-.13,1.13-.1.27.11v.65l-.06.31.07.3-.1.36-.08,1.54-.11.31,0,.31,0,.26,0,.66-.11.71-.32.33-.83.07-.55.14-.95.21-.78,0-.65.1-.61,0-.86.11-3.56.31-.43.09-1.21.1H249l-.56.09Z"/><path class="cls-1" d="M269.8,42.17l-.3,0-.44,0-.48,0-.44,0-.31-.06-.72-.25-.5-.13-.46-.26-.55-.3-.48-.53-.48-.48-.44-.58-.37-.71-.12-.33-.37-.76-.06-.25-.19-.6L263,36.6l-.15-.68-.11-1.3,0-.74-.07-.3,0-.66,0-.35.06-.31.07-.71.58-.36,1-.17H265l2.43-.22H268l.4.57.14,1.61,0,.31.08.9.17,1,.17.42.36.63.47.39.58.08.39,0,.34-.12.46-.17.2-.24.18-.4.15-.32.13-.54,0-.53v-.43l0-.31-.1-.6-.06-.69-.24-.77,0-.26-.19-.64-.4-.57-.39-.49-.36-.58-.2-.25-.1-.21-.15-.2-.33-.28-.25-.33-.52-.52-.24-.2-.2-.24-.52-.53-.57-.51-.44-.53-.48-.44-.46-.31-.24-.29-.3-.41-.32-.62-.21-.38-.24-.28-.16-.3-.11-.33-.23-.55-.09-.56-.07-.35v-.3l-.1-1.26v-.88l.1-.31V17l.15-.32.09-.44v-.44l.21-.59.15-.36.1-.31.11-.23.31-.42.12-.19.22-.45.24-.29.48-.48.73-.63.67-.32.46-.3.81-.25.71-.28,1.35-.12,1.09-.05.3,0,.4.05h.65l.76.15h.3l.19.12.54.21.33.24.36.1.51.39.15.16.47.44.15.21.35.45.19.24.13.47L278,14l.35,1,.08,1,.12.87,0,.74-.07,1.23-.08,1-.5.3-.78.11-2.43.22h-.61l-.6,0-.38-.27-.09-.56.06-.36V18L273,17l-.13-.51-.15-.25-.43-.36-.46-.31-.57,0-.51.22-.46.26-.19.33-.1.31-.14.45v.31l-.09.44v.61l0,.57.07.29.38.8.4.58.2.33.36.54.53.56.62.65.2.24.23.2.21.33.19.2.27.15.47.31.15.25.23.11.15.21.43.4.25.37.56.47.37.71.43.45.06.21.43.84.31.54.34.88.07.3.07.35.07.3.28.71.11.26v.61l0,.26.07.3,0,.31.11,1.21-.08.62,0,.26.06.65-.13.58-.05.36,0,.4-.17.62-.32.77-.25.2-.18.45-.2.19-.31.42-.2.2-.32.33-.41.3-.37.34-.51.17-.24.2-.63.27-.35.08-.54.22-.3.07h-.4l-.3.07-.48,0-.29.07-.48.09Z"/><path class="cls-1" d="M298.33,39.67l-.3,0-.31,0h-.83l-.26,0h-.44l-.31-.06-.27,0-.58-.17-.53-.12-.28-.2-.46-.22-.23-.15-.28-.15-.6-.39-.19-.2-.24-.2-.35-.58-.44-.53-.18-.55-.11-.25-.14-.56-.11-.29-.07-.83-.08-.34,0-.39,0-.31-.1-1.13,0-.91v-1l0-.62,0-.3,0-.26V28l.12-.62-.08-.39.06-.35.09-.49-.07-.22.07-.79.15-.27-.06-.61,0-.13,0-.18.09-.49,0-.48.1-.44V22l0-.26.11-.27-.05-.61.14-.88.06-.31,0-.49v-.44l.1-.27,0-.3.06-.32,0-.26,0-.31.1-.31.08-.58.23-.89.18-.89.13-.62.19-.76.17-.54.21-.63.13-.49.28-.29.27-.46.31-.46.55-.66.24-.24.54-.31.25-.15.88-.47.72-.2.55-.18.3-.07.65-.06.82-.11.7-.06,1.09,0,.4.1.44,0,.61,0L303,8l.31.06h.3l.19.12.48,0,.63.17.6.38.52.39.1.21.25.37.15.21.12.29.25.42.13.47.09.51.09.56.08.39.1.65.08,1v.44l-.06.35,0,.66,0,.7-.11,1.71-.06.36L307,19.61l-.16.18-.52.09-.6.1-2.74.19-1.27-.06-.34-.45-.06-.61.06-.31.11-.79,0-.62.18-1v-.57l0-.62-.06-.65-.33-.75-.5-.22-.62-.12-.48,0-.51.13-.46.22-.35.51-.11.27-.1.31-.11.76-.17.58-.19.76,0,.26-.13.53-.07.67-.09.53-.09.4,0,.31,0,.26-.06.31,0,.62-.16.66-.2,1.77v.35l-.11.71,0,.31,0,.57-.05.35-.08.66.08.91-.1.32,0,.31,0,.34v.31l-.06.31.07.3-.06.92,0,.35-.08.62v.61l0,.43.06.26,0,.3.23.64.37.27.67.16.69-.15.65-.05.57-.45.16-.23.27-.81.17-.63.12-.57,0-.27,0-.22.08-.53.07-.66.06-.4v-.31l.17-.58.05-.44.27-.37.35-.08,1.13-.05.91-.08,2.13-.06h.53l.33.28.2.28,0,.48-.07.27,0,.3,0,.57v.48l-.07.23v.31l0,.17,0,.92-.06.27-.17,1.11-.08.53,0,.31-.06.31-.11.27-.2.72-.17.54-.1.31-.15.28-.2.27-.11.28-.06.26-.58.84-.6.62-.66.5-.29.15-1.1.36-.51.18-.52.13-.55.18-.65.06-.56.09-.42.12Z"/><path class="cls-1" d="M311.47,38.09l-.3,0L308,38.3l-.4,0-.12-.34.06-.31,0-.26.22-.55.3-.59.32-1.34.21-.54.17-.54.39-1.08.12-.58.28-.81.06-.27.19-.32.18-.54.06-.27,0-.31.1-.27.17-.58.11-.32.25-.63.06-.31.05-.4.18-.36.22-.55.06-.31.21-.63,0-.26.1-.32.11-.27.16-.62.11-.28.24-1.24.1-.36.25-.59.16-.75.21-.5.11-.27.08-.58.19-.32.08-.58.07-.22.21-.59.08-.62.19-.32.15-.27.27-.94.16-.59.11-.27.23-.41.09-.45.1-.31.32-.82.06-.31.11-.27.07-.27.06-.31.21-.5.16-.27.06-.23.19-.8.26-.59.32-.81.1-.32.11-.27.13-.49.3-.07.44,0,.82,0,.43-.08.7-.06.82-.12.39,0,.31.06.38-.08.7-.06.22.07.33.19.29,1.85.08,1,.11.25.07.78.18,1.56.05.6.1.56.16.86.05.61.1.65,0,.3.09,1,.14.6.07.86.1.61,0,.26.09.56,0,.26.11.69.13.47.14,1.69.09.52.08.34.11,1.3.22,2,0,.3.1.65v.65l.1.61,0,.3.23,1.64,0,.26.1.56.07.3.05.65v.61l.08.35,0,.39.13,1,.08.91c.05.17.13.55-.07.7a2,2,0,0,1-.48.05l-.3.06h-.35l-.61.06-.95.12-.34,0H323l-.3.07-.43.09h-.56l-.65.06-.19-.12-.12-.42-.12-.78-.08-.43v-.44l-.18-2-.07-.35-1,0-.7,0-1.91.12-1.17.1-.18.5-.25.59-.06.31-.11.32-.12.53-.37.86-.2.68-.09.48-.11.23-.15.32-.24.2-1.22.06-.34.07Zm8.2-11.2.24-.24V26l-.07-.35v-.35l-.1-1.13,0-.3-.07-.74.06-.35-.14-1-.1-1.65-.09-1.57-.13-1-.34.16-.12.58-.16.71-.09.45-.15.71-.15.36-.13.45,0,.31-.15.32-.09.4-.11.31-.09.4-.18,1V24l-.17.67-.14.32-.15.75-.06.31-.06.4-.1.32.33.23.34,0h.88Z"/><path class="cls-1" d="M329.49,36.29l-.19-.24-.07-.3-.07-.26,0-.26.13-.45.1-.45V34l0-.27.13-.58-.06-.65.13-.58,0-.3,0-.26,0-.57.05-.4-.05-.52.17-.63.06-.27.11-.31-.07-.26.08-.57.1-.32,0-.26,0-.26,0-.62.06-.26-.05-.61,0-.26V25l0-.26.12-.62,0-.31.17-.62.06-1.32.12-.62,0-.22.15-1.23,0-.57,0-.53.17-.59v-.35l-.05-.6.17-.59,0-.3,0-.53.05-.92-.07-.34.1-.36.12-.62.05-.36-.11-.29.06-.36v-.56l.05-.49.15-.27,0-.31,0-.3,0-.26.15-.32,0-.7.07-.7.13-.54V7.48l0-.31.07-.27L332,6l.1-.27.69-.15,1-.09,1.61-.1,1.69-.15.87,0,.18.51,0,.31,0,.3L338,7.41l0,.31L338,8l-.05.93-.05.48,0,.44-.22,1.55-.08.62,0,.34-.13.63,0,.61-.15.32.12.34-.06.35v.31l-.06.31-.08.62-.08.58-.15.31.08.35-.06.31,0,.34-.05.93-.06.31.05.6-.06.32-.07.66,0,.3-.11.71v.66l-.08.62v.35l0,.3-.11.71,0,.31-.06.35v.61l-.12.58v.57l-.05.39,0,.44,0,.31,0,.26-.06.31v.48l-.05.44,0,.44.23.19.44,0h.39l2.26-.2,1-.13,1.12-.1.27.11,0,.65-.06.31.07.3-.1.36-.09,1.54-.1.31,0,.31,0,.26,0,.66-.12.71-.32.33-.82.07-.56.14-.94.21-.78,0-.65.1-.61,0-.87.11-3.55.31-.43.09-1.22.1h-.3l-.56.09Z"/><path class="cls-1" d="M344.75,35l-.19-.25-.07-.3-.07-.25,0-.27.14-.45.09-.44v-.31l0-.26.12-.58-.06-.65.13-.58,0-.3,0-.27,0-.57.05-.4,0-.52.16-.62.06-.27.11-.32-.07-.25.08-.58.1-.31,0-.26,0-.27,0-.61.06-.27-.05-.6,0-.27v-.31l0-.26.12-.62,0-.3.16-.63.06-1.31.12-.62,0-.22.15-1.24,0-.57,0-.53.17-.58v-.35l0-.61.17-.58,0-.3,0-.53.05-.92-.07-.35.1-.35.12-.63.06-.35-.12-.3.06-.35v-.57l.05-.48.15-.28,0-.3,0-.31,0-.26.14-.32,0-.7.07-.7.13-.54V6.14l0-.3.07-.27.14-.89.11-.27.68-.15,1-.09,1.61-.09,1.69-.15.87,0,.18.5,0,.31,0,.31-.17,1.06,0,.3-.06.27-.05.92-.05.49,0,.44L352.88,10l-.07.62,0,.35-.13.62,0,.62-.15.31.12.34-.06.36v.31l-.06.31-.08.62-.08.57-.15.32.08.34-.06.31,0,.35-.05.92-.06.31.05.61-.06.31-.07.66,0,.31-.11.71v.65l-.08.62v.35l0,.31-.11.71,0,.3-.06.36v.61l-.12.57v.57l0,.4,0,.43,0,.31,0,.26-.06.32v.48l-.05.44,0,.43.23.2.44,0h.39l2.26-.2.95-.12,1.12-.1.27.1,0,.66-.06.31.07.3-.1.36L357,31.35l-.1.32,0,.3,0,.27,0,.65-.12.71-.32.34-.82.07-.56.13-.94.22-.78,0-.65.1-.61,0-.87.12-3.55.31-.43.08-1.22.11-.3,0-.56.09Z"/><path class="cls-1" d="M373.86,32.63l-1.26.11-.61,0-.35,0-.3.06h-.78l-.35.07-.35-.06-.37-.27-.1-.65.16-.62V30.6l.06-.31,0-.61v-.35l.07-.66,0-.31.06-.36v-.3l.13-.58-.07-.26.06-.79.09-.49.06-.4.09-.4,0-.39,0-.53,0-.31.06-.31,0-.26.06-.31-.07-.3.22-1,0-.66,0-.26.06-.31v-.31l0-.26,0-.62-.06-.6.13-.63,0-.3,0-.61.15-.37-.05-.56,0-.53.08-.57.16-.63.05-.92-.05-.61.1-.31,0-.62,0-.26-.07-.3.12-.54,0-.26.08-.57V9.47l.13-.58-.07-.3V7.67l.07-.22,0-.62.09-.57,0-.26.06-.27V5.2l0-.48.14-.49,0-.66L372,3.3l0-.31.26-.46.29-.15.25-.2.3-.07.64-.1h.4l.61-.05.3-.07,2.29-.2.3-.07.49.08.21.42,0,.27.05.56-.07.14v.48l.07.25L378.3,4l0,.39-.11.23,0,.61-.14.41,0,.34,0,.27,0,.3,0,.27L378,8l0,.49-.07.26,0,.53v.83l0,.31,0,.57-.08.53-.08.58,0,.22-.07.62-.1.4,0,.39,0,.31v.35l0,.3,0,.57-.09.45-.1,1.32-.12.62-.1.31,0,.35-.08.57,0,.58,0,.52-.12.63,0,.34-.12.62,0,.35,0,.62,0,.22.05.6-.18.46.09.47-.07.66,0,.35-.12.58,0,.35-.08.61,0,.62,0,.57,0,.3-.09.49-.08,1.06-.08.57,0,.62-.08.57V32l-.1.41-.46.17-1.13.1Z"/><path class="cls-1" d="M384.57,31.65l-.31,0-.42-.31,0-.66,0-.91.22-.94.06-.31v-.65l.06-.27V27l0-.3.17-.63v-.31l-.07-.34.14-.93,0-.35.08-.53.08-.66.06-.31v-.31l0-.57.06-.27v-.61l.18-.45-.12-.43,0-.3.05-.31.17-.63.11-.67.07-.31L385,17.5l.17-.54.07-.27-.06-.61.1-.44,0-.39.06-.31.15-.28,0-.3.06-.27.07-.66-.07-.3.18-.5,0-.43.07-.22,0-.35,0-.31,0-.31.16-.71,0-.27,0-.26,0-.3,0-.26.08-.58.06-.31,0-.66V7l-2.34.2h-.62l-.3.07-.39,0H382l-.35,0-.4-.1-.16-.38,0-.52.1-.36,0-.35-.07-.3.12-.62.06-.27V3.8l.12-.58.11-.27,0-.61,0-.26.17-.5.37-.33.3-.07,1.12-.1.22,0,.31,0,.3-.07L387.5.73h.3l1-.08,2.77-.29h.65l.91-.12h.39L396.17,0h.61l.4.05.12.34,0,.26,0,.31-.05.35,0,.31,0,.26-.06.31,0,.26,0,.53-.06.31,0,.27v.52l-.12.58-.06.31v.61l-.14.41-.43.08H396l-.52,0-.39.08-.43,0-1.83.11-.38.08-.06.31.06.26-.1.31,0,.26-.06.27,0,.57,0,.31-.1.8-.15.36.11.21-.16.62-.13.58,0,.26v.53l0,.26,0,.3-.17.54,0,.66-.06.31-.07.62-.11.27,0,.3v.57l-.08.53-.15.32v.61l-.06.27,0,.26-.08.62-.07.66-.05.4,0,.43,0,.27-.06.26,0,.31-.13.54v.3l0,.27.07.3-.08.62-.07.7-.12.58,0,.31-.08.57-.14.93-.06.35-.07.62.07.35-.13,1-.16,1.24,0,.61-.08.62-.06.27-.5.26-3.77.33-.51.17Z"/><path class="cls-2" d="M28,80.84l-.44-1.29-.91-.92-3.35-.2-1.66,0-2.79.41-3.15.11-1.9,1-1.49,2-.38,1.37-1.15,2.09-.48,2-1,2.24L8.2,92.54l-1,2.24-.65,2.06-.81,2.23L5.12,101l-.68,1.72-.5,1.88-.79,2.39-.94,2.58-.79,2.39-.65,2L0,116.52l.2,2.31,1.11,1.23,1.39.71,3,.24,2.65-.07,1.64-.31,1.65-.14,1.33.05,2.79-.41,3-.26,1-1.42.39-1.2.83-1.9,1.3-6.1.41-2.86.2-1.51.38-1.36.34-1.86L24,100l.23-1.19.51-1.7.5-1.87.42-2.87.74-2.89L27.33,87,28,84.83l-.34-2Zm-5.86,7.83-.59,0-.35-.19-.08-.94.62,0,.56.28Zm-9.66,25.6-.49,0,.28-.46.17-.06Zm3.2-20.39-.22,1.19,0,0-.25-1.24ZM18.5,98l.33.13-.33,0Zm-5,5.42,1.17.06-.06,1.17-1.16.1Zm2.18-1.69,0-1.18.29,1,.34.22Zm-3.88,5h0l.09,1Zm4.45,1.43,0-.1.3-.58,1.26-.78-.39-.63-.09-.16.57-.05.13,1.49-.44.7ZM13.33,92.26l-.88-.61,1-.23.31.56ZM6.46,113.54l-.31,1.11-.22.1.15-.92Z"/><path class="cls-2" d="M62.45,78.16,62,76.87l-.8-1.6-3.34-.2-2,.34-2.16,0-3.44.47-1.91,1-1.49,2-.38,1.37-1.15,2.09-.48,2-1,2.24-1.07,2.92-1,2.24-.65,2.06L40.42,96l-.67,1.88-.68,1.72-.5,1.88-.79,2.39-.94,2.58-.78,2.39-.66,2.05-.77,2.56.2,2.31L35.94,117l1.39.71,3,.24,2.65-.07,1.64-.31,5.77-.5,3.12-.44,1-1.42.26-.85,1-2.41,1.16-5.76.41-2.86.2-1.51.38-1.36.34-1.86.35-1.69.23-1.19.51-1.7.5-1.87.42-2.87L61,86.42,62,84l.5-1.87-.11-1.32Zm-6,16.31-.52,0L56,93.35l.66-.06-.11.67Zm-5,12.9-.42-.9.43,0,.45.51.46.22-.18,1.09-.15,0,.14-.13Zm-10-3.61.68.11.54.45.4.79-.12.51-.83.07-.65-.21.19-1.24-.3-.49Zm2.94-2.58.56.78.38.46-1,.09-.11-1.16Zm8.86-3.11v-.16l.16.13Zm-3.81-3.65.82-.33-.48,1ZM51,88.13l.23-.11-.06.09h0Zm2.34,4L52.28,93l-.54-.08,0,0-.07-.82.39-1.2.37-.09,1.37.94Zm-.63-5.42-.59-1,.51-1.45,1.05.32.15,1.65Zm-1.17-1.9-.57,1-.37,0,.32-.53.67-.79Zm-3.08,19.88h-.09l.08-.16ZM47,98.79l-.23-.13-.17-.84.3-.19,1.15-.1L48.15,99l-.82.07Zm-.78,13.86.28.88-.37,0-.46-.86ZM50.07,100l1.32-.11,0,.77-.09-.1-1,.09-.14.27Zm3.77,3.16.17,0v0l-.14.27Z"/><path class="cls-2" d="M132.14,101.64l-.06-2.49-.5-2-.44-1.29L131,94.75l-.28-1.3-1.19-2.22-.83-1.92-.57-.78-.74-.94-1.6-1.19-2.35-2.12L121.53,83,120,82.43l-1.73-.68-2-.32L113.71,81l-1.66,0-1.85-.17-4.94.43-2.33,0L96.35,82l-8.11.38-3.46.3L83,83l-1-.08-4.13.36-2.29.37L74.19,85.1l-.42.87-.2,1.52L73.62,90l-.07,1.17.12,1.32-.31,2.19-.64,4-.31,2.19-.28,2.52.14,5.3-.46,2.37-.11,2.5-.08,1-.25,1,.1,1.15-.07,1,0,1.5L71,120.61l-.08,1-.23,1.18v2l0,1.49-.37,1.53L70.05,129,70,130.17l.12,1.32L70,133.83l-.46,2.37,0,1.33-.47,2.2-.26.86,0,2.32-.46,2.36L68.13,147l-.1.68.08,1-.32,2-.06,1.17L67.59,154l-.31,2.19.1,1.15-.08,1-.21,1.34L66.71,161l-.29,2.35.3,1.63-.51,1.71-.1,2.67L66,171.9l-.08,1-.38,1.37-.05,1.33-.23,1.18L65.2,178,65,179l0,2.32-.13,2.34-.47,2.2L64.33,187l-.16,2L64,191.35l-.2,1.51-.38,1.36.22,2.48-.19,1.67,0,1.34,1.24.89,1.49,0,2.49,0,1.32-.12,1,.08,6.76-.59,2.62-.39,1.32-.12,2.67.1,2.46-.38.49,0,1.31-.28,2.31-.2,1.33.05,2.16,0,4.44-.56,1.14-.26,1.16.06,2.49-.05,2.43-.71,1,.08,2.1-.68,1.47-.3,1-.25,1.28-.61,1.77-.65L116,194l1.11-.6.78-.56.77-.73,1.1-.76.75-.9,1-.58,1.24-.94.59-.88,1.07-1.09.75-.9.83-1.9L127.2,182l2.18-5.51.23-1.18.24-1,.23-1.18.24-1,.3-2.35.06-1.17.31-2.19.28-2.52.11-2.5.06-1.17-.19-2.14,0-1.5-.47-1.62,0-2.16-.84-2.09-.52-2.11-.58-.95-.48-1.62-1-1.74-.76-1.1-1.13-1.56-1.08-.9-1.09-1.07-2.1-1.15-1.54-.52-1.9-.84-1.7-.51-.09-1,1.42-.79,1.91-1,1.88-1.32,1.1-.77.76-.73.74-1.06.77-.73,2-2.33,1.15-2.1,1-1.75,1-1.91.53-1.54.4-1,.23-1.18.25-1,.06-1.17.12-.51.23-1.18-.25-1,.47-2.21.07-1.16.14-2.18-.09-1,.23-1.18.08-1-.1-1.16ZM121,123.89l1.14-.27.28,1.31-1.12.43Zm-3.68,7.3,0,.05-.3-.19-1.46.46.58-1-.83.08.45-.54,1.32-.12.09.41,0,.09.1.19Zm3.08,55-.14-.63.43,0-.21.61Zm-7.6,3.78-.43.44-.92.44.1-.67.29-.53,1,.05Zm-6.11,2-1,.19-.55-.61-.13-1.49.64-.13.2.23.05.65.68-.92.45.49.11,1.27-.31.25Zm-14,1-.28-1.3.44-.7,1-.09.34.13.11,1.16-.44.7Zm-11.39.83-.74-.29-.19-.79,1.46-.46.29,1.47Zm-6.89-.89,1.3-.28.08.17h-.06l-1.14.69Zm-2.68,3.56-.08-.05.32-.08ZM83.1,88.15l.11-.29.23.42,1.21.25-.31.51-.63.38-.23.27L83,89.32l-.14-.14.28-.21Zm5.07,1,0,.44-.15-.41Zm3-2.77h.06l-.08,1-1-.08.06-.67.71-.06ZM107.13,95l-1.14.26.08-1,1-.25Zm-9.64-3.64h0l0,.06Zm2.56,4.42.08-1,.9.07.12.17h0l-.23.81Zm-.25,4.68,3,.07,1.52.2,1,.08,1.42,1,.57.78,1.16,1.89.34,2,.26,1.14.33,1.8-.52,1.71-.05,1.33-.24,1-.32,2-.62,2.38-1.18,1.76-.69,1.56-1.84,1.82-1.71,1.31-1.25.94-2,.51-2.29.36h-2l-2.14.19-.09-1,0-1.67.22-1.34.45-8.18.24-1,.06-1.17.31-2.19-.1-1.15.32-2,.06-1.16,0-1.5.36-1.53-.1-1.16,1.29-.44Zm10.5-9.06.13,1.48-.89.21v-.8l.49-.9Zm7.3-4,.37,0,0,.17-.3.33Zm9.42,24.1-.32.21-.83-.11,0-1.34,1.34.22,0,.33Zm-7.31,34.2,1.49-.13,0,1.49-.42.21-1.23.11Zm5.58,22h0l-.38-.47.65-.22.09.26Zm-6,7.58-.26-1.22.17,0,.19.35,1-.28.08.86-1,.39ZM78.94,190.71l-.61.55-1.49.13-.15-.82,1.7-.48.33-.48Zm-8.43-5.17,0-.49.3-.44.79.93-.63.05ZM87.57,96h.37l.5,1.45-.53,0-.39-.63Zm6.79-5.54L94,89.35,93.77,89l.53,0,.13,1.49Zm12.82,38.28.12.47-1.13.43.07-1.17.53-.16Zm6.29-.7v1.29l-1.32.12-.38-.47,0-1.5,1.29-.44.2.33-.32.18Zm1.55,19.1h0l-.81.57-.31,0-.25-1,.66-.14Zm5,21.5-.6.05-.58-.28-.05.12-.21-.56.53-.25.87.3.18.53Zm-3.69,8.66,0-.05.17-.16.79-.07.25,1-.21,0Zm-15.18,4.75,1.32.58.86-.2.14.28.78.66-.52.32V184l-1.19-.71-1.57-.86Zm-20.49,4.1.5-.16.28,1.28-.91-.89Zm-2.15-85.35-.11-.53.39-.31.63.84-.85.17Zm36.88,64.25,1.12-.43.56.62,0,.75-.57,0-.89-.59-.17-.07ZM122,153.37l-1.8.32,0-.27.8-.46.88-.38ZM112,178.85h-.26l.19-.34Zm-6.2-.63,0,1.5h-.06l-.65-1.51Zm-28.93,6.51-.15-.8,1.12-.43-.14,1.07Zm.62-7.19-1.08.93,0,.49-.33,0-.37-.46,0-1.34,1.32-.11.4.45Zm-4-30.22.46-.54.49-.05.12,1.32-.17,0Zm3-15.22.23.64.38.63-.33.15h-.17l-.2-.58-.37-.47-.64-.15,1.09-.32Zm.31-15.48-.07-.77.49-.1-.34.88Zm17,14.13-.2.51-.25,0,0-.58Zm10.79,13.18h.18l.36.44.37.12-.13.69-.85-.26Zm3.55-1.77-1,.22-.28-1.31,1.3-.28.26,1.22Zm3.12,13.41v-.09l.42,0Zm1.3,7.27-.44.38-.23-.49,0-.43.3-.42,1.12-.43Zm-.31-5.79.13-1.67.52,0,.15,1.65Zm-10.18-21-.42.87-1.11.59-.4-.66.12-.64,1.62-.48.16-.05Zm-3.49,3.79-1-.08.06-1.16,1,.07Zm-6.28.39-.79.4,0-.85.72.12ZM83,170.41l.09,1-1,.25,0-.65h0l.44-.46Zm-8.85-10,0-.59.12.41-.13.18Zm18.28-26.53,0,.5-1.19-.23-.43-1.27v0l1.48,0,.08,1Zm-5.76,6.32-.43.08.3-.75Zm-4.09,25.64-1.12.24-.32-.52.4-.48.94-.58,0,0,.22,1.13Zm-6,.17-1,.22.05-.14.92-.46Zm10.28-42.11,1.18-.38.14.26.18.15,0,.5-.83.07-.65-.3ZM77.76,150.6l-.35.12.14-.6.16-.14Zm-.3,11.32,1-.08.07.83-.88,0ZM80,151.56h.42l-.24.14H80Zm-.48-11.25.84.13,0,.62-.63.63Zm2.26-2.44.48-.46.93.26-.16,1-1.35-.21ZM84.16,156l-.44.1,0-.33Zm-.64-5.91-.32.07-.29-1.47h0ZM83,144h0l-.5,0-.08-1,1.15-.1.07.77Zm4.69-12.87-.33,0,0-.18Zm.67,4.94.1.14.44,1.57-1.14-.18-.12-1.32Zm-7.27-12,1,.24-.25.86-1-.25Zm-.57,22,.1,1.15-.83.07-.25-1Zm-4.71,12.7.83-.28-.47,1.18-.81-.36Zm2.79,9.13-.26.79,0,0,.13-.8Zm10.76-53.68,0,0,.07,0Zm-6,1.85-.29-.36h.59l.62.43Zm-3.46,2.3,0,.33-.28.78-.27-.87Zm-1.29,2.27.07.85-.51-.15v-.71Zm3.17,9.69.69.28.26,1.14-1.15.1-.65-.41,0-1h0Zm-2.38,5-1-.06.13-.86.82-.22ZM94.55,143l0,0h0Zm1.33-1.29-.2,1.06-.12,0-.06-.18-.72-.6h0l1-.38Zm-6.72-33.6-.46.44,0-.56.46.08Zm-4.39,12.51v-.16h0l0,.16Zm-5.64-7.48,1,.41.07.1-.55.11-.53-.46,0-.16Zm-4,39.73,0,1.5-.68.06-.53-.45-.28-1.31,1.27,0Zm8,23.43-.29.49-.59-.23Zm1.15-7.78.2-1.51h.12l.25.46-.16,1ZM98.1,145.66l-.27-1.14,1-.09-.12.68-.31.52Zm10.14,1.94-.74-.62.31-.51,1.17.07.26,1.14-.61.55h-.1Zm-.69,26.77.19-.14.53-.47.28.23.9.36-.49.44-.44.7-.07,0,0-.37Zm2.21-1.81,1.08-.93.21.48-.47.75Zm3.74,1,1.06.06L114,174l-.79-.22Zm3.36-3.34h.5l0,.07-.51,0Zm1.25-6.7,0-.25,1-.17.46,0Zm0-1.66.32-.53,1.34,0,0,.33Zm3.31,3.2.1-.54,1.31-.42.31,1.64-1.62.47Zm-.63-5.26,0-.3.43-.08.63.64Zm-2.26-5,.55.62v.18l-1.18.72-.25-.28-.05-.57.16-.1.39-.47ZM111,150.19l-.12.42,0-1.25.61-.55,1,.08V149Zm2.63-8.62.27.05-.16,0ZM112,139.79l-.18-.15-.59-.1-.32-.82-.54-1,1.32.4.71.44,1.39.71,0,0v.29Zm.19-5.58,0-.09h.07Zm1.8-15.37.35-.1-.26,1.09Zm2.51-9.88.93-.22.28,1.3-1.14.27-.26-1.21Zm-1.71,3.83.26-.65.34-.07.15,1.65-1.47.3-.06-.71Zm-2,9.63.06.18-1,.42-.08-1ZM116.47,103l-.35-.14v-.16l.59,0ZM110,126.34l-1.14.26-.23-.64.07-1.17,1,.24Zm-1.88,9h0l-.33.94-.08.09-1.51-.2,0-1.5.47-.37,1.33,0Zm-3.34,2h0v.05Zm-1.36-4.38-.08-1,.82-.07.24.81Zm-3.84-4,1.32-.12.28,1.31-1.31.11ZM97,132.63l1-.58.26,1.14-1,.42ZM95.25,136l-.31.17-.82.14-.05-.56,1.18.23ZM94,129.57h0l.66-.05.09,1.05Zm-2.62-1.44-1.31-.81.18-.75.36.3,1.33.28-.28,1Zm-.22-35.84.24-.05.18.84ZM88,102.65l.56-.13.11.09.18,1-.74.18-.09-.41.2-.27Zm-1.1,2.53-.17-.07.15-.19Zm-3.65-1.92-.38,0-.52-.79.32-.69.45,0,0,.33-.15.18.18.1Zm-3.43,2.62.52.21.08.9-1.16.1-.09-.43Zm-2.26,21.64,1.63-.31.15,1.65-.33.06-1.2-.43-.08,0Zm-2.8,10.79.56-.3,2-.75.32.22-.72,1.23-.64.39-.61.55-1,.09-.34-.88Zm-1-2.85-.48,0,.46-.1Zm.13,5.34.39.63-.12.51h0l-.81-.06-.21-.19Zm-1,21.19.1,1.15-1.26.25.18-1.15.13-.3Zm-1.27,6.09L72,168l.23.89.7.87-.78.14-.39-1.43Zm2.23,6.78.08.39-.7.17.83.51.09.4-1.34-.05-.46-1.45ZM80,180.48l-.51-.36.11-.44,1.66,0,0,1.5-1.29.44,1.09-.76Zm3.71,2.5.1,1.15-1.14.27-.11-1.32ZM98.69,179l.06.64-.66.06-.08-.24Zm.64-2.24-3.14.28L92,176.93l-1.44.63-2.66.06.48-2.2,0-1.33.21-1.35.13-2.34-.1-1.15.28-2.52.22-1.18.13-2.34,0-1.33.24-1-.1-1.15.23-1.19.12-2.5.27-.69.21-1.35.07-3,.37-1.53,2.31-.2h1.82l2.31-.2,1.35.21,1.68.19,3.23.88,2,1.49,1.83,3.83,0,2.16.41,2.79-.07,3-.64,2.22-.05,1.33-.23,1.19-.67,1.88,0,1.34-.86,1.57-1.07,1.09-1.39,1.28-1.11.6-1.15.1Zm5.48,6.67.42,0,1.22.73,0,.09-.14.58-1.73-.84Zm5.56-5.8,1-.09.3.14-.76.73-.51-.15Zm11.49-7.32h.21l.48.26-.63.42Zm-6.2-17.74.08,1-1,.09-.25-1Zm-.68,5.54,1.09,1.07-1.23,1.11-.42.25-.26-.36-.4-.42,0,0,.11-.67Zm1-32h-1.83l.18-1.34.19-.19.5-.36.42.12.07.16.59,1.11h0Zm5.54-6.59-.45.16-.39-.63,0-.59Zm-.82-13.6-1.2-.33,0-.23,1.31-.28,0,.24Zm-4-9,0,.3-.18-.12-.9,1.08h-.31l0-1.3Zm-23.16-.8.19-1.46.23.59-.24.9ZM92.89,90l0,.17L92.73,90h.16ZM77.72,110.22l-.91.08.23-.19.53-.52Zm-3.07,16.22,0-1.33.51-.46.2,0,.48.26.19.78-.44.71-1,.08Zm-4.82,45.62.9,0,.17.72L70,173Zm1.35,5.87.55.61.25,1,2.22.64.26,1.14-1,.41-.28-.23.57-.29L72.19,180l-1.36-.38-.68-1.45Zm2.56,10.24-.12-1.32.26,1.31Zm9.64,2-.22-.09.12-1.06,1.33.05.15,1.65h-1Zm5.54-7-.41-.12,0-.51.47-.38,1.35.22,0,1.33-.19.15Zm3.5,2,1.33,0-.06,1.17-1.17-.07ZM95.13,182l1.33.05.07.74-.5,0-.68.34Zm3.23,2.71.94-.08-.23.68-.63.35Zm3.39,2.69,1.14.05-.62.24-.45.47Zm6-5.34-.44-1.29,1-.42.7.44.1,1.15Zm3.93,1.15.37.47v.09l-.14.09-.44.7.39.27-.87-.06-.39-.63-.08-1Zm3.24-2.78.08.86-.62.25-.36,0-.1-1.15Zm10-19,0,1.31-.17,0-.45-1.29.5-.17Zm-6.58-12.24,0,.18h0l.13.64-1.61-.18-.35.25-.2-.94.14-.12,1.15-.25Zm7.73-43-.66.06-.06-.66.3-.36,1.47-.3h0ZM123.41,102l-.06-.08,0,0ZM112,95.26l.06-1.17.45-.54.41,0-.3,1.14-.52.54Zm1.25-6.59-1.33,0v-.13l.14-.21h1.21ZM81.29,90.3l.27,1.14-.19.12-.29.09-.75-.93.74-.78Zm-1.48,4-.42.61-.2-.06-1-.57.91-.91.31.21Zm-3.34,9.27-.4,1H76l-.33-.17-.26-1.41h0l.44,0Zm-3.06,25.86-.37,0-.14-.16.53-.13ZM85.9,186.56l1.74-.93h0l.08,1-1.29.44-.53-.45Zm1,5.61,1-.25.26,1.14-1,.25Zm3.86-3.33.08.83-1,.09-.09-1Zm-.82,5.73,1.48-.13,0,.91-.22.11L89.9,195Zm7.33-5.46-.83,0,0-1.57h1Zm1.94,3.15-.3-1.47,1.38-.43-.33,1,.4.65Zm3.09.94-.37.68,0-.7Zm5.1-5.16,1.05-.24.32.83-1.06.23Zm7.92-.85.09.33-.66.15.13-.44Zm5.28-6.27,0-.34.21-1.08.52,0,.12,1.32Zm6.9-22.38-.06,1h-.19l-.19-.88Zm-.93,5.67.12-.51.94-.16.26,0-.52,1.12Zm.37-11.1-.25,0,0-.57.29.38Zm-1.66,3.52-1,.34-.16,0-.27-.31,0-1.1-.32-.52.4-.48,1.35.22.14,1.64ZM123.49,149l.18.23.57,1.08-.48-.09Zm-5.7-6.24-1.17.11v-.17l1.26-.11Zm.81-15.5,1,.06,0,1-.35.07Z"/><path class="cls-2" d="M199.09,73l-1.5,0-1.66,0-1.47.29-3.63.32-4.77.58-1.33-.05-3.81.17-12.35,1.25L165,76l-1.65.14-1.33,0-1.15.1-2,.33-1.17-.06-1,.25L153.9,77l-1.23,1.1-.08,1-.4,1-.33,2,.43,1.13-.07,1,0,2.16-.08,1-.24,1,0,2.16-.23,1.18.25,1-.39,1.2.1,1.15-.41,1-.13,2.34-.47,2.2-.06,1.17.25,1-.06,1.16-.22,1.35-.57,1,.14,3.48-.4,1.19.24,4.64-.44,2.53-.29,2.35.25,1-.23,1.19-.38,1.36-.56,5-.57,1.05.1,1.16-.06,1.16-.05,1.34-.4,1.2-.11,2.5-.46,2.37.22,2.47-.36,3.52-.23,1.18-.28,2.52-.06,1.17-.39,1.2-.31,2.18.25,1-.49,2,.08.82-.15,2.17-.21,1.35.1,1.16-.1,2.66-.54,1.38-.14,2.17,0,2.33-.06,1.17-.22,1.34.11,1.16-.23,1.18.13,1.48-.38,1.37.06,2.65-.44,2.53-.1,2.67-.11,2.5-.2,1.51-.37,1.53.63,1.44,1.51.2,8.74-.76,1.17.06,4.29-.37,3.15-.11,1.3-.28,2.62-.4,3.47-.3,1-.25,2.16,0,2.62-.39,15.67-1.37.34-1.86.2-1.51-.08-2.82.28-2.52.06-1.17.24-1,.23-1.19-.19-2.14.35-3.69,0-1.33.17-1.84.1-.68.05-1.33-1.19-.39-4.61.56-3.64.16-2.32,0-9.73.85-2.34-.12-.72-.61-.11-1.31.28-4.35.24-3,.22-1.19,0-1.66.2-1.51.35-1.69.25-4.68.31-2.19.5-1.87,1.48-.13,2.13-.35,1.82-.16,2.82-.08,4.1-.52,1.49-.13,2.46-.39,1.65-.14.3-.36.12-2.34.27-2.68.13-2.34.38-1.36-.11-1.15.28-2.52.23-1.18.29-2.36.18-1.84-.12-1.32.16-2-1.11-1.23-1.35-.21-4.28.37-3.11.61-5.78.34-3,.26.07-3,.35-1.69-.28-1.31.23-1.18.29-2.35.13-2.34.22-3.18-.12-1.32.41-1-.2-2.31.06-1.17.32-2L177.1,97l10.72-.94,2-.34,6.93-.6,1.63-.31.31-2.19.08-1,.46-2.37L199.07,88l.28-2.52.08-1,.06-1.17.39-1.2-.08-1,0-4.15-.09-1L200,74.1Zm-4.84,16.88-.77.73L193,90l.06-.32,1.12-.1Zm-6.19,1.37-.2.06-.74.15-.64-.15-.27-.23,0-1.33,1.47-.3.54.45-.05,1.34-.13,0Zm-9,3.28v0l0-.16,0-.78v.93h0Zm-3.4-1.93-.92.31-.37-.46-.12-1.32,1.34,0,.39,1.13-.11.17Zm-1.74,33.12.44.8,1.07.9-.34-.14-1.4-.87Zm3.57,2.35,1-.37.82.54-.07.87-1.48.43-.05,0L176.32,128l-.54-.46-.34-.13Zm4.38,10.25h0l-.66.06-.14-1.65.87-.19.84.71Zm-5.18-6-.6.72-1.65.15-.46-1.46.42-.87,1.46-.46.47.3-.86.9h1.16Zm-7.78,6,1.13-.39.1,1.12-1,.21Zm.17,34.22,1-.09-1,.48Zm6-.19,1.28-.61.14,0,0,1.28-1.07-.14Zm4.55,10.24-.44-.38.06-.25-.35-.76-.08-.37.43-.7,1,.13-.26.47-.39,1.2.23.64Zm-2.72,3.06h-.16l-.76-.75.16-.36L176,183l.18.22.61,0,.33,1.3Zm-4.29,2.2.28-.52.81-.26,0,.35-.38,1.37-.73-.86Zm-5.65-5.65h0l0-.5,1.12-.43.72.61V182l-.85-.24ZM165.44,186l-1.31.28-.46-1.46.92-.08.26.31.45.32Zm-7.4,1.52h-.16l.18-.38Zm-6,.48-.39,0-.11-1.32.45-.53,1.14-.27,0,.18,0,0-1,1.59Zm-4.3-21.89.87-.66.12.57-1,.25h0Zm7.51-74.5.1,0,.84.09.69.27.42.62-.68.24-.88.89-.21-.13-.24-.81-.39-.63-.3-.32.59-.21Zm.93-5.17.54,0,.13,1.48h-.95Zm10-3.87.08.41-.76-.83.14,0Zm5.59-.66.9.76.7.43.55.62.72.6.76,1.1-.75.9-.36-.36-.22-.59-.32.07-.19-.19-1.26-1.06-.68-.27-1.23-.72L171,82Zm2-3.33,1.33,0-.05,1.33-1.65.15Zm-.86,11-1.31.28-.7-.43.33,0,1.61-.53Zm8.93,87,1.17.24,0,2-.24.36-.54.21-.52-.29,0-.08.38-1.61-.4-.92Zm-8.56,4.74.16,0-.21.2Zm4.19-1.53-1.18-.23-.1-.13,1.18-.8.55,0Zm-28.07-30.28h.09l.12.47h0ZM158.61,89l1.65-.15.24,1.26-.51-.57-1.3.26Zm8.3,47.3-.13.27-.68,0-.1-1.15,1.17.06,0,.55Zm-12.4-22h.07l-.06.12Zm7.35-22.41,1.5,0,.08.41-.7.14-.86-.47Zm-2.71,60.23,1.22-1.27-1.07-.48.19-.11.27-.69.71-1.39,1.47-.29.59,1.11-.91.91-.64.38-.43.71-.45.54-.88,1.4h0Zm-4.25,19.81-.53,0,.16-.51.31-.2Zm-3.83-24.76.19-1.67H152l-.26,1.44-.15.23Zm1.68-16.93.49-.17-.27.82-.11-.09Zm3.32-2.1.23.13-.23,0Zm-1.41-25.48.48-.14.05.59-.48.1ZM156.5,99l1.21.56-.15.38-1.29.24h0l0-.49Zm8.05,59.78-.06-.68h.17v.64Zm-1.93-3.15-1.19-.23-.1-1.16,1.35.22Zm-1,6.06,0-1.33,1.48-.13.38.47v.18l-.9.89L162,162Zm.6,4.94h1.27l0,.87.41.54-1,.35-.54-.45Zm-5.78-60.76.26-.41.6-.72,1-.09.6,1.12-.71,1.39-.13.11-.55-.22-1.12.43.39-1.2ZM157.3,139h.26l.39,1.23.09.32-1,.09-.11-1.15Zm5.85-5-.6,0v0l.62-.53ZM162,121.89l-.19-.58,0-.87.84-.37.46,1.46Zm.06,6-.45-1.29.44-.71,1.16-.1.44,1.29-.45.54Zm2-17.13,1.46-.46.11,1.32-1.3.28Zm-1.49,4.29-.46,0-.79.55-.15,0-.28-1.47,1.47-.13h0Zm-2.2-12.27.88-.3,0,.55-1.33,0v-.12Zm-.4,4.85.61-.55h.06l.21,1.14.76,1.1-.32.19-1.12-.18.09-.23-.31,0Zm-.8,23.17.11-.84,1-.09,0,1h0l0,.17-1.1.09ZM158.45,146l-1.11.6-.28-1.31,1.28-.61Zm1.45-4.28.84,0,.06.73.43,1.13.5,0-.63.39-1.38-.54Zm2.16-3.85-.44.24-.22-.18-.7-.43-1.18-.23-.59-1,.41-1h0l.17.32,1.58,1,.31-.66.5.42.55.62.71.43.09,0Zm3.11-20-.46-1-.15-.19,1.11-.23.12,1.32Zm-1.82-18.34-.18-.27,0-.75.56-.13.25,1Zm-8.18,38.16-1.58.3-.14-1.65,1.45-.46.25,1.37-.28.13Zm.09,5,0,.77-1.26-.16.35-.76Zm-1.62,22.34,1-.08.07-.06-.14,1.06-.83.07-.39-.63L153,166l-.32-.35Zm2.51-3.54,0-.76.51-.1-.07.49.22,1-.12.1-.8.17Zm.2-5.34,0-.16.29.14ZM155.22,149l.13-.18.35,0Zm8.06-8.51,0-.06.27-1.13-.22-.64,1.06.74-.43,1ZM166,130.24l-1.1-1.23h0v-.17l1.65-.15v1.83h-.45Zm.36-6.55.13.7-1.38.24-.12-.28-.3.36-.3-1.47.46-.54,1.31-.11,0,.09-.33.1-.59.88Zm-1.82-17.75-.52-.28-.19.35-.22,0-.25-.31.93-.75.35,0Zm-4.25-10.59.07.82-.33,0-.07-.82.1,0Zm-5.89,14.31,2.26,1.13.12.56-.26-.22-1.4-.87-1.07-.76Zm.91,10.76.81-.61.81-.24.17-.25.14.06-.06-.19.33-.5.1-.84.61-.55,1.14-.27.07.7-.14.31-.45.77-.62.32-.75.89.07.83-.22.43-.76-.18-.48,1-.77-.1-.16-.48.23-.69Zm2.07,6.26,0,.81-.74-.08-.23-.65h0Zm.32,7.45-.37-1,.62,0,0,1.5-1.66,0Zm-5.13,36.34.63-.39.93,0-.81,1.3-.58-.06Zm4.4-2.88-.88-.59-.33-.05v-.08l1.46-.26Zm2.54-9,.63-.38.06.66-1.06.21Zm4.7,13.88,0,0-.06,0Zm.6-27.3-1.13.77-.34-1,.8-.35.29-.06.67.41Zm2.34-24.63.14-.91,1.34.78.05.61-1,0Zm1.33-5.6-.18,0,.17-.21h0ZM165.1,94.77l.35-.29.52.71.23.81.86-.08v.34l-1.67,0Zm1-6.07-.29-.47.58-.06.05.57Zm-15.23,72.79-.2,1.51-.49,0,.21-1.45Zm-1,5.73.48,1.46.9.25-.87.08-.56-.62-.26-1.14Zm7.16,5.69.63.12-.11.17-.57-.23Zm3.1-8.24.47-.3.07.75-.62.55h-.49Zm0,5.65.64-.23.5,0-.07.84L160,171l0-.59Zm1.06,5.44-.08.12-.36,0Zm1.57-2.2.32.15.8-.4.54.45-.77.73-.84-.09-.14.08Zm6.06-48.21-.05,0,.2-.16.13.09Zm.55-20.32-.32.18-.12-1.47.32-.06Zm-1.55-2.52-1.3.28-.69-.27-.13-1.49,1.63-.31.54.45ZM168,92l1.14-.27.28,1.31-1.47.29Zm-.51-5.77,1.25.6,0,.12-1.36-.38,0-.54Zm-2.31,2-.18.25v-.24ZM154.33,97l-.22.09-.11-.06.29-.17ZM152,134.63l-1.13.43-.19-.1,0-.05.93-.74.21-.32Zm-.79,5.34.07-.29.69.27-.3.36-.46-.11Zm-1.58,35.92.27-.69.24-.43.41.2.13-1.19.08-.15,1.54.53.22.64L151.6,176l-.61.55-.43.41.26-.39-1.33-.05-.82.07.31-.19Zm-1.14,7.9,1.14-.26-.06,1.17-1.14.26Zm16.35-4.92,0,.42L164,179l-.15-.1Zm1.5-1.92H166l0-1.5.17,0Zm.79-34.67-.5.05-.13-1.49.94,0-.37.76Zm1.92-9.11-.26-.34-.08-1,1-.09.37.47.08,1Zm.51-35.3-.55.28,0-.4,1,.07v.07Zm-.87-17.54-1.32.11,0-1.33,1.15-.1Zm-4.11,4.35-.34-.14-.46-1.45.43-.71.43-.08-.22.56Zm-3.5,1.8-.22.23.13-1.19.07,0,1.78.16.07.78Zm.2-5.34-.06-.66v-.16l.64-.06.07.83Zm-1.2,3.43-.16,0-.72-.61-.89.08,0-.16.2-.52,1.3-.41Zm-6.91,33,.05.07-.17.44-.74,1.14-.21,0,.14-.87-.35-.64Zm-5.81,41.89-.3.35-.05-.54.32-.14Zm3.21,29.74.13.37-.2,0Zm5.91.37.25-.3,0,.78h-.16Zm.91-8.56-.12-1.32,1-.24.15.64.06.66Zm3.4.87h1.16l-.77.62.91.92,0-1.54h.34l0,1.5-1.31.28-.09-.08-.3-.55-.13.07Zm1.89,6.48.11,1.21-.68-.16-.6-.8Zm1.29-8.09.47.29-1.26.11-.1-.42Zm5.57-.48-.39-1.14.17-.2,1.2.75.54.38v.07l-1.17.24Zm1.25,6.2,0,.33h-.12l-.31-.72Zm14.45-5.75.41-.09-.31.57Zm-3.46-7.58-.35.1-.1-.32.25.14Zm-3.43,1.66.58.32,1-.35.75.87.22.64.84.59-1.45,0-.75.4-.55.05-.89-.75-.17-.2Zm-4.43,1.92-.36-.3.32-.18Zm-1.75-1,.43,1.13,0,.46-.16,0-.61-1.28.22-.35Zm-.58-40.83,1.48-.13.57.79.12,1.32-1.13.43-.7-.44-.55-.62Zm12.5.41-.61-1.28-.72-.6-.57-.09,1-1.27.24.81.55.61,1.53.37.55.61.09,1-1.14.27Zm2.12-4.8.07-.55.74-1.06.58,1-.59,1.86-.67-1.09Zm-4.41-4.31,0-.13v.15Zm-9.5-2.16-1.3.28-.06-.66,1-.42.24,0Zm14.86-44.84.2.48h0L186,79l.21-1.35.59,0Zm1.8,1.67-.06.51-.1-.49.45-.54.39.11Zm.63,1.44-.5.05h0l.5-.05ZM179.07,93.14l0-.1h0Zm.24-8.76,1.25-.94h0l0,.33L181.93,85l-.33.83-.49,0L179.5,85Zm4,4-.3-1.47,1.64-.31.24,1.27-.13,0-.54.38ZM185.85,85l.12-.92.55,1,.09.08Zm-2.19-2.13-.63.39-.18.16-.88-.9,1-.09.75-.9.48-.8.29.07.28,1.31Zm-2.28-3.29-.82.07.28-.52.61-.37Zm-3.14,2.1.27,1.14-1.31.28-.37-.46-.1-1.16,1.14-.26Zm-1,6.07,1.45-.46.35,1.17-1.46-.58-.31.28Zm3.92,3,.53-.55.33,1-.45.54-1.32.11-.17-.84Zm12.21-12.37-.54-.45.27-.84.15,0Zm-.65,5.87.24.65-.35,0-.27-.17ZM175.1,138.88l-.15-.52,0-.92-.34-.12v0l1.6-.64.65-.22.44-.7.45-.54.38-1.36,1.34.21.12,1.32-.27.69-.6.72-.44.7-.51.61-.12-.22-1.59.8-.28.69Z"/><path class="cls-2" d="M273.79,176.65l-.48-3.61-.13-1.49-.28-1.3,0-2.32-.21-2.48-.27-1.14-.35-2.13-.09-1-.87-6.23.06-1.17-.37-2.3-.05-2.49-.38-2.46-.1-1.15-.83-7.57-.43-4.95-.28-1.3-.34-2-.56-6.43-.49-1.78-.4-2.63-.09-1-.35-2.13.08-1-.37-2.3-.28-3.29-.54-2.28-.31-3.63.06-1.17-.38-2.46-.2-2.31-.62-3.27-.35-2.13-.21-2.31-.68-5.92-.26-3-.42-1L261.67,76l-1.12-7-1.23-.73-.85-.26-2.64.24-1.47.29-1.18-.23-1.49.13-3.11.44-2.64.23-1.64.31-3.15.11-1.64.14-1.14.27-.51,1.87-.4,1-.4,1.2-1.22,3.1-1,2.24-.73,3.06-.26.85-.57,1-.83,1.9-.23,1.18-.24,1-.41,1-.23,1.18-1.22,3.1-.4,1.19-.35,1.7-.86,1.57-.4,1-.64,2.22-1,3.58-.57,1-.72,1.23-.3,2.35-.8,2.23-.26.86-.3,2.18-.73,1.23-.31,2.19-.4,1-.83,1.9-.58,2.87-1,2.25-.38,1.36-.91,4.74-.41,1-.63,2.38-.4,1-.4,1.2-.08,1-.78,2.4-.23,1.18-.82,2.07-.71,1.39-.2,1.51-.23,1.18-.95,2.41-.39,1.2-.64,2.22-.41,1-.06,1.17-.24,1-.66,2-.72,1.23-.24,1-1.06,3.09-.47,2.2-1.47,4.12-.65,2.05-.82,2.06-1.22,5.09-1.13,2.26-.81,2.07-.08,1-.23,1.19.44,1.29,1.52.2,12-.89,1.17.06,2.49,0,1.3-.28,4.63-.24.94-.74.55-1.22.43-.86.33-1.86.78-2.56,1.37-3.28.49-2,.39-1.19.23-1.19,1-2.24.66-1.89,4.46-.39,7.27-.47,2.66.1,3.65-.15.28,1.3.67,7.75,0,1.67.31,1.63.43,3,.47,1.62.7.43,2.48-.21,2.16,0,1.63-.3,1.14-.27h2l1.32-.11,3.62-.49,2.31-.2,1.33.05L272,183a6.86,6.86,0,0,0,1.81-.16c.78-.57.49-2,.27-2.69Zm-6.66-.25.44-.72.17.17.68,1-.36.27-.09,0Zm-8.59-1.24-.54-.45-.1-1.16,1-.58,1.37.33.15.74v.78l-.32.38Zm-3.09,2.6-.12-1.32,1,.08.11,1.15Zm-3.35-9.28.39-.72.76.05-.08,1-1.16.1Zm-18.79-4.07-.21-.82,1-.25.2.77-.94.29ZM215.17,160l-1.19.26,0-.16,1.08-.47Zm16-61.42.1,0-.12.51-.28,0,.08-.34Zm7.33-10.41,1.81-.16,0,.2-.32.16-1.29.45-.11-.1Zm5.26-12.09.21-.55.42.16-.6.4ZM248,73.22l-.29.06.19-.35Zm3.23,2.71L251,76l-.53-1,.65-.24Zm.2,6.13-.48.11-.19-.21.59-.29Zm3.22,2.55-.66.06,0-.5.34-.15.19.44.07-.16ZM257,81.08l.83.42-1.28.12v-.29Zm-2.54,90.62.17-1.35,1.36-.11-.08,1-.22.75Zm-32.85,6.36-.1-1.15,1.16-.1.1,1.15Zm-3.17-9.69-.92.73h0l-.13-1.47.25-.15,1.07,0,.36.3Zm3.47-30.55.76-.26-.69.52ZM262.72,109l-.69-.27,0-.66.84.09Zm-15.54,44.56v0l.31-.17.12.21Zm-6-7.78h-1.83l-1.32.12-1.24-.89.4-1.2.2-1.51.23-1.18.57-2.88.56-1.21.61-2.55.07-1.16.67-3.72.36-1.53.4-1.19.36-1.53.56-1.21.06-1.17.52-1.71.54-1.38.6-2.71.35-1.69.59-2.71.47-2.2,1.28-.61.5,3.78.35,6,.38,6.28.51,3.94-.21,1.35L248,134l-.07,1.17.38,4.29-.05,1.33.28,1.31,0,2.32-.91.91-4.95.44Zm-26.54,27.08.93-2.16h.07l.59,1.35v.4l-.25.45-1.23.59Zm1.86-11,1.13-.85.72,1-1.57,1.13Zm1.8-8,1.34-1.78,1,.34v.91l-.67.25h-.14l-.19.13-.77.28-.26.19Zm20.49-59.67.94.8.94-.22,0,1-1.35-.21-.55-.62Zm7.47,7.19-.26-1.29h.23l1.08.47.3.87-1.15.11ZM230.52,155l-.44.14.33-.64Zm-5.84-8-.39-.63.21-1.35h.09l.09.14.31,1.63-.26.19Zm2.67-4,.76-.47,1.07-1.09h.16l.3,1.47-.46.54-1.32.11-.53-.45Zm9.3-22.48-.44.7h-.65l.29-.29.76-.61ZM235,147.31l-.2,1.51-.48-.4.16-1.4.56,0Zm-2.1,4.5-.73.28-.3-.69.86-.32ZM228.67,149l.44-.81.48-.1-.05,1.25Zm4-32.09.27.62,0,.35-1,.25-.13-.64,0-.51Zm.71,11.9.88.59-.59.88-1.05-.57Zm-.91,16.2.74-.19-.06.46-.88,1.24-.65.22-.31-.18Zm3.11-17.56-1.29.45-.05-.27.34-.26.44-.7.75-.9.16,0ZM235.52,113l.62-.18.1.49Zm1.38-.91v0h0Zm-5.24,19,.8.5-2,.5-.73.25.06-.36,1.45-.46Zm-6.95,20.12,1.8-.32.35.3-2.14.19h0Zm15.91-38.45.49,0,0,.49-.39.2Zm8.7-9.13.39.19-.4,0Zm-1.77,2.88v0l0-.05Zm1.26-8.42-.21-.48.54.45Zm17.77,66.41-.06,0-.1-.52ZM250.9,142.93l.27,1.14-.85.18-.21-.92.38-.31Zm4.92,8.71H256l-.09.14ZM253,121.8l-.88-.59.57-1ZM255.29,138l.61.14-.59.13Zm1.41,4.14.44,0,.17.8Zm-.62-5.55.41-.08,0,.28Zm-.95-6.11-.06-.09.09,0Zm-.46-10.93-.58-1-.71-.59.13-.35h.07l.42,0,1.07,1.28,0,.44Zm-3.52,12.94.72.6,1.4.87-.12.51-2.15-1.8,0-.39Zm2,7.8,0-.4.41-.14.3,1.47-.35.11Zm4.35,7.92.2.43.09,1-1-.4-.89-.76h0Zm.43-8.34.15-.18.1,1.15.43.3-.4,0Zm-.08-23.76h-.94l.69-1,.24-1,0-.16.19,0,.31,1.63Zm-2.23,8.67-.89,1.24-1.09-1.06-.39-.44.66-.25.09-.84,1.1.71Zm-1.55-19.3,0,0,0,1.31H254l-.09-.31,0-1Zm.24,6.29.31,1v.48l-.62.55-1.39-.71-.55-.61.13-.35.66-.06Zm-2.72.41-.25-.15h0l.5,0Zm2.71,33.66.31,1.63-1.48.13-.3-1.47Zm3.64,9.32-.11-.53.23,0,.1,1.15-.45.54-1.33,0,0-1Zm1.71-9-.73.42-.07,0,.28-.69.82-.07-.07.89Zm2.35,2.12.25,0,0,.55Zm.91-4.73-1.35-.22-.11-1.32.3-.35h0l.15-.18,1.33,0,.13,1.49Zm.57,4.6.23.67-.83-.62Zm-2-11,0-.81.3.78,0,0Zm-2.5-3.94,0-.31.17,0,0,.13Zm-4.81-36v-.16l.2.17Zm-2.12,2.35,1.15-.1.05.51-.8.38-.46-.09Zm-2.27,50,.08-.1.77.35-.4,1Zm5.53,8.15.13,1.49-1.33-.05-.28-1.31Zm4.11,1.31-.06-.66,1.09-1.3v.37l1.05.57.08-.34.41.3-.69,1.56-.59.3Zm2.92-10,.36.54-.12,0Zm.72,6,.81-.23-.08,1-.84-.09Zm2.48,11.25v.42l-.78-.43Zm.38-20.31-.69-.27.12-.51.68.11Zm-4.12-14.76-1.39-.71-.4-.79-1.24-.89-1.69-.35-.1-1.1.85.2,1.4.88,1.09.19.28.19.85.25.93,1.09Zm-2.43-13,0-1,1.17.07.08.42Zm.57-12.06-1.33,0,.21-1.35,1.17.06Zm-4.42-9.82-.1-.09-.46-.46.58-.05Zm-3.61-2-.32-.08-.34-.64-.08-.32,1.29-.45.28,1.31Zm.31-6.12-1.32.12.07-1.17,1.14-.27ZM249,90.58,248,91l0-.49.7-.14Zm-1.33-6.21,0,.13,0-.11Zm-2.48,4.39v0l.16-.14.3.14Zm.34,5.78.78-.48.1,1.07-1.32.12,0-.52Zm-2.62,4,.44-1.85h.54l.29,1.47Zm-4.63,6.3-.45.83-.87,0Zm-2.68,2.9h-.06l0-.1ZM229.66,120l0,.06V120Zm-4.34,19.21-.95.58-.06-.66,1-.08ZM222,148.61l.33-.52,1.11-.1-.23,1.18.27,1.14-.19.11-.78.31-.7-.44-.12-1.36Zm-.57,18.17-.71-.44-.71-.6,1.26-.78.94,1.25-.07,1.17ZM232.79,157l.73-.06-.05,1.33-1.19.26.51-.36Zm21.94,6.89-.39.39.21-.54,1.48-.13.33,1.8-1.48.43.58-1.18Zm2.72-1.23.07.32-.21,0-.2-.41Zm7.33-22.58-.27-1.14h0l1.32-.11.27,1.14Zm-4.09-27.72-.19,0,.14-.17ZM258.22,88l-1.33,0,.05-.19,1.35-.25Zm-3.57,2.8-.74.88,0-1.48.65-.13Zm-11.63,0,.33,0v.17Zm-11.66,20,.92-.32,0,1.14-.24.28-.9.34-.09-1.07Zm-9.27,33.31,1.1-.76.36.3-.78.57-1.42,1-.29.47-.68-.22.05-1.33,1,.57ZM219,151l.91.41-1.06-.23L219,151Zm-5.26,13.9.85.28-.42.87-.58-.49Zm11.09,3.37.2-1.51,1.09-.93.1.06-.39.47.07.82-.25.83Zm1-8.06-.18.66-.4.62-1.7-.75-.25-.23,1.12-1.17.25-.4.69-.35-.34-.28.55-1.07.63-.38.84.09,1.31,1.63-.33.11-1.11.6Zm4.7.2.68.49-.14.27-.7-.36Zm7.22-2.57-.15-.31,2,.32.41-1-.57-.71.51.05.22.65-.7,1.39Zm1.93-6.48.18-.28.19.24Zm3.49-.64.45.13-.55,0Zm7.18,4.85,1.29-.44.11.06-.4.46-.93.75ZM259,169.14l-.33,0-.1-1.09.21-1h0l.56.62Zm7.47,3.66v0l0,0Zm-1.81-39,.05-.11,0,.08Zm-.54-1.22.2-.35.92-.08.17.48Zm-.64-11.08-.06-.66.3-.36.22,0-.21.92ZM248.14,79l-.83.07-.11-.32.74-.07H248ZM244,82.71l-.13-1.48,1.34,0,.13,1.48ZM240.66,79l.06.66-.35-.13-.56-.78-.56-.62-.54-.45,1.35.21ZM234,102.09l-.93.19-.07-.79.17.12Zm-13.31,39.16,1.19.33-.45.6-1.21-.56-1-1.57-.64-.65.08-.19.67.16.93.37-.14,1.06Zm-11.3,36.05.43.07.27.37-.84-.09-.13-.11Zm2-2.16.27-.69.44-.36,1.43.86-1.2,1.43h0l-.69-.44Zm6.17.29,0-1.5.45-.54.27,0,.25.31,1-.09.23,1.14-.23.58-.39,0-.88.36Zm6.21-1.78.33.54v.69l-.36-1.16ZM239.86,163l-1.21,1,.16-1.49Zm2.47-9.85,1.48.23-.27.33-.77.73-1.12.43-.66.06-.65-.81Zm-.49,5.86.95,0,.05.06.51.08.11,1.23-1.07-.78-.82-.37Zm-.5,1.87.42.19h-.47Zm2.81,1.75,0-.06.64.33-1.17.51Zm2.89-3.08-.39-.63-1.4-.88-.59-.09.06-.19-.89-.75h0l.16-1,.06-.17,1.13-.43.44.44-.07,0L246,157l1.32,1.72,2.35.37-.05,1.25-1.48.13Zm4.3,3.58-.28-1.27,1.16-.1.43,1.12Zm9.56,6.67.76-.15-.69.94Zm1.47-.29v.05l-.09,0Zm3.55,4.51.3.3-1.26.11,0-.47Z"/><path class="cls-2" d="M358.35,60.41l-1.44-1.2-1.33-.05-1.47.29-1.14.27-1.67,0-1.14.26-1.32.12L347.68,60l-1.16.1-4.77.59-1.17-.07-1.15.1-4.93.6-.4,1.2-.05,1.33-.3,2.19-.3,2.35-.3,2.19-.08,1v2l-.08,1-.67,1.89.27,1.14-.14,2.17-.13,2.34L332,84.48,332,85.81l-.13,2.34-.05,1.33-.46,2.37.33,1.8-.85,1.74.2,2.31-.09.83-.13,2.34.12,1.32-.46,2.37-.05,1.33-.46,2.37-.15,2-.31,2.18-.14,2.18.11,1.32-.62,2.38-.23,1.18v2l-.4,3-.19,1.68-.14,2.17-.06,1.17-.22,1.35-.23,1.18,0,1.5-.2,1.51-.24,1,0,1.66-.22,1.19-.3,2.35-.53,3.37-.25,1-.2,1.51-.68,1.72-.92,2.74-.41,1-.87,1.41L321,155.57l-3.75.83-3.5-.19-1.86-.34-2-2-.34-2-.16-1.81-.39-2.63.06-1.16.08-1,0-1.5.15-4,.31-2.19,0-2.32.21-3.34.3-6,.16-2,.47-2.2-.19-2.14.33-2,.24-1,.23-1.19.05-1.33,0-1.5.53-1.54-.52-2.11.08-1,.63-2.38-.1-1.15.21-1.35.06-1.17,0-1.66.4-1.2.08-1,.11-2.5.28-2.52.05-1.33.62-2.38.06-1.17-.14-1.65.05-1.33.14-2.17.49-2-.1-1.16.24-1,.06-1.17.22-1.35.2-1.51.23-1.19-.37-2.29.23-1.19.24-1-.2-2.31-.38-2.46-1.59-1-2.65.07-1.5,0-3.93.68-6.94.44-1.47.3-.82.07-2.79.41-1,.42-.22,1.34-.45,2.37-.13,2.34-.19,1.68-.25.85-.64,2.21L290.19,81l-.25,1,.11,1.16-.3,2.35.12,1.32-.05,1.33-.29,2.36,0,1.33L289.41,93l-.63,2.21-.08,1,.1,1.15-.14,2.18-.25,1-.09,4.66-.41,1,0,2.32.12,1.32-.46,2.37-.31,2.18,0,2.33-.47,2.2.18,2.14-.22,1.19-.33,2-.06,1.17.27,1.14-.33,2-.07,1-.07,1.17-.48,2,.18,2.14-.18,1.68-.16,2,0,2.49,0,2.15-.27,4.51-.2,1.52.33,5.62-.08,1,1.15,5.55.37,2.3.89,2.58,1.52,2.19,1.55,2.52.21.48.94,1.25.91.92,1.09,1.07,1.79,1.5,3.48,1.69,1,.41,1.2.39,2.89.75.68.27,1.19.23,6.83.23,3.3-.29,2.46-.38,3.79-.33,3.27-.62,1-.42,1.46-.46,1.93-.66,1-.42,2.56-1.22.76-.73,1.91-1,1.25-.94,1.41-.95,1.17-1.77,1.39-1.28.86-1.57.53-1.54.72-1.23.56-1.21.79-2.4.57-1.05,1-2.24.3-2.19.74-1.06.25-2.85.47-2.2.49-2,.23-1.19.24-1-.1-1.15.2-1.51.34-1.86.22-1.18-.08-1,.3-2.19.49-2,0-.33.3-2.35.06-1.17.46-2.36.3-2.19.16-2,0-2.16.54-1.37.13-2.34-.1-1.16.46-2.36,0-2.33.13-2.33.08-1,.29-2.35-.09-1,.28-2.52.84-3.73L354.32,98l.23-1.18.08-1,.23-1.19-.1-1.15.32-2,.2-1.52.36-1.52.2-1.52.34-1.85-.09-1,.49-2-.25-1,.47-2.21.06-1.16.22-1.35.06-1.17.46-2.37,0-1.33.13-2.34.21-1.35-.05-2.49.79-2.39Zm-6.1,25.29-.62.55.22.47-.46.55.06.66-.05,1.34L351,90l-1.45.46-.62.55-.44.7-.56,1.22-.91.91-.68-.11-.62-1.44-.06-.7.85.3,1.11-.6,1.27-.77-.27-1.14.08-1,.73.77.72.6.38-1.36-1-1.68,1.05,0,.75-.9.29-.52.41-.42,1-.21.72.6-.19.22Zm-4.2,47.37-1,0-.09-1.13.09,0h.1l1,.72Zm-21.37,38.29-.34,1.19-.72.07-.24-1.21.23-.29,1.2-.1.06.26Zm-7.1,2.45h0l-.5,0-.11-1.32.45-.54,1.17.07.28,1.3-.63.39ZM293.27,86.28l.09-.08.6,0,.9.41.18.49.5.42.24.51.21.18-.6,1-.08.4-.59-.51-.62-.38.54-.44-.59-1.11-.84-.7Zm9.42-16.18.26.28-.06,0-.23,1.19-.79-1.43,0-.09Zm1.64-1.17-.24,0-.55-.62,0-.09h1.17Zm6.08,89.4-.26.1-.07-.08-.56-.78.57,0Zm1.66,1.84,1-.08.17.29-.05.7-.56,0,0-.34-.53-.45ZM326,165.11l-.56,1.21.08.07-.39.12-.28-1.3,1-.21ZM342.51,64.26l.06,0-.4,1.2Zm2.79,37-1.09.76.07.82.35.34-.46.34-.27.68.19.94-.36-.92L343,103l-.24,1-1.07,1.09.77,1.26,1.38.54.27-.69.08-.72,0,.21.69.28,1.5,0,.59-.88.11-.68.45-.53.57-.14-.23.27.28,1.4-.46.28-.92.91v0l-1.1.56-.56,1.21-.4.14-.66-.88-.56-.61-.7-.44-.69-.27-1.51-.2,0-1.24.33-.46.72-1.15.77-.8.44-.71-.36-.7V99.68l-.81.8-.48-.35-.86-.95-.11-.63.9-1.23.69.43.72.6.56.78.93,1.08,1.54.53.24.27Zm4.51,11.45-1.25-.77-.53-.45-.28-1.31.73-.17.43.24.93,1.08ZM338.39,159l-.25.05-.64-.81.76-.71Zm-9.17-7.62.22.26.69.27.33,0-.45.54-.91-.92ZM335.89,83l.82-.26.17.17,0-.24.43-.13.54.45,0,1.5-.82.07-.35-.13-.48.2Zm16.33-10.9.75,1,0,.28-1.47.28-1-.62,0-.12.44-.71,1.16-.23Zm-9.45,38.22.7.43.31,1.64-1.3.28-.71-.44-.38-.63.06-1.17Zm3.1,18.34-.54,1.37-.11.68-.63.38-.81.24-.64.63-.51-.9.42-.5-.06-.66.27-.68,1.89-1.17Zm-.34,7.89-.13.26-1,0-.24-1.13,1.33.83Zm-1.37-1,0-.13h.06ZM332.54,109.2l.21-.55,1.05-.23-.05,1.33-.64.06Zm4.71-31.66.3-.36L339,78.43l0,.12.18,2.15-.12.27-.57-.54-1.06-1.2.27-.23Zm7.89-4.68,1.16.54,0,.06-.88.87-.5.27-.41-1.18.42-.5Zm3.13,3.39-.45,0,.4-.48Zm-1.52,2.57.11.37-1.73,1.15,1.65.3-.89.8-.45.54-.12.22-1.47.58-1.58,1,.89.59.58.12L343,85l-.15-.18-1.23-.72.05-.6.81-1,1.07-1.09.06-.09.89-.49-.07-.83.37-1.36.71-.51Zm-5,14.28-1,.2v-.11l-.71-.6-.24-.81,1-.09-.08.67.63-.64Zm-3.2-2.38-1.48.13L337,90l.3-.36.73.77.51.12ZM343.27,78l-.29,1-.84-.62-.55-.61.35-1.69.71-.15Zm-2.08,2.84-.73.41.52-.89.15-.77.12.09Zm-1.64,22H338.3l-.3-1.47v-.17l1.15-.1.56.62Zm-1.77,15,.19.26,0,.22-.44.7-1,0,.12-.73-.57-.78-.25.36-.09-.5.45-.54h.37Zm-1.22-12-1.3.28-.1-1.15,1.14-.27Zm2.72,31-1,.09-.34-.47-.05-.66.82-.08.57,1Zm-4-3.7.07.29-.54.14Zm.2-4.62-.61.06-.13-1.49-.09-.45.05,0,.89.75.06.66Zm2.45,2.73-.36-.25-.08-1,1.19.33.23.71Zm.31-5.37-.48-.3.52.21Zm-.91-12.81-1.3.28-.37-.46-.28-1.31.27-.68,1.32-.12.7.44.12,1.32Zm-3.48,2,.46-.32,0,1.28-.46,0Zm0,34.07L334,149h0l.27,1.14-.41.08ZM337,152l-.23-.9L337,151l.22.14Zm1.43-8.7.29-.1.64.22-.95,0Zm2.8-9.46-1.08-.9.11-.67.48-.3.38.72.71.82Zm-5.11-33.61-1.15.1-.16-.14,0-1.18,1.49-.13Zm6.25,18.23L342,117l1.63-.31.3,1.47ZM340.17,122l.17-1.48,0-.17.83-.07.13,1.49Zm.49-6.6-.17-.71-.24-.81-1,1.75-.19.13-.51-.57,0-1.33.29-.53,1.48-.13.39.64.11,1.31Zm-.31-6.18-.44.7-1.51-.2-.13-1.48.61-.56,1.5,0Zm-2.06-14-2.2-.47-.1-1.15.07-.08.8.5.69.27.7.44.54.45.7.44Zm4.17-5.51-.63-1.61-.86-.26-.66-.43.73-.74,1.33,0,.79,1.43.31-.79.13.09.66-.06.68-.65-.28,1.44L343.48,90l.83.92-.25,0-.67-.11-.54-.45Zm5.65-7.64.29-.53.86,0,.33.37-.18,1.67-1.17-.06Zm1.4-6.1-.12-.18h.17Zm-8.35-4.93.78-.56.42,1-.16.29h-1.14l-.15-.22Zm-1.22,3.1.2-.85.24.15.23.81-.53,1.54-1.55-.7-.07-.1.89,0Zm-3.63,2.15.19.13,0,0-.54.43ZM341,150.5l-.76-.18-.09-.08-.12-.06.83-1.33.35.3.35.38Zm1.11-4.42-.42-1,.52-.2.14.14.58.85Zm3-22.86-.43.7-.94.75h-.05l0-.17v-2l.07-.63L345,120.4l1-1.42,1.38.55.13.38-1.16,1.2.38.28,0,0-.61.56Zm4.24-6.68-.19,1-.76-.41-.55-.62-.72-.6-.13-.08.1-.25-1.24-.89-.58-.09-.64-.63.73-1.06,1.37.38.91.91.38.63,1.26,1.06.2.21Zm-4.38-7.67.12,0-.06,0Zm-.2-12.37-.58-1-.06-.66-.77.73-.11,0-.08-.35.6-.72,1.5,0,.14,1.59Zm1.14-6,0,0,0,0ZM347.13,88l-.05.11L347,88l-.74.16.33-1L345.32,86l.26-.56.32-.52.48.11h.88l.12.07.94,1.25.52.29H349l-1.1.74Zm5.17-7.77-.21-.14-.55,0-.5-.62.89-1.24.45,1.29.68.34Zm-.3-12.6-1.47.3-.11-.53,1-.22.43-.13Zm-5.26-1.2-1-.41-.45.54-1,.42,1.06-1.26h-.52l.46-.65.29-.6.18.23.07.82,1,.83-.07.09Zm-8.09,6-.65.45-1.37-.37.95-.85,0,.1Zm-11.38,83,1.14.28-.17,1.3-.86-.26-.47.33-.1-1.25Zm-3.06,3.93,0-.67.25,0Zm-4.42,5.54-.92.91.9-1.08.22-.35Zm-2.65,3.88,0-.09.1.07Zm-1.65.15.2,1.24-.28-.24,0-1Zm-1,3.93-.46-.53h.47ZM300.07,80l.54.45.43,1.12-.8.49-.9-.84-.67-1.1Zm4.65-5.73,1.15-.1,0,0,.15.19-.74,1.06-.63.39-.7.84-.39-.08-.2-.63.59-.57-.06-.66L304,74Zm2,3.65.44-.7.1-.21,1.82-.63.28,1.43-.8.28-.78.57-.42.87-.06.13-.73-1.56h0Zm-9.77,74.47.33-.09.22.71h0Zm-.83-67.65.11-.43.85-.73L298,84.8l.55.62h.89l-.37.27-1.15.1-1.35-.21Zm6.31-8.24.34-.06.26,1.14.18.69-.25.31-1.26-1Zm3.37,4.16-.24.52-.38,0-.46-1.45.71-.58Zm-13.3,55.44H293l0,1.5-.55.11.05-.06.4-1.2ZM306,126.79l-.17-.58.82,0-.19.79-.29-.05Zm-7.73,10-.37.59h-.58l.15-1.13.06-.22,0,0,0-.12,1.66,0-.2,1.51h-.14ZM296.1,141l-.34.09.31-.25Zm5.45-8-.31-.19h.46V133Zm2.58-8.53-.82.19-.19-.27.71-1.39.54.86Zm-.83-7.57-.06-.12.09,0Zm-4.9-2.4v-.33h1l-.11.24Zm1.92,6.31.24.84-1,.22-.1-1.15.55-.13Zm-1.82-11.3.22.14-.21,0Zm5.86,21.42.1.16-.07.17-1.15.1-.06-.11Zm-1.57-19.81-1.07.58-.07-.31L303,111l.05.26Zm-6.11,13.67.82-.08.48.17-.09.47-1.32.11Zm8.59-4.41.57,0-.55.31Zm.6-4.54-.42,0,.18-.85.26-1,.43,1.22Zm-.68-13.4ZM302,99.74l-.49,0-.4-.79-.66.12,0-.39,1.41-.29.07.1Zm-4.31,3.87-.14-.14.34.09ZM296,117.38l1.25,0,.24.47,0,1-1.62.47-.29-1.47Zm-.33,16.13h.08v.12Zm1.28-3.42,1,.06.13.18-.05,1.16-1-.08Zm6.65,5.73,1.29-.44.08.25-.51.61-1,.42.35.8-.44,0-.27-1.14Zm1.35-28.2-.91.08.06-.34,1.13,0Zm-.71-11.9.15-.18,0,.31Zm-4.6-3.26,1.64-.14v1.83h-.42l-.34-1.09-.89-.35Zm-3.61,13.9,0,.21L295,107l-.3-1.47.78-.17-.39.8Zm-.71,33-.19.35-.1-.32Zm10.2,8.91v.19l-.2-.14Zm-1.89-57.66-1.16.1-.08-.45.19-.22.09-.84.24-.36.71-.22.46.38-.49,1.11Zm0-8,.4.79-.73,1.23-.6.71-.43.71-.19.22-.2-.85.9-1.08.71-1.39.06-.37ZM301,87.19l-1.09.76-.89-.58Zm-2.79,2.24.42.59,0,.21-.93.94-.31-1.83Zm-3.93,31.25.16.29,0,.87-1,.25-.12-1.32Zm1.18,20.45-1.18.33-.27-.79Zm6.93,11.25.33.55-.62,0-.07-.79Zm4-60.43.06.09,1.08.48,0,.26-1.15.1Zm-8.61,3.5-.86.15,0-.07.67-.15Zm-2.4-.78h-.17l-.59-1.09.92-.08ZM292,125.61l-.53,0-.12-1.4.66,0Zm-.08,5.09.31,1.64-1,.19-.58-.72.19-.9Zm-.23,12.65.41-.48.57.23.3-.36.5,0,.14.74-1.36.53-.52-.17Zm8.19,17.56-.18-.08,0-.23,1.31-.28.11,1.32-.75.16Zm5.62-6,1.05.57-1.47.29-.23-1.17Zm3-70.23-.75.9-.1.84-1.05,1.26-1.35-.22L304.92,86l.53-.47.26.07.53-.71,1.56-.14.06-.81.71.08.27.64Zm-.58-.94.27-.69.45-.54.07.83-.8.49ZM293.13,150.7l.07.05h-.05Zm3.32,7.52.95.15,0,.77-.84,0Zm5,9.2-.05-.47.17,0,.23,1.09Zm4.62-6,1.42-.27-.18,1.16-1.09-.15Zm.25,4.79,1.3-.28.54.46.1,1.15-1.18-.23-.72-.6ZM298,75.66l-.37-.47.09-.39.37,0,.55.61.79-.56.14-.13-.09.79Zm1-6.23h-.05l0-.17,0,0Zm-3.46,7.94,1.25-.43-.11.17-1.11.56Zm8.68,98.45.32.64-.68-.43,0-.18Zm0-4.82-.38.34-.25,0-.12-1.32,1.47-.3.23,1.06Zm7.18,4.19,0,.46-.34-.1-.48-.19Zm1.57-3h.65l-.71,1.16.32.35h-.46Zm9.78-2.19-.54-.45-.12-1.32.36-.08.68.49.77.38.15.7Zm10.46-5.73.74-1.06.65-2.06L335,161l.78.92-.89,1.24-.61.55-.92.91-.38.85Zm8.29-12.48.24-.23,1.41.87,0,.1h-1Zm6-25.33-1.18-.23-.15,0,.06-1,1.17.06.1,1.16Zm1.81-4h.05l.4,1-.2,0Zm.92-21-.32-.68-.22-.64-1.21-.56-1.68-.19-.3-1.47.45-.54,1.46-.45.94,1.24.06.66.89.75.69.28.21.4-.62.63Zm.7-6.08-.3.06-.41-.67-.57.05v-.66l1.32-.12ZM309.21,70.52l-.22.92-.5.31,0,.26-1.08-.15.49-.89.9-1.08Z"/><path class="cls-2" d="M435.57,52.32l-3.28.46-1.85-.17-4.28.37-2.63.4-2.5-.12-5.41.81-1.1.76-1.46,2.29-.85,1.73-.41,1-.63,2.21-.79,2.4-1.2,3.43L409,69.11l-.25,1-1.13,2.26-.06,1.17-.58,1-.8,2.23-1.3,4.11-.83,1.9-.65,2L402.21,87l-.08,1-.56,1.21-.81,2.06-.26.86-.24,1-.43.87-.67-.1-.38-2.46-1-4.23-.5-1.95-.13-1.49-.64-1.6L396.12,80l0-1.67-.8-1.59-.43-1.12-.7-2.27.08-1-.74-4.59-.77-1.26-.15-1.65L392,63.61l-.33-3.79-.64-1.61-2-1.82-2.48.22-4.47.22-1.78.49-1.17-.06-1.63.31-2.33,0-4.27.54-1.31.28-.79.41-.38,1.36.14,1.65L369,64l.53,2.28.25,1,.35,2.13,1.09,4.89.87,2.25.1,1.16.54,2.44.6,1.11v2l.44,1.29.69,4.09.28,1.31,1,2.4.73,2.59.1,1.16.52,2.11.85,2.09.66,1.93.27,1.14.75,2.93.72,2.43-.08,1,.53,2.28.59,1.11.12,1.32.71,2.43.55,2.45.43,1.12-.05,1.34.29,1.47.64,1.6.34,2-.58,2.87v2l-.5,1.87.1,1.15-.08,1-.47,2.2-.26,2.68.14,1.65-.38,1.36-.29,2.35-.12,2.51-.39,1.19-.14,2.18v1.83l-.51,3.7-.36,1.52.16,1.82-.24,1-.07,1.16-.08,1-.23,1.18.26,1-.15,2.17-.15,2,.35,2.13,1.9.83,2.47-.22L386,173l3.47-.3,1-.25,2.49-.05,1.48-.13,1-.25,1.33.05,5.94-.52.52-3.54.24-3,.29-2.35.44-2.53.23-1.19.28-2.51.13-2.34-.09-1,.23-1.18.35-1.7.06-1.16.46-2.37.44-2.53.3-2.36.3-2.18-.25-1,.25-1,.15-2,.19-1.68.33-1.86.48-2.2-.11-1.15L408,127l.75-.9.43-.87.21-1.35L410,123l.48-2,1-2.08.41-1,.43-.86.9-1.08.8-2.23,1.15-2.1,1.06-3.08.84-1.73.8-2.23.56-1.22.57-1,1.47-2.29.07-1,.74-1.06.26-.85,1-2.08.25-1,.39-1.2.64-2.21,1.4-3,.24-1,.58-1,.07-1,1.15-2.1.79-2.39.9-1.08,1.21-3.26.24-1,.58-1,.23-1.18,1.16-1.93.48-2,.59-.89.82-2.06.06-1.17.57-1.05.82-2.06.24-1,1.16-1.93.26-.86.31-2.18-.19-2.15ZM392.69,166.25l-.2.35-.76.06,0-1.49.91-.08Zm-6.31.05-.37-.77,1.09,0,.09.49Zm-11-95.42.19-.47.26-.06.39,1-.38.21-.25.06Zm-1-5.72-.05-.5.44.36Zm12.11-2.06,1,.08.24.81-.24.06-.47-.5-.47-.15Zm19.14,32.56.31.38-1.44,1.88-.83.07-.42.86-.44.71-.63-.31.16-.5.37-.35.11-.27,1.7-1.88Zm8.52,2.41-.27.69-.06-.66.22-.26ZM394.4,162.94l.19-1.68h.15l.74.75,1.18,1-.06.41-.55.05-.47-.29-.9.08ZM380,80.28l-1.61.29.89-.89.55-.33ZM393,90l.74.93h0l-1.45.46-.31.3-.37-.41.05-1.17Zm7.14,14.23-.54.48-.06.07-.12-.22-.76-1.1-1.05,1.26-.05,1.33-.39,1.2-.83.07-.26-1.14,1.35-1.61,1.49-2.4,1.28,1.82Zm12-24.88.85-.16-.44,1-.18.26Zm-1.94,9.43,1.09-.22.28,1.31-1.29.44-.3-.93ZM413,85.37l.33,0-.32.07Zm1.19.15-.26-.1h.24ZM409,92.2l.25,1-.16,0L408,92.13Zm-11.46,61.51-.13-.25-.08-.91h0l.83.42.6-.11,0,.89Zm-3.91-9.31-.28-1.31,1.12-.09,0,1.33-.15.09Zm-8.78-44.27.25,0,.07.74-.15.27-.23-.81Zm3.43,4-.26.06.22-.55ZM385.89,80.1l-.56.05-.72-.6-.11-1.32.95-.09-.07.68Zm2.6,7.75.5,0-.45.53Zm-2.1-1.31-1.32.11,1.32-.11Zm3.06,1.23h0v.08Zm-3.36-2.7-.52-.53.63-.15.54.46,0,.38Zm-4.64-9.4,1.81-.16-.35,1.69-1.32.12Zm4.31,15.08,1.48-.13,0,.72-.76-.16-.72.07Zm12.54,21.63.24,1-1.14.27-.69-.27-.29-1.47.78-.17-.25.62Zm-.09,12.82.24.13-.19,0Zm-1.38,2.9-.15.08.15-.18Zm.06.66,0,.23h-.16Zm-1.48.19-.15.09V129l.31-.2Zm-5.65-6.58.13.42-1.39.28-.09-.15,1.09-.76Zm.41,5.55.1,1.15L389.1,129l-.05-.66h0l.9-.45Zm1.26-2.29-.16-.3.74-1.06.48-.35-.15.32-.74,1.06Zm1.18-5.9-.33,0-.08-.94.46-.2Zm-.91-6.63v.06l-.83.07-.24-.81,1-.09,0,.2-.15.15Zm-4.4,31.2,1.06.62V145l-1.17-.07Zm5.05-12.42-.09-1h.16l0,1ZM396,134l1.11.64,0,.17-1.17-.06Zm-9-30.18,0-.53.3-.07ZM390,141.55l.57-1,.25-.4.41.34.13,1.48-.87.08Zm1.15-5.75-1.67-.18-.13-1.49,1,0-.65.61,1.38.55h0Zm7.65-3.82v.13h-.11Zm-1.38-13.84,1.17.06.08.94-.7-.38-.4,0Zm-1.82,4.13-.5-.27.16-.48.5.42Zm-.67-5.74v-.17l-.49-1,.72-.17.11,1.32Zm-.48-6.23-.94-.79,0-.33,1.14-.27.11,1.32Zm-1.56-12.43h0l.4-.48.19-.4.06.26Zm-8.35-23.59.06,0,0,.09Zm-2.11,7.38.32-.12.29,1.46-.88.21.36-.49Zm-.09,6.56,1.18.23.27,1.14-1.31.28-.37-.47ZM388,97l.08.4-1.24-.29Zm4.82,40,1.16-.1.1,1.16-1,.08Zm4.19,4.12-.3-1.47.08,0,1.06-.23.1,1.15-.45.54-.34.13Zm5.27-27.05-.68,1.73-.23.33-1.58-.18-.31-1.63,1.29-.45.66,0,.75-.9,0,0,.3-.16.42-.87v0l.63-.53.89.75-.72,1.22-.81.24-.29.42Zm2.88-12.71h.1l.09.32.19,1.13-.59-.09Zm3.43-2.63-.23,1.19.18.15-.5,0-.11-1.32.71-.14Zm1.19,6-.63.38-.25.91h-.5l.38-1.36,1,0Zm-6.31.91-.05.47-.41,0Zm-3.63,4.42.32-1.33.32-.31.47-.1.3,1.47Zm-2.18-10.76-.09.68.21.56,0,.25-1.27.61-.63.39-.62.55-.27.69-.73,1.22-1.17-.06-.44-1.29,1-1,1.27.5,1.2-1.44.05-1.33.33-.75Zm-16-28.67-.43,0-.15-.92.32-.2Zm1.16,24.65.72-1.18.17-.06.54.45.3,1.47-1.32.12-.07,0Zm.9,6.41.07.16-.22,0,0-.37Zm2.18,51.1.31.19v0l-.32.16Zm2.63-1,.75-1,0,0-.13,1.4Zm2.63,8.38,0-.12.35-.07.81.48-.43.15Zm-.37-6.11h0l-.06-.66.69.27,1,0-.64.75Zm5.27,1,.2.65-.25,1-1.15.1-.31-1.64Zm4.12-5.84h-.1l-.13-.65.17,0v0l.54.45.67.07v0Zm-.71-4.26-.62.55-.21.35.34-.86.82-.26Zm-.44-6.94v-.5l1.26-1.27h.07l.44,1.29-.45.54Zm1.78-8.13-.12.3-.46-1.25.21-1.09.17-.27,1.25-.94.67.1L403,128l-1.55,1.3Zm1.22,4.38-.33,0-.11-1.16.57-.13Zm1.49-17.08,1.46.34,0,.86-1.62.47Zm5.57-6.64.25,0-.22.42Zm1.48-15.42,1-.08-.87.53ZM416.7,76.6l-.05.64-.79,0L416,77l.26-.85ZM410,83l.57-.14-.37.45h-.13Zm-2.87,4.08L407,87l0-.47.05-.1.91-.23.09,1Zm-8.77,10.28-.47-.84-.09-.16L398,96l1-.25Zm-2.57-2.42-.54-.18-.18-.32,1.16.23Zm-2.36-11.49-.89,1.24-.43.87,0,0-.91-.65v-.14l0-.23.86-1,.64-.22.74-1.06.21-.36Zm-9.06-16.16-1.23-.72.3-.48.5,0,.5.35.3.54Zm-3.67-2-.47-.86.46.69.05.16Zm-3-3.57-1,.26-.2-.52.8-.2.28.11Zm2.37,23.23.16.83h-.09l-.8-.76Zm-.14,8,.76-.9.31-.53h.14l0,1.4L381,93l-.85.08Zm4.68,13.55.52.28.28,1.31-.63.38-.18,0,.12-.7Zm.76,52.62-.16.16,0-.16Zm3-1.61,1-1.17.34,1.06-1.44.62-.05-.09Zm10.75,1.39-.94.58-.71.61-.07-.05-.3-1.47,1.62-.47.6.5Zm2.15-15.31-1.64.14-.43-.59.94-1.12,1.2.4.1,1.11Zm5-28.52,0-.53,1.36-.55,0,1.29Z"/><path class="cls-2" d="M470.43,40.47l-1.4-.71-3.16-.06-2.65.07-1.64.31-1.64.14-1.34,0-2.77.58-3,.26-1,1.42-.29.52-.95,2.41-1.29,6.1-.42,2.86-.2,1.51-.38,1.36L448,59.05l-.35,1.69-.23,1.19-.52,1.7-.5,1.87L446,68.36l-.75,2.9-.95,2.41-.5,1.87.11,1.32-.09,2.66.32,1.8.91.92,3.34.21,2.64-.23,2.29-.37,2.66-.07,1.9-1,1.49-2,.38-1.37,1.15-2.09.49-2,1-2.24,1.08-2.92,1-2.25.66-2.05.8-2.23.66-1.88.68-1.72.5-1.88.79-2.39.94-2.58.79-2.39.65-2,.77-2.56-.05-2.49ZM448.51,73l-.25-1,.62-.17.44.93ZM452,74.82l1.16-.11,0,.24-1,.55Zm1.27-21.76.54-.3.26.11-.09.84-.84-.1Zm12.65-7.21-1,.59-.23-1,.85-.29ZM460,60.15l-.08.33-.06,0-.63.39-.27.68-.53,1.55-.27.13-1.6-.63-.3-.86.66-.67.57-.42.9.12,1-2.08.11-.67,1-.09.5.42ZM451.15,68l1.09.18v.06l-.16,0-1,.09Zm3.56-7.68-1.33,0-.13-1.49,1.32-.11Zm2-5.17.69.09.17.17.66,0,.14,1.54-1.47.3-.54-.46-.11-1.31Zm.56-4-.07.16h-.13ZM455.2,65.89l-1.31.12h0l.15-.9.21-.43,1.2.2-.19,1Zm7.1-15.74-.55-.62,0-.13,1.68.16,0,.32Zm-.05-6.31-.68-.11.29-.52.34.14Zm-3,3.76.31-.7.69.28-.3.36Zm-.82-1-.09-.46.35.3Zm-2,2.06-.18.65-1,.86-.05-.27.06-.78.13-.23Zm6.32,6.56-.23.05,0-.53.82-.07.49.3,0,1-.17,0Z"/><path class="cls-2" d="M506,38.68l-1.11-1.23-1.39-.71-3.16-.05-2.65.06-1.64.31-8.74.77-1,1.42-.26.85-1,2.24-1.3,6.1-.41,2.86-.2,1.51-.38,1.37L482.42,56l-.35,1.7-.23,1.18-.51,1.71-.5,1.87-.42,2.86-.74,2.89-.95,2.41-.67,1.89.19,2.14-.24,3,.45,1.29.91.92,3.64-.15,2.28-.54,2.16,0,2.95-.42,1.91-1,1.49-2,.38-1.36,1.15-2.1.48-2,1-2.25,1.07-2.92,1-2.24.65-2,.8-2.23.67-1.89.68-1.72.5-1.87.79-2.4.94-2.57.78-2.4.66-2.05.77-2.56Zm-4.33,3.71.3,0,.43.79-.67-.07ZM498,49.52l-.57.59-.39-.17-.26-1.14-.29-.39.38-.45.4,0,.49.71.11.14ZM486.46,75l.77-.07.08.36-.86.21Zm-2.87-1.75-.53-.45.45-.54.38.64.3-.45-.39.71Zm4.2-26.12,0,0,0,0ZM485.9,63.54l-.95.08.21-1-.06-.29.87,0Zm-.57,4.87,1.32-.12.13,1.47-1.5,0-.08-1Zm6.47-11.53h-.07l0-.25Zm-.56-6.44h-.14l.15-.13Zm-3.52,9.12.27-.69.69.27-.28.69-.68-.27Zm3.6,3.22.16-.06-.06-.66.83-.07.27,1.14-1.16.1Zm3.44-4.34Zm-.13-5.3-.88.48-.62-.52.74-1.06.43-.22h.05l.08-.07.24-.12.34.14.08.94Zm-9.07,4.61-.67,0,.51-1,.21,0,0,0Zm5.65,9.48,1,0,.09,1-1.19-.55Zm5.59-12.12.82-.07.09,1-.84-.1Zm2-8.77.4-.25.56.47-1,.24Zm-2-3-.34.47-.95,0,.22-1.35Z"/></g></g></svg>