<!-- Generator: Adobe Illustrator 25.1.0, SVG Export Plug-In  -->
<svg version="1.1" xmlns="http://www.w3.org/2000/svg" xmlns:xlink="http://www.w3.org/1999/xlink" x="0px" y="0px" width="288px"
	 height="288px" viewBox="0 0 288 288" style="overflow:visible;enable-background:new 0 0 288 288;" xml:space="preserve">
<style type="text/css">
	.st0{fill:#3D1F17;}
</style>
<defs>
</defs>
<g>
	<path class="st0" d="M246,18H138c-23.196,0-42,18.804-42,42v13.525C78.78,78.956,65.82,92.075,62.82,108H54v36h120v-36h-8.82
		c-2.94-16.107-15.9-29.376-33.18-34.869v-12.96c0-1.296,0.36-2.469,1.02-3.456c0.42-0.617,1.02-1.234,1.62-1.666
		C135.6,54.37,136.74,54,138,54h108v24h42V0h-42V18z M162,120v12H66v-12H162z M152.94,108H75.18C78,97.68,87.24,89.28,99.48,85.5
		c4.5-1.38,9.36-2.16,14.52-2.16c5.1,0,9.96,0.78,14.46,2.16C140.82,89.28,150.18,97.74,152.94,108z M246,42H138
		c-9.9,0-18,8.1-18,18v10.2c-1.98-0.24-3.96-0.36-6-0.36c-2.04,0-4.02,0.12-6,0.36V60c0-16.56,13.44-30,30-30h108V42z M258,12h18v54
		h-18V12z"/>
	<circle class="st0" cx="66" cy="162" r="6"/>
	<circle class="st0" cx="90" cy="162" r="6"/>
	<circle class="st0" cx="114" cy="162" r="6"/>
	<circle class="st0" cx="54" cy="186" r="6"/>
	<circle class="st0" cx="84" cy="186" r="6"/>
	<circle class="st0" cx="114" cy="186" r="6"/>
	<circle class="st0" cx="42" cy="210" r="6"/>
	<circle class="st0" cx="78" cy="210" r="6"/>
	<circle class="st0" cx="114" cy="210" r="6"/>
	<circle class="st0" cx="30" cy="234" r="6"/>
	<circle class="st0" cx="72" cy="234" r="6"/>
	<circle class="st0" cx="114" cy="234" r="6"/>
	<circle class="st0" cx="18" cy="258" r="6"/>
	<circle class="st0" cx="66" cy="258" r="6"/>
	<circle class="st0" cx="162" cy="162" r="6"/>
	<circle class="st0" cx="138" cy="162" r="6"/>
	<circle class="st0" cx="174" cy="186" r="6"/>
	<circle class="st0" cx="144" cy="186" r="6"/>
	<circle class="st0" cx="186" cy="210" r="6"/>
	<circle class="st0" cx="150" cy="210" r="6"/>
	<circle class="st0" cx="198" cy="234" r="6"/>
	<circle class="st0" cx="156" cy="234" r="6"/>
	<circle class="st0" cx="210" cy="258" r="6"/>
	<circle class="st0" cx="162" cy="258" r="6"/>
	<circle class="st0" cx="114" cy="258" r="6"/>
	<circle class="st0" cx="6" cy="282" r="6"/>
	<circle class="st0" cx="60" cy="282" r="6"/>
	<circle class="st0" cx="222" cy="282" r="6"/>
	<circle class="st0" cx="168" cy="282" r="6"/>
	<circle class="st0" cx="114" cy="282" r="6"/>
</g>
</svg>