<!-- Generator: Adobe Illustrator 25.1.0, SVG Export Plug-In  -->
<svg version="1.1" xmlns="http://www.w3.org/2000/svg" xmlns:xlink="http://www.w3.org/1999/xlink" x="0px" y="0px" width="288px"
	 height="288px" viewBox="0 0 288 288" style="overflow:visible;enable-background:new 0 0 288 288;" xml:space="preserve">
<style type="text/css">
	.st0{fill:#3D1F17;}
</style>
<defs>
</defs>
<g>
	<path class="st0" d="M270,145.8V30c0-16.56-13.44-30-30-30H48C31.44,0,18,13.44,18,30v115.8C6.96,155.7,0,170.04,0,186v12v24v24v12
		v12c0,9.9,8.1,18,18,18h12c9.9,0,18-8.1,18-18v-12h192v12c0,9.9,8.1,18,18,18h12c9.9,0,18-8.1,18-18v-12v-12v-24v-24v-12
		C288,170.04,281.04,155.7,270,145.8z M30,30c0-9.9,8.1-18,18-18h192c9.9,0,18,8.1,18,18v107.64c-3.78-1.86-7.8-3.36-12-4.32V102
		c0-13.26-10.74-24-24-24h-48c-13.26,0-24,10.74-24,24v30h-12v-30c0-13.26-10.74-24-24-24H66c-13.26,0-24,10.74-24,24v31.32
		c-4.2,0.96-8.22,2.46-12,4.32V30z M234,102v30h-72v-30c0-6.6,5.4-12,12-12h48C228.6,90,234,95.4,234,102z M126,102v30H54v-30
		c0-6.6,5.4-12,12-12h48C120.6,90,126,95.4,126,102z M36,270c0,3.3-2.7,6-6,6H18c-3.3,0-6-2.7-6-6v-12h24V270z M276,270
		c0,3.3-2.7,6-6,6h-12c-3.3,0-6-2.7-6-6v-12h24V270z M276,222v7.08V246h-24h-12H48H36H12v-16.92V222v-12h36h192h36V222z M276,198
		h-12H24H12v-12c0-7.92,2.16-15.3,6-21.6c3.06-5.04,7.14-9.42,12-12.84c3.96-2.76,8.4-4.86,13.2-6.12c3.42-0.96,7.08-1.44,10.8-1.44
		h1.62h68.76h12.84h13.56h12.84h68.76H234c3.72,0,7.38,0.48,10.8,1.44c4.8,1.26,9.24,3.36,13.2,6.12c4.86,3.42,8.94,7.8,12,12.84
		c3.84,6.3,6,13.68,6,21.6V198z"/>
</g>
</svg>