<!-- Generator: Adobe Illustrator 25.1.0, SVG Export Plug-In  -->
<svg version="1.1" xmlns="http://www.w3.org/2000/svg" xmlns:xlink="http://www.w3.org/1999/xlink" x="0px" y="0px" width="288px"
	 height="288px" viewBox="0 0 288 288" style="overflow:visible;enable-background:new 0 0 288 288;" xml:space="preserve">
<style type="text/css">
	.st0{fill:#3D1F17;}
</style>
<defs>
</defs>
<g>
	<path class="st0" d="M0,288h42V42h204v246h42V0H0V288z M12,12h264v264h-18V30H30v246H12V12z"/>
	<path class="st0" d="M48,204c0,3.3,2.7,6,6,6h9.54l4.2,4.26c0.06,0.06,0.18,0.12,0.24,0.18c-4.92,4.5-7.98,10.98-7.98,18.12V276
		c0,6.6,5.4,12,12,12h12c6.6,0,12-5.4,12-12v-6h96v6c0,6.6,5.4,12,12,12h12c6.6,0,12-5.4,12-12v-43.44c0-7.14-3.06-13.62-7.98-18.12
		c0.06-0.06,0.18-0.12,0.24-0.18l4.2-4.26H234c3.3,0,6-2.7,6-6c0-3.3-2.7-6-6-6h-12c-1.62,0-3.12,0.66-4.26,1.74l-4.26,4.26
		l-8.34-19.08C202.26,178.32,194.7,174,186,174h-84c-8.7,0-16.26,4.32-19.14,10.92L74.52,204l-4.26-4.26
		C69.12,198.66,67.62,198,66,198H54C50.7,198,48,200.7,48,204z M216,276h-12v-6h12V276z M93.84,189.72c0.78-1.8,3.66-3.72,8.16-3.72
		h84c4.5,0,7.38,1.92,8.16,3.72l7.92,18.12H85.92L93.84,189.72z M72,232.56c0-5.46,3.48-10.14,8.34-11.88
		c1.38-0.54,2.82-0.84,4.38-0.84h118.56c1.56,0,3,0.3,4.38,0.84c4.86,1.74,8.34,6.42,8.34,11.88V258H72V232.56z M72,270h12v6H72V270
		z"/>
	<rect x="54" y="54" class="st0" width="180" height="12"/>
	<rect x="54" y="78" class="st0" width="180" height="12"/>
	<rect x="54" y="102" class="st0" width="180" height="12"/>
	<rect x="54" y="126" class="st0" width="180" height="12"/>
</g>
</svg>