<!-- Generator: Adobe Illustrator 25.1.0, SVG Export Plug-In  -->
<svg version="1.1" xmlns="http://www.w3.org/2000/svg" xmlns:xlink="http://www.w3.org/1999/xlink" x="0px" y="0px"
	 width="159.934px" height="157.641px" viewBox="0 0 159.934 157.641"
	 style="overflow:visible;enable-background:new 0 0 159.934 157.641;" xml:space="preserve">
<style type="text/css">
	.st0{fill:#D16C0C;}
</style>
<defs>
</defs>
<g>
	<path class="st0" d="M49.538,7.902c1.906-0.623,4.34-1.553,6.149-2.22c3.068-1.607,1.359-1.377-1.555-0.552
		c-1.467,0.374-3.16,1.072-4.723,1.636c-1.533,0.636-2.892,1.252-3.658,1.576l0.9,0.057C46.295,8.941,47.664,8.593,49.538,7.902z"/>
	<path class="st0" d="M57.855,15.078c-1.281,0.078,0.886-0.667,1.288-1.078c-1.136,0.309-2.214,0.703-2.957,1.101
		c-0.739,0.413-1.165,0.768-1.057,0.91c1.047-0.456,2.726-0.939,3.904-1.158L57.855,15.078z"/>
	<path class="st0" d="M3.592,102.675c-1.187-4.438-1.431-11.116-0.407-9.53c-0.766-6.654-1.05-8.258-1.621-9.95
		c-0.283-0.847-0.52-1.718-0.67-3.273c-0.173-1.553-0.216-3.799,0.167-7.355c-0.41,1.484-0.588,3.065-0.806,4.693
		C0.077,78.89,0.031,80.581,0,82.303c0.067,3.444,0.33,7.027,0.979,10.571c1.134,7.13,3.408,13.997,5.132,20.261
		c2.144,4.802,3.167,4.677,2.213,2.215C6.657,111.843,5.104,106.817,3.592,102.675z"/>
	<path class="st0" d="M17.765,131.748c-0.277-0.392-0.615-0.882-0.989-1.439C16.752,130.47,16.898,130.793,17.765,131.748z"/>
	<path class="st0" d="M16.82,129.861c0.16-0.217-0.076-0.928-0.554-1.922c-0.239-0.497-0.541-1.064-0.882-1.679
		c-0.316-0.631-0.673-1.31-1.053-2.009c-0.791-1.381-1.534-2.933-2.3-4.329c-0.724-1.42-1.363-2.748-1.899-3.716
		c-0.116,0.52,0.12,1.559,0.571,2.89c0.433,1.34,1.214,2.897,2.012,4.532c1.303,2.437,2.874,4.913,4.062,6.681
		C16.8,130.151,16.989,130.15,16.82,129.861z"/>
	<path class="st0" d="M38.874,148.889l-2.152-1.37l-2.088-1.467l0.652,1.923c1.231,0.862,2.554,1.587,3.825,2.383
		c-3.257-2.165-1.964-1.574-0.547-0.929c0.708,0.325,1.45,0.659,1.693,0.66C40.496,150.093,40.191,149.839,38.874,148.889z"/>
	<path class="st0" d="M47.103,154.599c1.182,0.524,2.049,1.063,2.785,1.49c0.745,0.405,1.344,0.73,1.953,0.875
		c0.62,0.083,1.232,0.182,1.851,0.248c-1.504-0.699-2.694-1.223-3.751-1.607C48.907,155.171,48.011,154.863,47.103,154.599z"/>
	<path class="st0" d="M63.863,150.31c-1.851-0.34-3.654-0.594-6.097-1.307c1.225,0.344,2.443,0.745,3.655,1.059
		c0.601,0.173,1.195,0.344,1.776,0.51c0.588,0.137,1.163,0.272,1.72,0.402c1.113,0.26,2.159,0.466,3.105,0.526
		c0.943,0.076,1.77,0.093,2.444-0.048c-1.403-0.27-2.587-0.485-3.659-0.638C65.746,150.602,64.798,150.447,63.863,150.31z"/>
	<path class="st0" d="M108.767,5.054l-3.137-0.773c-1.046-0.244-2.109-0.423-3.157-0.634c2.546,1.02,5.649,1.787,7.515,2.228
		C109.583,5.603,109.186,5.303,108.767,5.054z"/>
	<path class="st0" d="M70.94,2.337c7.145-0.727,14.743-1.47,21.932-0.398c1.48,0.008,2.96,0.092,4.457,0.142
		C93.107,1.024,87.124,0.046,80.88,0.004c-6.238-0.067-12.697,0.813-17.714,2.241C60.54,4.04,65.397,2.167,70.94,2.337z"/>
	<path class="st0" d="M158.602,67.769c0.013-0.676,0.022-1.359,0.016-2.073c-0.078-1.713-0.125-3.556-0.382-5.459
		c-0.182-1.924-0.557-3.904-0.943-5.983c-0.472-2.048-0.967-4.195-1.666-6.351c-0.25-0.423-0.472-0.786-0.521-0.747
		c-1.992-4.173-4.57-9.101-7.901-13.685c-3.302-4.59-7.358-8.8-11.586-11.656c1.605,1.709,2.413,2.589,3.338,3.804
		c0.472,0.598,1,1.253,1.709,2.095c0.683,0.865,1.529,1.935,2.65,3.354c-1.15-0.806-2.187-1.708-3.13-2.726
		c-0.997-0.969-1.906-2.054-2.851-3.162c-1.919-2.178-3.897-4.572-6.493-6.553c1.993,1.769,1.507,1.689,0.09,0.842
		c-1.395-0.888-3.798-2.417-5.689-3.621c-3.409-2.529-8.188-5.351-13.65-7.592c-5.45-2.265-11.547-3.95-17.276-4.873
		C93.07,3.26,91.115,3.105,88.934,2.85c-1.096-0.079-2.251-0.163-3.408-0.247c-1.157-0.073-2.319-0.07-3.422-0.098
		c-1.103-0.041-2.148,0.026-3.077,0.075c-0.928,0.059-1.74,0.107-2.372,0.213c-1.266,0.227-1.819,0.487-1.211,0.802
		c-0.868,0.081-1.643,0.137-2.346,0.172C72.397,3.82,71.77,3.876,71.192,3.9c-1.153,0.066-2.11,0.01-3.002,0.038
		c-1.792,0.011-3.397-0.092-5.996,0.383c-3.7,1.345-7.206,2.455-10.628,3.656c-1.732,0.546-3.4,1.206-5.108,1.788l-2.516,0.985
		c-0.846,0.321-1.685,0.663-2.507,1.046c-6.624,2.894-13.267,6.925-18.525,13.781c0.071-0.67-1.396,0.508-3.062,2.268
		c-1.686,1.743-3.505,4.097-4.542,5.402c-0.532,0.74-1.155,1.606-1.833,2.549c-0.678,0.944-1.325,2.023-2.026,3.107
		c-1.353,2.199-2.648,4.596-3.62,6.76c-1.956,4.335-2.712,7.612-1.291,6.159c1.403-2.059,2.762-5.449,4.58-9.023
		c1.774-3.585,4.11-7.297,6.831-9.896c1.152-1.131,1.905-1.786,2.355-2.069c0.438-0.292,0.535-0.243,0.386,0.057
		c-0.321,0.581-1.536,2.237-2.976,4.218c-0.679,1.021-1.437,2.107-2.133,3.203c-0.665,1.117-1.324,2.207-1.856,3.196
		c-0.233,0.469-0.444,0.907-0.632,1.311c-2,3.449-3.726,7.051-5.172,10.741c-0.128,0.325-0.245,0.653-0.369,0.979
		c-0.968,2.017-1.773,4.087-2.364,6.213C4.649,62.45,4.332,64.2,3.973,65.942c-0.157,0.876-0.262,1.763-0.388,2.648
		c-0.127,0.885-0.241,1.774-0.296,2.675c-0.02,0.188-0.027,0.379-0.044,0.567c-0.948,7.423-0.833,14.848,0.251,21.93
		c0.012,0.188,0.022,0.369,0.034,0.558c0.092,0.974,0.249,2.216,0.448,3.535c0.26,1.307,0.564,2.69,0.89,3.954
		c0.378,1.25,0.76,2.385,1.1,3.214c0.154,0.369,0.308,0.662,0.451,0.891c0.02,0.059,0.037,0.119,0.057,0.178
		c1.047,3.227,2.521,6.906,4.334,10.658c1.805,3.758,4.072,7.526,6.538,10.974c4.899,6.943,10.785,12.379,14.479,14.957
		c-3.491-2.844-6.743-5.989-9.702-9.384c4.536,5.012,9.663,9.453,15.204,13.305c1.62,1.066,3.259,2.109,4.933,3.093
		c0.903,0.625,1.847,1.2,2.317,1.292c0.486,0.258,0.969,0.52,1.464,0.761c1.483,0.81,3.058,1.432,4.587,2.148
		c1.58,0.594,3.124,1.287,4.741,1.779c0.037-0.107,0.066-0.188,0.62-0.075c0.558,0.101,1.622,0.462,3.802,0.991
		c-4.308-1.204-9.582-3.151-14.551-5.735c-0.626-0.321-1.246-0.652-1.859-0.99c-0.397-0.445-0.837-0.87-2.45-1.604
		c-0.617-0.372-0.812-0.412-0.744-0.273c-2.925-1.814-5.592-3.743-7.782-5.568c0.343,0.172,0.651,0.275,0.906,0.287
		c-0.08-0.066-0.141-0.124-0.217-0.188c3.389,2.647,7.701,5.58,12.324,7.996c4.923,2.609,10.161,4.603,14.467,5.748
		c0.031-0.109,0.093-0.328,0.124-0.437c0.021-0.074,1.077,0.263,2.698,0.617c0.809,0.183,1.752,0.396,2.763,0.625
		c0.395,0.071,0.806,0.145,1.217,0.218c-1.958-0.37-4.324-0.88-6.65-1.57c-3.205-0.867-6.305-2.067-8.352-2.893
		c0.043-0.105,0.13-0.315,0.174-0.419c0.022-0.052,1.053,0.324,2.59,0.914c0.768,0.296,1.689,0.572,2.661,0.909
		c0.969,0.348,2.025,0.65,3.085,0.943c0.069-0.216,4.32,0.755,0.155-0.546c-1.964-0.557-3.901-1.2-5.811-1.912
		c0.035-0.013,0.063-0.029,0.082-0.05c1.479,0.525,2.887,0.975,4.204,1.363c3.149,0.856,5.813,1.395,7.961,1.694
		c0.436,0.054,0.836,0.103,1.229,0.151c3.126,0.573,6.365,0.967,9.651,1.13c8.573,0.416,17.42-0.86,24.968-3.617
		c0.818,0.227,2.447-0.262,4.132-0.773c1.646-0.619,3.359-1.242,4.315-1.484c-1.287,1.246,3.913-0.82,4.865-0.731
		c4.586-2.743,9.062-5.899,13.265-9.499c3.11-2.674,6.048-5.61,8.761-8.763c-0.004,0.131,0.247-0.034,1-0.78
		c1.566-1.543,5.053-5.844,7.821-10.618c2.838-4.733,4.949-9.842,5.815-11.873c1.167-3.102,1.533-4.151,1.452-3.742
		c-0.046,0.203-0.216,0.765-0.482,1.607c-0.26,0.844-0.619,1.965-1.136,3.251c-0.932,2.611-2.463,5.882-4.228,9.18
		c-1.777,3.297-3.963,6.516-5.943,9.186c0.719-0.845,0.719-0.846,0.376-0.322c-0.37,0.504-1.145,1.484-2.002,2.576
		c-0.872,1.079-1.898,2.212-2.652,3.12c-0.797,0.87-1.356,1.488-1.314,1.529c0.16,0.151,0.336,0.327,2.019-1.173
		c0.791-0.795,2.051-1.936,3.66-3.895c1.668-1.91,3.711-4.621,6.108-8.454c2.354-3.868,0.396,0.223,0.587,0.346
		c7.013-11.756,10.833-25.708,10.882-39.807C159.938,77.424,159.484,72.562,158.602,67.769z M151.904,97.025
		c-1.613,5.606-3.864,11.56-6.806,16.946c-1.5,4.554,0.051,2.353,1.914-1c1.879-3.339,3.477-7.992,3.553-7.413
		c0.083-0.072,0.137-0.082,0.168-0.046c-0.361,1.081-0.745,2.153-1.157,3.216c-0.833,2.156-1.771,4.27-2.804,6.336
		c-0.361,0.563-0.717,1.095-1.043,1.576c-1.244,1.694-2.286,2.73-2.701,2.616c-0.309,1.086-0.677,2.151-1.022,3.246
		c-6.276,9.371-15.652,17.524-27.665,23.614c3.024-2.555,4.461-3.375,9.557-6.469c1.453-2.081,1.702-2.685,1.243-2.44
		c-0.474,0.233-1.624,1.396-3.238,2.702c-0.399,0.334-0.819,0.686-1.252,1.048c-0.453,0.337-0.92,0.684-1.391,1.035
		c-0.475,0.347-0.954,0.703-1.442,1.036c-0.503,0.31-1.002,0.618-1.489,0.918c-0.492,0.292-0.973,0.574-1.444,0.82
		c-0.48,0.229-0.944,0.435-1.383,0.61c-0.881,0.341-1.642,0.597-2.267,0.595c0.461,0.119-0.755,0.815-2.485,1.672
		c-0.881,0.387-1.896,0.798-2.887,1.2c-0.996,0.388-1.996,0.694-2.808,0.985c1.015-0.152,2.055-0.26,3.074-0.451
		c1.328-0.73,2.668-1.4,3.937-2.21c2.218-0.794,3.287-1.203,3.714-1.185c0.421,0.006,0.164,0.372-0.381,0.878
		c-1.067,1.049-3.415,2.436-3.538,2.757c-1.492,0.642-2.831,1.165-4.063,1.556c-1.245,0.358-2.355,0.672-3.402,0.874
		c-1.052,0.185-2.021,0.324-2.952,0.441c-0.935,0.098-1.844,0.129-2.753,0.189c-3.664,0.126-7.433,0.312-14.589,0.662
		c-0.412,0.612,1.917,0.539,0.904,1.085c-2.01,0.215-2.836,0.393-3.978,0.517c-0.571,0.056-1.222,0.128-2.138,0.1
		c-0.914-0.049-2.099-0.117-3.725-0.33c-1.646-0.45-3.224-0.647-4.773-0.921c-0.776-0.123-1.555-0.201-2.332-0.306
		c-0.776-0.114-1.555-0.229-2.343-0.345c-0.857-0.133-1.729-0.283-2.615-0.462c-2.509-0.713-4.983-1.55-7.404-2.526
		c-1.283-1.2,0.785-0.553,3.06,0.108c1.152,0.298,2.339,0.668,3.194,0.808c0.854,0.141,1.345,0.144,1.072-0.154
		c-1.12-0.461-2.201-1.015-3.279-1.556c-0.964-0.274-1.965-0.719-2.982-1.205c-0.508-0.243-1.027-0.481-1.536-0.742
		c-0.503-0.273-1.008-0.546-1.506-0.816c-0.502-0.26-0.999-0.517-1.483-0.768c-0.477-0.266-0.947-0.515-1.407-0.737
		c-0.922-0.443-1.808-0.779-2.603-1.007l0.138-0.514c-2.588-1.079-5.715-3.107-8.507-5.082c-0.693-0.504-1.37-0.997-2.017-1.468
		c-0.635-0.488-1.241-0.953-1.803-1.384c-1.157-0.825-2.085-1.574-2.832-1.967c-6.259-6.608-11.934-14.334-16.008-23.097
		c-4.087-8.727-6.483-18.486-6.515-28.159c0.274-1.248,0.611-2.482,0.91-3.701c0.247-2.761,0.418-4.66,0.542-6.045
		c0.072-1.39,0.087-2.264,0.038-2.963c-0.105-1.399-0.478-2.093-0.094-4.668c0.438-1.154,0.737-0.591,1.145-1.156
		c1.211-5.627-1.093,1.693-0.822-0.556c0.755-2.847,1.665-6.097,2.847-8.972c0.555-1.45,1.241-2.773,1.837-3.964
		c0.673-1.155,1.325-2.147,1.935-2.885c-0.067-0.275-0.124-0.557-0.188-0.833c3.149-5.698,7.053-10.981,11.592-15.659
		c0.16-0.099,0.321-0.198,0.49-0.299c0.877-0.526,1.963-1.03,3.412-1.792c1.353-1.297,2.23-2.239,2.812-2.943
		c0.596-0.687,0.871-1.169,1.007-1.557c0.052-0.144,0.08-0.274,0.102-0.4c5.709-4.413,12.063-7.995,18.815-10.55
		c0.161-0.061,0.325-0.111,0.486-0.171c-0.593,1.051,2.034,0.383,5.782-0.564c0.551-0.142,1.128-0.29,1.722-0.443
		c0.6-0.132,1.217-0.267,1.846-0.405c1.25-0.31,2.56-0.545,3.856-0.78c2.589-0.475,5.149-0.792,7.182-0.933
		c5.253-0.25,6.149-0.593,7.138-1.073c0.222-0.098,0.453-0.204,0.738-0.301c2.68,0.096,5.352,0.34,8.004,0.728
		c-0.436,0.211-2.176,0.215-3.806,0.263c-2.655,0.17-5.002,0.365-1.43,1.22c1.701-0.064,3.394,0.048,5.104,0.1
		c1.91-0.183,3.671-0.47,5.586-0.581c2.505,0.562,4.977,1.263,7.409,2.087c-0.003,0.04,0.012,0.087,0.045,0.14
		c0.13,0.212,0.54,0.523,1.191,0.904c0.641,0.407,1.512,0.914,2.588,1.466c2.209,0.534,2.743,0.733,3.887,0.85
		c-0.259-0.207-0.486-0.392-0.691-0.564c8.001,3.674,15.34,8.792,21.537,15.051c2.011,2.028,3.887,4.186,5.648,6.433
		c0.274,0.609,0.602,1.278,1.038,2.057c1.015,1.904,2.691,4.38,5.226,8.456c-0.116-0.633-0.121-1.014-0.044-1.202
		c1.379,2.448,2.635,4.965,3.721,7.555c2.944,6.978,4.747,14.42,5.397,21.962c-0.003,0.034-0.005,0.065-0.008,0.1
		c0.009,0.043,0.019,0.095,0.029,0.142c0.144,1.738,0.247,3.479,0.266,5.224c0.019,1.433-0.018,2.866-0.082,4.297
		C153.847,88.91,153.087,92.876,151.904,97.025z"/>
	<path class="st0" d="M66.688,157.286c0.721,0.136,1.391,0.255,1.978,0.355C68,157.521,67.339,157.403,66.688,157.286z"/>
</g>
</svg>